STARTFONT 2.1
FONT -FontForge-Arial-Book-R-Normal--24-720-24-24-P-123-ISO10646-1
SIZE 24 75 75
FONTBOUNDINGBOX 64 33 -16 -8
COMMENT "Generated by fontforge, http://fontforge.sourceforge.net"
COMMENT "(c) 2017 The Monotype Corporation. All Rights Reserved. "
COMMENT ""
COMMENT "Hebrew OpenType Layout logic copyright (c) 2003 & 2007, Ralph Hancock & John Hudson. This layout logic for Biblical Hebrew is open source software under the MIT License; see embedded license description for details."
STARTPROPERTIES 40
FOUNDRY "FontForge"
FAMILY_NAME "Arial"
WEIGHT_NAME "Book"
SLANT "R"
SETWIDTH_NAME "Normal"
ADD_STYLE_NAME ""
PIXEL_SIZE 24
POINT_SIZE 720
RESOLUTION_X 24
RESOLUTION_Y 24
SPACING "P"
AVERAGE_WIDTH 123
CHARSET_REGISTRY "ISO10646"
CHARSET_ENCODING "1"
FONTNAME_REGISTRY ""
CHARSET_COLLECTIONS "ASCII ISOLatin1Encoding ISO8859-2 ISO8859-5 ISO8859-7 ISO8859-9 ISO8859-8 ISO8859-6 ISO8859-4 ISO10646-1"
FONT_NAME "ArialMT"
FACE_NAME "Arial"
COPYRIGHT "(c) 2017 The Monotype Corporation. All Rights Reserved. "
FONT_VERSION "7.00"
FONT_ASCENT 19
FONT_DESCENT 5
UNDERLINE_POSITION -3
UNDERLINE_THICKNESS 2
X_HEIGHT 12
CAP_HEIGHT 16
RAW_ASCENT 799
RAW_DESCENT 200
NORM_SPACE 7
RELATIVE_WEIGHT 40
RELATIVE_SETWIDTH 50
SUPERSCRIPT_X 0
SUPERSCRIPT_Y 11
SUPERSCRIPT_SIZE 15
SUBSCRIPT_X 0
SUBSCRIPT_Y 3
SUBSCRIPT_SIZE 15
FIGURE_WIDTH 13
AVG_LOWERCASE_WIDTH 130
AVG_UPPERCASE_WIDTH 170
ENDPROPERTIES
CHARS 4604
STARTCHAR space
ENCODING 32
SWIDTH 277 0
DWIDTH 7 0
BBX 1 1 0 0
BITMAP
00
ENDCHAR
STARTCHAR exclam
ENCODING 33
SWIDTH 277 0
DWIDTH 8 0
BBX 2 17 3 0
BITMAP
C0
C0
C0
C0
C0
C0
C0
C0
C0
C0
C0
C0
C0
00
00
C0
C0
ENDCHAR
STARTCHAR quotedbl
ENCODING 34
SWIDTH 354 0
DWIDTH 9 0
BBX 6 6 1 11
BITMAP
CC
CC
CC
CC
CC
CC
ENDCHAR
STARTCHAR numbersign
ENCODING 35
SWIDTH 556 0
DWIDTH 13 0
BBX 13 17 0 0
BITMAP
0630
0630
0C60
0C60
0C60
FFF8
FFF8
18C0
18C0
18C0
18C0
FFF8
FFF8
3180
3180
6300
6300
ENDCHAR
STARTCHAR dollar
ENCODING 36
SWIDTH 556 0
DWIDTH 13 0
BBX 11 20 1 -2
BITMAP
0400
1F00
7FC0
E4E0
C460
C400
C400
7400
3E00
0F80
05C0
0460
0460
C460
E460
74C0
7FC0
1F00
0400
0400
ENDCHAR
STARTCHAR percent
ENCODING 37
SWIDTH 889 0
DWIDTH 21 0
BBX 19 17 1 0
BITMAP
3C0600
660E00
C30C00
C31800
C31800
C33000
C33000
666000
3C6780
00CCC0
01D860
019860
039860
031860
071860
060CC0
0C0780
ENDCHAR
STARTCHAR ampersand
ENCODING 38
SWIDTH 666 0
DWIDTH 16 0
BBX 14 17 1 0
BITMAP
0F00
1F80
39C0
30C0
30C0
1980
1F80
1E00
3F00
7310
E198
C0F0
C0F0
E070
61F8
7FDC
1F18
ENDCHAR
STARTCHAR quotesingle
ENCODING 39
SWIDTH 190 0
DWIDTH 5 0
BBX 2 6 1 11
BITMAP
C0
C0
C0
C0
C0
C0
ENDCHAR
STARTCHAR parenleft
ENCODING 40
SWIDTH 333 0
DWIDTH 8 0
BBX 6 22 1 -5
BITMAP
0C
18
30
30
60
60
60
C0
C0
C0
C0
C0
C0
C0
C0
60
60
60
30
30
18
0C
ENDCHAR
STARTCHAR parenright
ENCODING 41
SWIDTH 333 0
DWIDTH 8 0
BBX 6 22 1 -5
BITMAP
C0
60
30
30
18
18
18
0C
0C
0C
0C
0C
0C
0C
0C
18
18
18
30
30
60
C0
ENDCHAR
STARTCHAR asterisk
ENCODING 42
SWIDTH 389 0
DWIDTH 9 0
BBX 8 7 1 10
BITMAP
18
18
FF
3C
3C
66
24
ENDCHAR
STARTCHAR plus
ENCODING 43
SWIDTH 583 0
DWIDTH 14 0
BBX 12 12 1 2
BITMAP
0600
0600
0600
0600
0600
FFF0
FFF0
0600
0600
0600
0600
0600
ENDCHAR
STARTCHAR comma
ENCODING 44
SWIDTH 277 0
DWIDTH 7 0
BBX 2 6 2 -4
BITMAP
C0
C0
40
40
C0
80
ENDCHAR
STARTCHAR hyphen
ENCODING 45
SWIDTH 333 0
DWIDTH 8 0
BBX 7 2 0 5
BITMAP
FE
FE
ENDCHAR
STARTCHAR period
ENCODING 46
SWIDTH 277 0
DWIDTH 7 0
BBX 2 2 2 0
BITMAP
C0
C0
ENDCHAR
STARTCHAR slash
ENCODING 47
SWIDTH 277 0
DWIDTH 7 0
BBX 7 17 0 0
BITMAP
06
06
0C
0C
0C
18
18
18
38
30
30
30
60
60
60
C0
C0
ENDCHAR
STARTCHAR zero
ENCODING 48
SWIDTH 556 0
DWIDTH 13 0
BBX 11 17 1 0
BITMAP
1F00
3F80
71C0
60C0
C060
C060
C060
C060
C060
C060
C060
C060
C060
60C0
71C0
3F80
1F00
ENDCHAR
STARTCHAR one
ENCODING 49
SWIDTH 556 0
DWIDTH 13 0
BBX 6 17 3 0
BITMAP
0C
0C
1C
7C
EC
CC
0C
0C
0C
0C
0C
0C
0C
0C
0C
0C
0C
ENDCHAR
STARTCHAR two
ENCODING 50
SWIDTH 556 0
DWIDTH 13 0
BBX 11 17 1 0
BITMAP
1F00
7FC0
60C0
C060
C060
0060
0060
00C0
0180
0300
0600
0C00
1800
3000
6000
FFE0
FFE0
ENDCHAR
STARTCHAR three
ENCODING 51
SWIDTH 556 0
DWIDTH 13 0
BBX 11 17 1 0
BITMAP
1E00
7F80
E1C0
C0C0
00C0
00C0
0180
0F00
0F80
00C0
0060
0060
C060
E060
60C0
3F80
1F00
ENDCHAR
STARTCHAR four
ENCODING 52
SWIDTH 556 0
DWIDTH 13 0
BBX 11 17 1 0
BITMAP
0180
0380
0780
0780
0D80
1D80
1980
3180
3180
6180
E180
FFE0
FFE0
0180
0180
0180
0180
ENDCHAR
STARTCHAR five
ENCODING 53
SWIDTH 556 0
DWIDTH 13 0
BBX 11 17 1 0
BITMAP
3FC0
3FC0
6000
6000
6000
6F00
7F80
E0C0
C060
0060
0060
0060
C060
C0C0
60C0
7F80
1F00
ENDCHAR
STARTCHAR six
ENCODING 54
SWIDTH 556 0
DWIDTH 13 0
BBX 11 17 1 0
BITMAP
0F80
3FC0
70E0
6060
6000
C000
CF00
DFC0
F0C0
E060
C060
C060
C060
6060
70C0
3F80
1F00
ENDCHAR
STARTCHAR seven
ENCODING 55
SWIDTH 556 0
DWIDTH 13 0
BBX 11 17 1 0
BITMAP
FFE0
FFE0
0040
00C0
0180
0100
0300
0600
0600
0600
0C00
0C00
0C00
1800
1800
1800
1800
ENDCHAR
STARTCHAR eight
ENCODING 56
SWIDTH 556 0
DWIDTH 13 0
BBX 11 17 1 0
BITMAP
1F00
3F80
71C0
60C0
60C0
60C0
3180
1F00
3F80
60C0
C060
C060
C060
C060
60C0
7FC0
1F00
ENDCHAR
STARTCHAR nine
ENCODING 57
SWIDTH 556 0
DWIDTH 13 0
BBX 11 17 1 0
BITMAP
1F00
3F80
60C0
E0C0
C060
C060
C060
C0E0
61E0
7F60
1E60
0060
00C0
C0C0
E1C0
7F80
3E00
ENDCHAR
STARTCHAR colon
ENCODING 58
SWIDTH 277 0
DWIDTH 7 0
BBX 2 13 2 0
BITMAP
C0
C0
00
00
00
00
00
00
00
00
00
C0
C0
ENDCHAR
STARTCHAR semicolon
ENCODING 59
SWIDTH 277 0
DWIDTH 7 0
BBX 2 17 2 -4
BITMAP
C0
C0
00
00
00
00
00
00
00
00
00
C0
C0
40
40
C0
80
ENDCHAR
STARTCHAR less
ENCODING 60
SWIDTH 583 0
DWIDTH 14 0
BBX 11 11 1 3
BITMAP
0020
00E0
07C0
1E00
7800
C000
7800
1E00
03C0
00E0
0020
ENDCHAR
STARTCHAR equal
ENCODING 61
SWIDTH 583 0
DWIDTH 14 0
BBX 11 7 1 5
BITMAP
FFE0
FFE0
0000
0000
0000
FFE0
FFE0
ENDCHAR
STARTCHAR greater
ENCODING 62
SWIDTH 583 0
DWIDTH 14 0
BBX 11 11 1 3
BITMAP
8000
E000
7800
0F00
03C0
0060
03C0
0F00
7C00
E000
8000
ENDCHAR
STARTCHAR question
ENCODING 63
SWIDTH 556 0
DWIDTH 13 0
BBX 11 17 1 0
BITMAP
1F00
3FC0
71C0
E060
C060
0060
00C0
01C0
0380
0600
0E00
0C00
0C00
0000
0000
0C00
0C00
ENDCHAR
STARTCHAR at
ENCODING 64
SWIDTH 1015 0
DWIDTH 24 0
BBX 22 22 1 -5
BITMAP
00FE00
07FF80
0F03C0
1C00E0
38F370
31FB30
638F18
660618
C60618
CC0618
CC0618
CC0638
CC0C30
CC1C70
C63CE0
67FFC0
61C700
30000C
3C0038
1F00F0
07FFC0
00FF00
ENDCHAR
STARTCHAR A
ENCODING 65
SWIDTH 666 0
DWIDTH 15 0
BBX 15 17 0 0
BITMAP
0380
0380
06C0
06C0
0EE0
0C60
0C60
1830
1830
1830
3FF8
3FF8
701C
600C
600C
C006
C006
ENDCHAR
STARTCHAR B
ENCODING 66
SWIDTH 666 0
DWIDTH 16 0
BBX 13 17 2 0
BITMAP
FF80
FFE0
C070
C030
C030
C030
C060
FFE0
FFE0
C070
C038
C018
C018
C018
C030
FFF0
FFC0
ENDCHAR
STARTCHAR C
ENCODING 67
SWIDTH 722 0
DWIDTH 17 0
BBX 15 17 1 0
BITMAP
07E0
1FF8
381C
700C
6006
E000
C000
C000
C000
C000
C000
C006
6006
700C
381C
1FF8
07E0
ENDCHAR
STARTCHAR D
ENCODING 68
SWIDTH 722 0
DWIDTH 17 0
BBX 14 17 2 0
BITMAP
FFC0
FFE0
C070
C038
C018
C00C
C00C
C00C
C00C
C00C
C00C
C00C
C018
C038
C070
FFE0
FF80
ENDCHAR
STARTCHAR E
ENCODING 69
SWIDTH 666 0
DWIDTH 16 0
BBX 13 17 2 0
BITMAP
FFF8
FFF8
C000
C000
C000
C000
C000
FFF0
FFF0
C000
C000
C000
C000
C000
C000
FFF8
FFF8
ENDCHAR
STARTCHAR F
ENCODING 70
SWIDTH 610 0
DWIDTH 15 0
BBX 12 17 2 0
BITMAP
FFF0
FFF0
C000
C000
C000
C000
C000
FFE0
FFE0
C000
C000
C000
C000
C000
C000
C000
C000
ENDCHAR
STARTCHAR G
ENCODING 71
SWIDTH 777 0
DWIDTH 19 0
BBX 16 17 1 0
BITMAP
07F0
1FFC
3C1E
7006
6003
E000
C000
C000
C07F
C07F
C003
E003
6003
7003
3C1F
1FFC
03F0
ENDCHAR
STARTCHAR H
ENCODING 72
SWIDTH 722 0
DWIDTH 17 0
BBX 13 17 2 0
BITMAP
C018
C018
C018
C018
C018
C018
C018
FFF8
FFF8
C018
C018
C018
C018
C018
C018
C018
C018
ENDCHAR
STARTCHAR I
ENCODING 73
SWIDTH 277 0
DWIDTH 6 0
BBX 2 17 2 0
BITMAP
C0
C0
C0
C0
C0
C0
C0
C0
C0
C0
C0
C0
C0
C0
C0
C0
C0
ENDCHAR
STARTCHAR J
ENCODING 74
SWIDTH 500 0
DWIDTH 12 0
BBX 9 17 1 0
BITMAP
0180
0180
0180
0180
0180
0180
0180
0180
0180
0180
0180
0180
C180
C180
E380
7F00
3E00
ENDCHAR
STARTCHAR K
ENCODING 75
SWIDTH 666 0
DWIDTH 16 0
BBX 14 17 2 0
BITMAP
C038
C070
C0E0
C1C0
C380
C700
CE00
DE00
FF00
F700
E380
C1C0
C0E0
C0E0
C070
C038
C01C
ENDCHAR
STARTCHAR L
ENCODING 76
SWIDTH 556 0
DWIDTH 13 0
BBX 10 17 2 0
BITMAP
C000
C000
C000
C000
C000
C000
C000
C000
C000
C000
C000
C000
C000
C000
C000
FFC0
FFC0
ENDCHAR
STARTCHAR M
ENCODING 77
SWIDTH 833 0
DWIDTH 19 0
BBX 15 17 2 0
BITMAP
E00E
F01E
F01E
F01E
D836
D836
D836
C826
CC66
CC66
CC66
C6C6
C6C6
C6C6
C286
C386
C386
ENDCHAR
STARTCHAR N
ENCODING 78
SWIDTH 722 0
DWIDTH 17 0
BBX 13 17 2 0
BITMAP
C018
E018
F018
F018
D818
CC18
CC18
C618
C718
C318
C198
C198
C0D8
C078
C078
C038
C018
ENDCHAR
STARTCHAR O
ENCODING 79
SWIDTH 777 0
DWIDTH 19 0
BBX 17 17 1 0
BITMAP
07F000
1FFC00
3C1E00
700700
600300
E00380
C00180
C00180
C00180
C00180
C00180
E00380
600300
700700
3C1E00
1FFC00
07F000
ENDCHAR
STARTCHAR P
ENCODING 80
SWIDTH 666 0
DWIDTH 16 0
BBX 13 17 2 0
BITMAP
FFC0
FFF0
C030
C018
C018
C018
C018
C030
FFF0
FFC0
C000
C000
C000
C000
C000
C000
C000
ENDCHAR
STARTCHAR Q
ENCODING 81
SWIDTH 777 0
DWIDTH 19 0
BBX 17 18 1 -1
BITMAP
07F000
1FFC00
3C1E00
700700
600300
E00380
C00180
C00180
C00180
C00180
C00180
E00380
606300
707F00
3C1E00
1FFF00
03F780
000180
ENDCHAR
STARTCHAR R
ENCODING 82
SWIDTH 722 0
DWIDTH 17 0
BBX 14 17 2 0
BITMAP
FFE0
FFF0
C038
C018
C018
C018
C038
FFF0
FFC0
C380
C1C0
C0E0
C0E0
C070
C030
C038
C01C
ENDCHAR
STARTCHAR S
ENCODING 83
SWIDTH 666 0
DWIDTH 16 0
BBX 14 17 1 0
BITMAP
0FC0
3FF0
3038
601C
600C
6000
3800
3FC0
0FF0
0078
001C
C00C
C00C
601C
7838
3FF0
0FC0
ENDCHAR
STARTCHAR T
ENCODING 84
SWIDTH 610 0
DWIDTH 14 0
BBX 14 17 0 0
BITMAP
FFFC
FFFC
0300
0300
0300
0300
0300
0300
0300
0300
0300
0300
0300
0300
0300
0300
0300
ENDCHAR
STARTCHAR U
ENCODING 85
SWIDTH 722 0
DWIDTH 17 0
BBX 13 17 2 0
BITMAP
C018
C018
C018
C018
C018
C018
C018
C018
C018
C018
C018
C018
C018
E038
7070
3FE0
1FC0
ENDCHAR
STARTCHAR V
ENCODING 86
SWIDTH 666 0
DWIDTH 15 0
BBX 15 17 0 0
BITMAP
C006
600C
600C
600C
3018
3018
3838
1830
1830
0C60
0C60
0C60
06C0
06C0
07C0
0380
0380
ENDCHAR
STARTCHAR W
ENCODING 87
SWIDTH 943 0
DWIDTH 23 0
BBX 23 17 0 0
BITMAP
C03806
C03806
606C0C
606C0C
606C0C
60C60C
30C618
30C618
31C318
318318
398338
1B83B0
1B01B0
1B01B0
1B01B0
0E00E0
0E00E0
ENDCHAR
STARTCHAR X
ENCODING 88
SWIDTH 666 0
DWIDTH 15 0
BBX 15 17 0 0
BITMAP
701C
3838
1870
1C70
0EE0
06C0
07C0
0380
0380
06C0
0EC0
0EE0
1C70
3838
3818
701C
E00E
ENDCHAR
STARTCHAR Y
ENCODING 89
SWIDTH 666 0
DWIDTH 16 0
BBX 16 17 0 0
BITMAP
E007
600E
301C
381C
1C38
0E70
0660
07E0
03C0
0180
0180
0180
0180
0180
0180
0180
0180
ENDCHAR
STARTCHAR Z
ENCODING 90
SWIDTH 610 0
DWIDTH 15 0
BBX 14 17 0 0
BITMAP
7FFC
7FFC
0018
0030
0060
00E0
01C0
0180
0300
0600
0E00
1C00
1800
3000
6000
FFFC
FFFC
ENDCHAR
STARTCHAR bracketleft
ENCODING 91
SWIDTH 277 0
DWIDTH 7 0
BBX 4 22 1 -5
BITMAP
F0
F0
C0
C0
C0
C0
C0
C0
C0
C0
C0
C0
C0
C0
C0
C0
C0
C0
C0
C0
F0
F0
ENDCHAR
STARTCHAR backslash
ENCODING 92
SWIDTH 277 0
DWIDTH 7 0
BBX 7 17 0 0
BITMAP
C0
C0
60
60
60
30
30
30
30
18
18
18
0C
0C
0C
06
06
ENDCHAR
STARTCHAR bracketright
ENCODING 93
SWIDTH 277 0
DWIDTH 7 0
BBX 4 22 2 -5
BITMAP
F0
F0
30
30
30
30
30
30
30
30
30
30
30
30
30
30
30
30
30
30
F0
F0
ENDCHAR
STARTCHAR asciicircum
ENCODING 94
SWIDTH 469 0
DWIDTH 12 0
BBX 10 9 1 8
BITMAP
0C00
1E00
1E00
3300
3300
3300
6180
6180
C0C0
ENDCHAR
STARTCHAR underscore
ENCODING 95
SWIDTH 556 0
DWIDTH 13 0
BBX 14 2 -1 -5
BITMAP
FFFC
FFFC
ENDCHAR
STARTCHAR grave
ENCODING 96
SWIDTH 333 0
DWIDTH 8 0
BBX 4 3 1 14
BITMAP
E0
60
30
ENDCHAR
STARTCHAR a
ENCODING 97
SWIDTH 556 0
DWIDTH 13 0
BBX 11 13 1 0
BITMAP
1F00
7F80
E1C0
C0C0
00C0
07C0
3FC0
78C0
C0C0
C1C0
E3C0
7FC0
3C60
ENDCHAR
STARTCHAR b
ENCODING 98
SWIDTH 556 0
DWIDTH 14 0
BBX 11 17 2 0
BITMAP
C000
C000
C000
C000
CF00
DF80
F1C0
E0E0
C060
C060
C060
C060
C060
E0C0
F1C0
DF80
CF00
ENDCHAR
STARTCHAR c
ENCODING 99
SWIDTH 500 0
DWIDTH 12 0
BBX 10 13 1 0
BITMAP
1F00
3F80
71C0
E0C0
C000
C000
C000
C000
C000
E0C0
71C0
3F80
1E00
ENDCHAR
STARTCHAR d
ENCODING 100
SWIDTH 556 0
DWIDTH 14 0
BBX 11 17 1 0
BITMAP
0060
0060
0060
0060
1E60
3F60
71E0
E0E0
C060
C060
C060
C060
C060
60E0
71E0
3F60
1E60
ENDCHAR
STARTCHAR e
ENCODING 101
SWIDTH 556 0
DWIDTH 13 0
BBX 11 13 1 0
BITMAP
1F00
3F80
71C0
C0E0
C060
FFE0
FFE0
C000
C000
E060
71C0
3F80
1F00
ENDCHAR
STARTCHAR f
ENCODING 102
SWIDTH 277 0
DWIDTH 7 0
BBX 7 17 0 0
BITMAP
1E
3E
30
30
FE
FE
30
30
30
30
30
30
30
30
30
30
30
ENDCHAR
STARTCHAR g
ENCODING 103
SWIDTH 556 0
DWIDTH 14 0
BBX 11 18 1 -5
BITMAP
1E60
3F60
71E0
60E0
C060
C060
C060
C060
C060
60E0
71E0
3F60
1E60
0060
C0E0
E1C0
7FC0
3F00
ENDCHAR
STARTCHAR h
ENCODING 104
SWIDTH 556 0
DWIDTH 14 0
BBX 10 17 2 0
BITMAP
C000
C000
C000
C000
CF00
DF80
F1C0
E0C0
C0C0
C0C0
C0C0
C0C0
C0C0
C0C0
C0C0
C0C0
C0C0
ENDCHAR
STARTCHAR i
ENCODING 105
SWIDTH 222 0
DWIDTH 5 0
BBX 2 17 2 0
BITMAP
C0
C0
00
00
C0
C0
C0
C0
C0
C0
C0
C0
C0
C0
C0
C0
C0
ENDCHAR
STARTCHAR j
ENCODING 106
SWIDTH 222 0
DWIDTH 6 0
BBX 5 22 -1 -5
BITMAP
18
18
00
00
18
18
18
18
18
18
18
18
18
18
18
18
18
18
18
18
F8
F0
ENDCHAR
STARTCHAR k
ENCODING 107
SWIDTH 500 0
DWIDTH 12 0
BBX 10 17 2 0
BITMAP
C000
C000
C000
C000
C180
C300
C600
CC00
D800
F800
FC00
CE00
C600
C700
C300
C180
C1C0
ENDCHAR
STARTCHAR l
ENCODING 108
SWIDTH 222 0
DWIDTH 6 0
BBX 2 17 2 0
BITMAP
C0
C0
C0
C0
C0
C0
C0
C0
C0
C0
C0
C0
C0
C0
C0
C0
C0
ENDCHAR
STARTCHAR m
ENCODING 109
SWIDTH 833 0
DWIDTH 20 0
BBX 16 13 2 0
BITMAP
CE3C
FF7E
E3C7
C183
C183
C183
C183
C183
C183
C183
C183
C183
C183
ENDCHAR
STARTCHAR n
ENCODING 110
SWIDTH 556 0
DWIDTH 14 0
BBX 10 13 2 0
BITMAP
CF00
DF80
F1C0
E0C0
C0C0
C0C0
C0C0
C0C0
C0C0
C0C0
C0C0
C0C0
C0C0
ENDCHAR
STARTCHAR o
ENCODING 111
SWIDTH 556 0
DWIDTH 13 0
BBX 11 13 1 0
BITMAP
1F00
3F80
71C0
E0E0
C060
C060
C060
C060
C060
E0E0
71C0
3F80
1F00
ENDCHAR
STARTCHAR p
ENCODING 112
SWIDTH 556 0
DWIDTH 14 0
BBX 11 18 2 -5
BITMAP
CF00
DF80
F1C0
E0E0
C060
C060
C060
C060
C060
E0C0
F1C0
DF80
CF00
C000
C000
C000
C000
C000
ENDCHAR
STARTCHAR q
ENCODING 113
SWIDTH 556 0
DWIDTH 14 0
BBX 11 18 1 -5
BITMAP
1E60
3F60
71E0
E0E0
C060
C060
C060
C060
C060
60E0
71E0
3F60
1E60
0060
0060
0060
0060
0060
ENDCHAR
STARTCHAR r
ENCODING 114
SWIDTH 333 0
DWIDTH 8 0
BBX 6 13 2 0
BITMAP
DC
FC
E0
C0
C0
C0
C0
C0
C0
C0
C0
C0
C0
ENDCHAR
STARTCHAR s
ENCODING 115
SWIDTH 500 0
DWIDTH 12 0
BBX 10 13 1 0
BITMAP
3F00
7F80
E1C0
C0C0
E000
7E00
3F80
07C0
00C0
C0C0
E1C0
7F80
3F00
ENDCHAR
STARTCHAR t
ENCODING 116
SWIDTH 277 0
DWIDTH 7 0
BBX 7 17 0 0
BITMAP
10
30
30
30
FE
FE
30
30
30
30
30
30
30
30
30
3E
1E
ENDCHAR
STARTCHAR u
ENCODING 117
SWIDTH 556 0
DWIDTH 14 0
BBX 10 13 2 0
BITMAP
C0C0
C0C0
C0C0
C0C0
C0C0
C0C0
C0C0
C0C0
C0C0
C1C0
E3C0
7EC0
3CC0
ENDCHAR
STARTCHAR v
ENCODING 118
SWIDTH 500 0
DWIDTH 11 0
BBX 11 13 0 0
BITMAP
C060
C060
60C0
60C0
60C0
3180
3180
1B00
1B00
1B00
0E00
0E00
0400
ENDCHAR
STARTCHAR w
ENCODING 119
SWIDTH 722 0
DWIDTH 17 0
BBX 17 13 0 0
BITMAP
C08180
C1C180
C1C180
614300
636300
636300
363600
363600
363600
141400
1C1C00
1C1C00
080800
ENDCHAR
STARTCHAR x
ENCODING 120
SWIDTH 500 0
DWIDTH 11 0
BBX 11 13 0 0
BITMAP
E060
60C0
31C0
3980
1B00
0E00
0E00
0E00
1B00
3B80
3180
60C0
E0E0
ENDCHAR
STARTCHAR y
ENCODING 121
SWIDTH 500 0
DWIDTH 12 0
BBX 10 18 1 -5
BITMAP
C0C0
C0C0
C180
6180
6180
6380
3300
3300
1B00
1E00
1E00
0E00
0C00
0C00
0C00
1800
7800
7000
ENDCHAR
STARTCHAR z
ENCODING 122
SWIDTH 500 0
DWIDTH 12 0
BBX 10 13 1 0
BITMAP
7FC0
7FC0
0180
0380
0700
0E00
0C00
1800
3800
7000
6000
FFC0
FFC0
ENDCHAR
STARTCHAR braceleft
ENCODING 123
SWIDTH 333 0
DWIDTH 8 0
BBX 6 22 1 -5
BITMAP
1C
3C
30
30
30
30
30
30
30
60
C0
E0
60
30
30
30
30
30
30
30
3C
1C
ENDCHAR
STARTCHAR bar
ENCODING 124
SWIDTH 259 0
DWIDTH 6 0
BBX 2 23 2 -6
BITMAP
C0
C0
C0
C0
C0
C0
C0
C0
C0
C0
C0
C0
C0
C0
C0
C0
C0
C0
C0
C0
C0
C0
C0
ENDCHAR
STARTCHAR braceright
ENCODING 125
SWIDTH 333 0
DWIDTH 8 0
BBX 6 22 1 -5
BITMAP
E0
F0
30
30
30
30
30
30
30
18
0C
1C
18
30
30
30
30
30
30
30
F0
E0
ENDCHAR
STARTCHAR asciitilde
ENCODING 126
SWIDTH 583 0
DWIDTH 14 0
BBX 12 4 1 6
BITMAP
7800
FE30
C7F0
01E0
ENDCHAR
STARTCHAR space.dup1
ENCODING 160
SWIDTH 277 0
DWIDTH 7 0
BBX 1 1 0 0
BITMAP
00
ENDCHAR
STARTCHAR exclamdown
ENCODING 161
SWIDTH 333 0
DWIDTH 8 0
BBX 2 18 3 -5
BITMAP
C0
C0
00
00
C0
C0
C0
C0
C0
C0
C0
C0
C0
C0
C0
C0
C0
C0
ENDCHAR
STARTCHAR cent
ENCODING 162
SWIDTH 556 0
DWIDTH 13 0
BBX 10 22 1 -5
BITMAP
0100
0100
0100
0100
1E00
3F80
7380
E2C0
C400
C400
C400
C800
C8C0
E8C0
7980
3F00
1E00
1000
2000
2000
2000
2000
ENDCHAR
STARTCHAR sterling
ENCODING 163
SWIDTH 556 0
DWIDTH 13 0
BBX 12 17 0 0
BITMAP
0F80
1FC0
38E0
3060
3000
3000
3000
3000
FF00
FF00
1800
1800
1000
3000
7E20
FFF0
41E0
ENDCHAR
STARTCHAR currency
ENCODING 164
SWIDTH 556 0
DWIDTH 13 0
BBX 12 12 1 2
BITMAP
4020
EF70
7FE0
30C0
6060
6060
6060
6060
30C0
7FE0
EF70
4020
ENDCHAR
STARTCHAR yen
ENCODING 165
SWIDTH 556 0
DWIDTH 13 0
BBX 14 17 -1 0
BITMAP
C00C
6018
3038
3030
1860
1CE0
0CC0
07C0
7FF8
7FF8
0300
0300
7FF8
7FF8
0300
0300
0300
ENDCHAR
STARTCHAR brokenbar
ENCODING 166
SWIDTH 259 0
DWIDTH 6 0
BBX 2 23 2 -6
BITMAP
C0
C0
C0
C0
C0
C0
C0
C0
C0
C0
00
00
00
00
C0
C0
C0
C0
C0
C0
C0
C0
C0
ENDCHAR
STARTCHAR section
ENCODING 167
SWIDTH 556 0
DWIDTH 13 0
BBX 11 22 1 -5
BITMAP
1F00
3F80
71C0
60C0
6000
3800
3C00
6F00
C380
C1C0
C0E0
7060
3860
1EC0
0700
0380
01C0
60C0
60C0
31C0
3F80
0F00
ENDCHAR
STARTCHAR dieresis
ENCODING 168
SWIDTH 333 0
DWIDTH 8 0
BBX 6 2 1 15
BITMAP
CC
CC
ENDCHAR
STARTCHAR copyright
ENCODING 169
SWIDTH 736 0
DWIDTH 18 0
BBX 18 17 0 0
BITMAP
03F000
0FFC00
1C0E00
31F700
67F980
661D80
CC00C0
CC00C0
CC00C0
CC00C0
C61CC0
67F980
61F180
380700
1C0E00
0FFC00
03F000
ENDCHAR
STARTCHAR ordfeminine
ENCODING 170
SWIDTH 370 0
DWIDTH 9 0
BBX 6 9 1 8
BITMAP
78
FC
CC
0C
7C
CC
CC
FC
7C
ENDCHAR
STARTCHAR guillemotleft
ENCODING 171
SWIDTH 556 0
DWIDTH 13 0
BBX 9 11 1 1
BITMAP
1980
3300
3300
6600
6600
CC00
6600
6600
3300
3300
1980
ENDCHAR
STARTCHAR logicalnot
ENCODING 172
SWIDTH 583 0
DWIDTH 14 0
BBX 11 7 1 5
BITMAP
FFE0
FFE0
0060
0060
0060
0060
0060
ENDCHAR
STARTCHAR hyphen.dup2
ENCODING 173
SWIDTH 333 0
DWIDTH 8 0
BBX 7 2 0 5
BITMAP
FE
FE
ENDCHAR
STARTCHAR registered
ENCODING 174
SWIDTH 736 0
DWIDTH 18 0
BBX 18 17 0 0
BITMAP
03F000
0FFC00
1C0E00
300700
67E180
67F180
C630C0
C630C0
C7F0C0
C7E0C0
C660C0
663180
661980
380700
1C0E00
0FFC00
03F000
ENDCHAR
STARTCHAR macron
ENCODING 175
SWIDTH 552 0
DWIDTH 13 0
BBX 14 2 -1 18
BITMAP
FFFC
FFFC
ENDCHAR
STARTCHAR degree
ENCODING 176
SWIDTH 399 0
DWIDTH 10 0
BBX 7 7 1 10
BITMAP
38
44
82
82
82
44
38
ENDCHAR
STARTCHAR plusminus
ENCODING 177
SWIDTH 548 0
DWIDTH 13 0
BBX 12 14 1 0
BITMAP
0600
0600
0600
0600
0600
FFF0
FFF0
0600
0600
0600
0600
0600
FFF0
FFF0
ENDCHAR
STARTCHAR uni00B2
ENCODING 178
SWIDTH 333 0
DWIDTH 8 0
BBX 7 9 0 8
BITMAP
7C
C6
06
06
0C
18
30
60
FE
ENDCHAR
STARTCHAR uni00B3
ENCODING 179
SWIDTH 333 0
DWIDTH 8 0
BBX 7 9 0 8
BITMAP
7C
C6
06
06
18
06
06
C6
7C
ENDCHAR
STARTCHAR acute
ENCODING 180
SWIDTH 333 0
DWIDTH 8 0
BBX 4 3 3 14
BITMAP
70
60
C0
ENDCHAR
STARTCHAR mu
ENCODING 181
SWIDTH 576 0
DWIDTH 14 0
BBX 10 18 2 -5
BITMAP
C0C0
C0C0
C0C0
C0C0
C0C0
C0C0
C0C0
C0C0
C0C0
C1C0
E1C0
FFC0
DEC0
C000
C000
C000
C000
C000
ENDCHAR
STARTCHAR paragraph
ENCODING 182
SWIDTH 537 0
DWIDTH 13 0
BBX 13 22 0 -5
BITMAP
1FF8
7FF8
7E60
FE60
FE60
FE60
FE60
7E60
7E60
1E60
0660
0660
0660
0660
0660
0660
0660
0660
0660
0660
0660
0660
ENDCHAR
STARTCHAR periodcentered
ENCODING 183
SWIDTH 333 0
DWIDTH 8 0
BBX 2 2 3 7
BITMAP
C0
C0
ENDCHAR
STARTCHAR cedilla
ENCODING 184
SWIDTH 333 0
DWIDTH 8 0
BBX 5 4 1 -4
BITMAP
20
30
18
F0
ENDCHAR
STARTCHAR uni00B9
ENCODING 185
SWIDTH 333 0
DWIDTH 8 0
BBX 5 9 1 8
BITMAP
18
78
F8
98
18
18
18
18
18
ENDCHAR
STARTCHAR ordmasculine
ENCODING 186
SWIDTH 365 0
DWIDTH 9 0
BBX 7 9 1 8
BITMAP
38
7C
EE
C6
C6
C6
EE
7C
38
ENDCHAR
STARTCHAR guillemotright
ENCODING 187
SWIDTH 556 0
DWIDTH 13 0
BBX 9 11 3 1
BITMAP
CC00
6600
6600
3300
3300
1980
3300
3300
6600
6600
CC00
ENDCHAR
STARTCHAR onequarter
ENCODING 188
SWIDTH 833 0
DWIDTH 20 0
BBX 19 17 1 0
BITMAP
180300
780700
F80E00
980C00
181800
183800
187000
186000
18C0C0
01C1C0
0383C0
0302C0
0606C0
0C0CC0
1C0FE0
1800C0
3000C0
ENDCHAR
STARTCHAR onehalf
ENCODING 189
SWIDTH 833 0
DWIDTH 20 0
BBX 18 17 1 0
BITMAP
180300
780700
F80600
980C00
181800
183800
183000
186000
18CF80
01D8C0
0180C0
0300C0
060180
0E0380
0C0600
180C00
301FC0
ENDCHAR
STARTCHAR threequarters
ENCODING 190
SWIDTH 833 0
DWIDTH 20 0
BBX 19 17 0 0
BITMAP
7C01C0
C60180
060300
060600
180E00
060C00
061800
C63000
7C70C0
0061C0
00C3C0
0183C0
0386C0
030CC0
060FE0
0C00C0
1C00C0
ENDCHAR
STARTCHAR questiondown
ENCODING 191
SWIDTH 610 0
DWIDTH 15 0
BBX 11 18 2 -5
BITMAP
0C00
0C00
0000
0000
0C00
0C00
0C00
1C00
3800
3000
6000
E000
C000
C060
C0E0
71C0
7F80
1F00
ENDCHAR
STARTCHAR Agrave
ENCODING 192
SWIDTH 666 0
DWIDTH 15 0
BBX 15 21 0 0
BITMAP
0700
0300
0180
0000
0380
0380
06C0
06C0
0EE0
0C60
0C60
1830
1830
1830
3FF8
3FF8
701C
600C
600C
C006
C006
ENDCHAR
STARTCHAR Aacute
ENCODING 193
SWIDTH 666 0
DWIDTH 15 0
BBX 15 21 0 0
BITMAP
01C0
0180
0300
0000
0380
0380
06C0
06C0
0EE0
0C60
0C60
1830
1830
1830
3FF8
3FF8
701C
600C
600C
C006
C006
ENDCHAR
STARTCHAR Acircumflex
ENCODING 194
SWIDTH 666 0
DWIDTH 15 0
BBX 15 21 0 0
BITMAP
0380
06C0
0660
0000
0380
0380
06C0
06C0
0EE0
0C60
0C60
1830
1830
1830
3FF8
3FF8
701C
600C
600C
C006
C006
ENDCHAR
STARTCHAR Atilde
ENCODING 195
SWIDTH 666 0
DWIDTH 15 0
BBX 15 21 0 0
BITMAP
0730
0FF0
0CE0
0000
0380
0380
06C0
06C0
0EE0
0C60
0C60
1830
1830
1830
3FF8
3FF8
701C
600C
600C
C006
C006
ENDCHAR
STARTCHAR Adieresis
ENCODING 196
SWIDTH 666 0
DWIDTH 15 0
BBX 15 20 0 0
BITMAP
0660
0660
0000
0380
0380
06C0
06C0
0EE0
0C60
0C60
1830
1830
1830
3FF8
3FF8
701C
600C
600C
C006
C006
ENDCHAR
STARTCHAR Aring
ENCODING 197
SWIDTH 666 0
DWIDTH 15 0
BBX 15 21 0 0
BITMAP
0380
0440
0440
0440
0380
0380
06C0
06C0
0EE0
0C60
0C60
1830
1830
1830
3FF8
3FF8
701C
600C
600C
C006
C006
ENDCHAR
STARTCHAR AE
ENCODING 198
SWIDTH 1000 0
DWIDTH 24 0
BBX 23 17 0 0
BITMAP
00FFFE
01FFFE
019800
031800
031800
061800
061800
0C1FFC
0C1FFC
181800
1FF800
3FF800
301800
601800
601800
C01FFE
C01FFE
ENDCHAR
STARTCHAR Ccedilla
ENCODING 199
SWIDTH 722 0
DWIDTH 17 0
BBX 15 21 1 -4
BITMAP
07E0
1FF8
381C
700C
6006
E000
C000
C000
C000
C000
C000
C006
6006
700C
381C
1FF8
07E0
0100
0180
00C0
0780
ENDCHAR
STARTCHAR Egrave
ENCODING 200
SWIDTH 666 0
DWIDTH 16 0
BBX 13 21 2 0
BITMAP
0E00
0600
0300
0000
FFF8
FFF8
C000
C000
C000
C000
C000
FFF0
FFF0
C000
C000
C000
C000
C000
C000
FFF8
FFF8
ENDCHAR
STARTCHAR Eacute
ENCODING 201
SWIDTH 666 0
DWIDTH 16 0
BBX 13 21 2 0
BITMAP
0380
0300
0600
0000
FFF8
FFF8
C000
C000
C000
C000
C000
FFF0
FFF0
C000
C000
C000
C000
C000
C000
FFF8
FFF8
ENDCHAR
STARTCHAR Ecircumflex
ENCODING 202
SWIDTH 666 0
DWIDTH 16 0
BBX 13 21 2 0
BITMAP
0300
0780
0CC0
0000
FFF8
FFF8
C000
C000
C000
C000
C000
FFF0
FFF0
C000
C000
C000
C000
C000
C000
FFF8
FFF8
ENDCHAR
STARTCHAR Edieresis
ENCODING 203
SWIDTH 666 0
DWIDTH 16 0
BBX 13 20 2 0
BITMAP
0CC0
0CC0
0000
FFF8
FFF8
C000
C000
C000
C000
C000
FFF0
FFF0
C000
C000
C000
C000
C000
C000
FFF8
FFF8
ENDCHAR
STARTCHAR Igrave
ENCODING 204
SWIDTH 277 0
DWIDTH 6 0
BBX 4 21 1 0
BITMAP
E0
60
30
00
60
60
60
60
60
60
60
60
60
60
60
60
60
60
60
60
60
ENDCHAR
STARTCHAR Iacute
ENCODING 205
SWIDTH 277 0
DWIDTH 6 0
BBX 4 21 1 0
BITMAP
70
60
C0
00
60
60
60
60
60
60
60
60
60
60
60
60
60
60
60
60
60
ENDCHAR
STARTCHAR Icircumflex
ENCODING 206
SWIDTH 277 0
DWIDTH 6 0
BBX 6 21 0 0
BITMAP
30
78
CC
00
30
30
30
30
30
30
30
30
30
30
30
30
30
30
30
30
30
ENDCHAR
STARTCHAR Idieresis
ENCODING 207
SWIDTH 277 0
DWIDTH 6 0
BBX 6 20 0 0
BITMAP
CC
CC
00
30
30
30
30
30
30
30
30
30
30
30
30
30
30
30
30
30
ENDCHAR
STARTCHAR Eth
ENCODING 208
SWIDTH 722 0
DWIDTH 17 0
BBX 16 17 0 0
BITMAP
3FF0
3FF8
301C
300E
3006
3003
3003
FF83
FF83
3003
3003
3003
3006
300E
301C
3FF8
3FE0
ENDCHAR
STARTCHAR Ntilde
ENCODING 209
SWIDTH 722 0
DWIDTH 17 0
BBX 13 21 2 0
BITMAP
0E60
1FE0
19C0
0000
C018
E018
F018
F018
D818
CC18
CC18
C618
C718
C318
C198
C198
C0D8
C078
C078
C038
C018
ENDCHAR
STARTCHAR Ograve
ENCODING 210
SWIDTH 777 0
DWIDTH 19 0
BBX 17 21 1 0
BITMAP
038000
018000
00C000
000000
07F000
1FFC00
3C1E00
700700
600300
E00380
C00180
C00180
C00180
C00180
C00180
E00380
600300
700700
3C1E00
1FFC00
07F000
ENDCHAR
STARTCHAR Oacute
ENCODING 211
SWIDTH 777 0
DWIDTH 19 0
BBX 17 21 1 0
BITMAP
00E000
00C000
018000
000000
07F000
1FFC00
3C1E00
700700
600300
E00380
C00180
C00180
C00180
C00180
C00180
E00380
600300
700700
3C1E00
1FFC00
07F000
ENDCHAR
STARTCHAR Ocircumflex
ENCODING 212
SWIDTH 777 0
DWIDTH 19 0
BBX 17 21 1 0
BITMAP
01C000
036000
066000
000000
07F000
1FFC00
3C1E00
700700
600300
E00380
C00180
C00180
C00180
C00180
C00180
E00380
600300
700700
3C1E00
1FFC00
07F000
ENDCHAR
STARTCHAR Otilde
ENCODING 213
SWIDTH 777 0
DWIDTH 19 0
BBX 17 21 1 0
BITMAP
073000
0FF000
0CE000
000000
07F000
1FFC00
3C1E00
700700
600300
E00380
C00180
C00180
C00180
C00180
C00180
E00380
600300
700700
3C1E00
1FFC00
07F000
ENDCHAR
STARTCHAR Odieresis
ENCODING 214
SWIDTH 777 0
DWIDTH 19 0
BBX 17 20 1 0
BITMAP
033000
033000
000000
07F000
1FFC00
3C1E00
700700
600300
E00380
C00180
C00180
C00180
C00180
C00180
E00380
600300
700700
3C1E00
1FFC00
07F000
ENDCHAR
STARTCHAR multiply
ENCODING 215
SWIDTH 583 0
DWIDTH 14 0
BBX 9 9 2 4
BITMAP
C180
E380
7700
3E00
1C00
3E00
7700
E380
C180
ENDCHAR
STARTCHAR Oslash
ENCODING 216
SWIDTH 777 0
DWIDTH 19 0
BBX 17 19 1 -1
BITMAP
000100
07F380
1FFF00
3C1E00
700F00
601F00
E03B80
C07180
C0E180
C1C180
C38180
C70180
EE0380
7C0300
780700
3C1E00
7FFC00
E7F000
400000
ENDCHAR
STARTCHAR Ugrave
ENCODING 217
SWIDTH 722 0
DWIDTH 17 0
BBX 13 21 2 0
BITMAP
0E00
0600
0300
0000
C018
C018
C018
C018
C018
C018
C018
C018
C018
C018
C018
C018
C018
E038
7070
3FE0
1FC0
ENDCHAR
STARTCHAR Uacute
ENCODING 218
SWIDTH 722 0
DWIDTH 17 0
BBX 13 21 2 0
BITMAP
0380
0300
0600
0000
C018
C018
C018
C018
C018
C018
C018
C018
C018
C018
C018
C018
C018
E038
7070
3FE0
1FC0
ENDCHAR
STARTCHAR Ucircumflex
ENCODING 219
SWIDTH 722 0
DWIDTH 17 0
BBX 13 21 2 0
BITMAP
0300
0780
0CC0
0000
C018
C018
C018
C018
C018
C018
C018
C018
C018
C018
C018
C018
C018
E038
7070
3FE0
1FC0
ENDCHAR
STARTCHAR Udieresis
ENCODING 220
SWIDTH 722 0
DWIDTH 17 0
BBX 13 20 2 0
BITMAP
0CC0
0CC0
0000
C018
C018
C018
C018
C018
C018
C018
C018
C018
C018
C018
C018
C018
E038
7070
3FE0
1FC0
ENDCHAR
STARTCHAR Yacute
ENCODING 221
SWIDTH 666 0
DWIDTH 16 0
BBX 16 21 0 0
BITMAP
00E0
00C0
0180
0000
E007
600E
301C
381C
1C38
0E70
0660
07E0
03C0
0180
0180
0180
0180
0180
0180
0180
0180
ENDCHAR
STARTCHAR Thorn
ENCODING 222
SWIDTH 666 0
DWIDTH 16 0
BBX 13 17 2 0
BITMAP
C000
C000
C000
FFC0
FFF0
C030
C038
C018
C018
C018
C038
C070
FFE0
FFC0
C000
C000
C000
ENDCHAR
STARTCHAR germandbls
ENCODING 223
SWIDTH 610 0
DWIDTH 15 0
BBX 12 17 2 0
BITMAP
1E00
7F00
E380
C180
C180
C180
C300
C300
C300
C180
C0E0
C070
C030
C830
DC70
CFE0
C7C0
ENDCHAR
STARTCHAR agrave
ENCODING 224
SWIDTH 556 0
DWIDTH 13 0
BBX 11 17 1 0
BITMAP
1C00
0C00
0600
0000
1F00
7F80
E1C0
C0C0
00C0
07C0
3FC0
78C0
C0C0
C1C0
E3C0
7FC0
3C60
ENDCHAR
STARTCHAR aacute
ENCODING 225
SWIDTH 556 0
DWIDTH 13 0
BBX 11 17 1 0
BITMAP
0700
0600
0C00
0000
1F00
7F80
E1C0
C0C0
00C0
07C0
3FC0
78C0
C0C0
C1C0
E3C0
7FC0
3C60
ENDCHAR
STARTCHAR acircumflex
ENCODING 226
SWIDTH 556 0
DWIDTH 13 0
BBX 11 17 1 0
BITMAP
1C00
3600
2300
0000
1F00
7F80
E1C0
C0C0
00C0
07C0
3FC0
78C0
C0C0
C1C0
E3C0
7FC0
3C60
ENDCHAR
STARTCHAR atilde
ENCODING 227
SWIDTH 556 0
DWIDTH 13 0
BBX 11 17 1 0
BITMAP
3980
7F80
6700
0000
1F00
7F80
E1C0
C0C0
00C0
07C0
3FC0
78C0
C0C0
C1C0
E3C0
7FC0
3C60
ENDCHAR
STARTCHAR adieresis
ENCODING 228
SWIDTH 556 0
DWIDTH 13 0
BBX 11 16 1 0
BITMAP
3300
3300
0000
1F00
7F80
E1C0
C0C0
00C0
07C0
3FC0
78C0
C0C0
C1C0
E3C0
7FC0
3C60
ENDCHAR
STARTCHAR aring
ENCODING 229
SWIDTH 556 0
DWIDTH 13 0
BBX 11 19 1 0
BITMAP
0E00
1100
1100
1100
0E00
0000
1F00
7F80
E1C0
C0C0
00C0
07C0
3FC0
78C0
C0C0
C1C0
E3C0
7FC0
3C60
ENDCHAR
STARTCHAR ae
ENCODING 230
SWIDTH 889 0
DWIDTH 21 0
BBX 20 13 1 0
BITMAP
1F8F80
7FFFC0
60F860
C06020
01E030
3FFFF0
7E7FF0
E06000
C06000
C0F030
E1F860
7FBFC0
3E0F80
ENDCHAR
STARTCHAR ccedilla
ENCODING 231
SWIDTH 500 0
DWIDTH 12 0
BBX 10 17 1 -4
BITMAP
1F00
3F80
71C0
E0C0
C000
C000
C000
C000
C000
E0C0
71C0
3F80
1E00
0400
0600
0300
1E00
ENDCHAR
STARTCHAR egrave
ENCODING 232
SWIDTH 556 0
DWIDTH 13 0
BBX 11 17 1 0
BITMAP
1C00
0C00
0600
0000
1F00
3F80
71C0
C0E0
C060
FFE0
FFE0
C000
C000
E060
71C0
3F80
1F00
ENDCHAR
STARTCHAR eacute
ENCODING 233
SWIDTH 556 0
DWIDTH 13 0
BBX 11 17 1 0
BITMAP
0700
0600
0C00
0000
1F00
3F80
71C0
C0E0
C060
FFE0
FFE0
C000
C000
E060
71C0
3F80
1F00
ENDCHAR
STARTCHAR ecircumflex
ENCODING 234
SWIDTH 556 0
DWIDTH 13 0
BBX 11 17 1 0
BITMAP
0E00
1B00
1180
0000
1F00
3F80
71C0
C0E0
C060
FFE0
FFE0
C000
C000
E060
71C0
3F80
1F00
ENDCHAR
STARTCHAR edieresis
ENCODING 235
SWIDTH 556 0
DWIDTH 13 0
BBX 11 16 1 0
BITMAP
1980
1980
0000
1F00
3F80
71C0
C0E0
C060
FFE0
FFE0
C000
C000
E060
71C0
3F80
1F00
ENDCHAR
STARTCHAR igrave
ENCODING 236
SWIDTH 277 0
DWIDTH 6 0
BBX 4 17 1 0
BITMAP
E0
60
30
00
60
60
60
60
60
60
60
60
60
60
60
60
60
ENDCHAR
STARTCHAR iacute
ENCODING 237
SWIDTH 277 0
DWIDTH 6 0
BBX 4 17 1 0
BITMAP
70
60
C0
00
60
60
60
60
60
60
60
60
60
60
60
60
60
ENDCHAR
STARTCHAR icircumflex
ENCODING 238
SWIDTH 277 0
DWIDTH 6 0
BBX 7 17 0 0
BITMAP
38
6C
C6
00
30
30
30
30
30
30
30
30
30
30
30
30
30
ENDCHAR
STARTCHAR idieresis
ENCODING 239
SWIDTH 277 0
DWIDTH 6 0
BBX 6 16 0 0
BITMAP
CC
CC
00
30
30
30
30
30
30
30
30
30
30
30
30
30
ENDCHAR
STARTCHAR eth
ENCODING 240
SWIDTH 556 0
DWIDTH 13 0
BBX 11 17 1 0
BITMAP
1C80
0700
1F00
3180
1F80
3FC0
71C0
E0E0
C060
C060
C060
C060
C060
E0E0
71C0
3F80
1F00
ENDCHAR
STARTCHAR ntilde
ENCODING 241
SWIDTH 556 0
DWIDTH 14 0
BBX 10 17 2 0
BITMAP
3980
7F80
6700
0000
CF00
DF80
F1C0
E0C0
C0C0
C0C0
C0C0
C0C0
C0C0
C0C0
C0C0
C0C0
C0C0
ENDCHAR
STARTCHAR ograve
ENCODING 242
SWIDTH 556 0
DWIDTH 13 0
BBX 11 17 1 0
BITMAP
1C00
0C00
0600
0000
1F00
3F80
71C0
E0E0
C060
C060
C060
C060
C060
E0E0
71C0
3F80
1F00
ENDCHAR
STARTCHAR oacute
ENCODING 243
SWIDTH 556 0
DWIDTH 13 0
BBX 11 17 1 0
BITMAP
0700
0600
0C00
0000
1F00
3F80
71C0
E0E0
C060
C060
C060
C060
C060
E0E0
71C0
3F80
1F00
ENDCHAR
STARTCHAR ocircumflex
ENCODING 244
SWIDTH 556 0
DWIDTH 13 0
BBX 11 17 1 0
BITMAP
0E00
1B00
1980
0000
1F00
3F80
71C0
E0E0
C060
C060
C060
C060
C060
E0E0
71C0
3F80
1F00
ENDCHAR
STARTCHAR otilde
ENCODING 245
SWIDTH 556 0
DWIDTH 13 0
BBX 11 17 1 0
BITMAP
1CC0
3FC0
3380
0000
1F00
3F80
71C0
E0E0
C060
C060
C060
C060
C060
E0E0
71C0
3F80
1F00
ENDCHAR
STARTCHAR odieresis
ENCODING 246
SWIDTH 556 0
DWIDTH 13 0
BBX 11 16 1 0
BITMAP
1980
1980
0000
1F00
3F80
71C0
E0E0
C060
C060
C060
C060
C060
E0E0
71C0
3F80
1F00
ENDCHAR
STARTCHAR divide
ENCODING 247
SWIDTH 548 0
DWIDTH 13 0
BBX 12 8 1 5
BITMAP
0600
0600
0000
FFF0
FFF0
0000
0600
0600
ENDCHAR
STARTCHAR oslash
ENCODING 248
SWIDTH 610 0
DWIDTH 15 0
BBX 11 15 2 -1
BITMAP
0060
1F60
3FC0
71C0
E3C0
C760
C660
CC60
DC60
D860
F0E0
71C0
7F80
DF00
C000
ENDCHAR
STARTCHAR ugrave
ENCODING 249
SWIDTH 556 0
DWIDTH 14 0
BBX 10 17 2 0
BITMAP
3800
1800
0C00
0000
C0C0
C0C0
C0C0
C0C0
C0C0
C0C0
C0C0
C0C0
C0C0
C1C0
E3C0
7EC0
3CC0
ENDCHAR
STARTCHAR uacute
ENCODING 250
SWIDTH 556 0
DWIDTH 14 0
BBX 10 17 2 0
BITMAP
0700
0600
0C00
0000
C0C0
C0C0
C0C0
C0C0
C0C0
C0C0
C0C0
C0C0
C0C0
C1C0
E3C0
7EC0
3CC0
ENDCHAR
STARTCHAR ucircumflex
ENCODING 251
SWIDTH 556 0
DWIDTH 14 0
BBX 10 17 2 0
BITMAP
0C00
1E00
3300
0000
C0C0
C0C0
C0C0
C0C0
C0C0
C0C0
C0C0
C0C0
C0C0
C1C0
E3C0
7EC0
3CC0
ENDCHAR
STARTCHAR udieresis
ENCODING 252
SWIDTH 556 0
DWIDTH 14 0
BBX 10 16 2 0
BITMAP
3300
3300
0000
C0C0
C0C0
C0C0
C0C0
C0C0
C0C0
C0C0
C0C0
C0C0
C1C0
E3C0
7EC0
3CC0
ENDCHAR
STARTCHAR yacute
ENCODING 253
SWIDTH 500 0
DWIDTH 12 0
BBX 10 22 1 -5
BITMAP
0700
0600
0C00
0000
C0C0
C0C0
C180
6180
6180
6380
3300
3300
1B00
1E00
1E00
0E00
0C00
0C00
0C00
1800
7800
7000
ENDCHAR
STARTCHAR thorn
ENCODING 254
SWIDTH 556 0
DWIDTH 13 0
BBX 10 22 2 -5
BITMAP
C000
C000
C000
C000
DE00
FF00
E380
E1C0
C0C0
C0C0
C0C0
C0C0
C0C0
C180
E380
FF00
DE00
C000
C000
C000
C000
C000
ENDCHAR
STARTCHAR ydieresis
ENCODING 255
SWIDTH 500 0
DWIDTH 12 0
BBX 10 21 1 -5
BITMAP
3300
3300
0000
C0C0
C0C0
C180
6180
6180
6380
3300
3300
1B00
1E00
1E00
0E00
0C00
0C00
0C00
1800
7800
7000
ENDCHAR
STARTCHAR Amacron
ENCODING 256
SWIDTH 666 0
DWIDTH 15 0
BBX 15 20 0 0
BITMAP
0FE0
0FE0
0000
0380
0380
06C0
06C0
0EE0
0C60
0C60
1830
1830
1830
3FF8
3FF8
701C
600C
600C
C006
C006
ENDCHAR
STARTCHAR amacron
ENCODING 257
SWIDTH 556 0
DWIDTH 13 0
BBX 11 17 1 0
BITMAP
3F80
3F80
0000
0000
1F00
7F80
E1C0
C0C0
00C0
07C0
3FC0
78C0
C0C0
C1C0
E3C0
7FC0
3C60
ENDCHAR
STARTCHAR Abreve
ENCODING 258
SWIDTH 666 0
DWIDTH 15 0
BBX 15 21 0 0
BITMAP
0820
0C60
07C0
0000
0380
0380
06C0
06C0
0EE0
0C60
0C60
1830
1830
1830
3FF8
3FF8
701C
600C
600C
C006
C006
ENDCHAR
STARTCHAR abreve
ENCODING 259
SWIDTH 556 0
DWIDTH 13 0
BBX 11 17 1 0
BITMAP
2080
3180
1F00
0000
1F00
7F80
E1C0
C0C0
00C0
07C0
3FC0
78C0
C0C0
C1C0
E3C0
7FC0
3C60
ENDCHAR
STARTCHAR Aogonek
ENCODING 260
SWIDTH 666 0
DWIDTH 15 0
BBX 15 22 0 -5
BITMAP
0380
0380
06C0
06C0
0EE0
0C60
0C60
1830
1830
1830
3FF8
3FF8
701C
600C
600C
C006
C006
0004
0008
0008
0008
0006
ENDCHAR
STARTCHAR aogonek
ENCODING 261
SWIDTH 556 0
DWIDTH 13 0
BBX 11 18 1 -5
BITMAP
1F00
7F80
E1C0
C0C0
00C0
07C0
3FC0
78C0
C0C0
C1C0
E3C0
7FC0
3C60
0040
0080
0080
0080
00E0
ENDCHAR
STARTCHAR Cacute
ENCODING 262
SWIDTH 722 0
DWIDTH 17 0
BBX 15 21 1 0
BITMAP
01C0
0180
0300
0000
07E0
1FF8
381C
700C
6006
E000
C000
C000
C000
C000
C000
C006
6006
700C
381C
1FF8
07E0
ENDCHAR
STARTCHAR cacute
ENCODING 263
SWIDTH 500 0
DWIDTH 12 0
BBX 10 17 1 0
BITMAP
0700
0600
0C00
0000
1F00
3F80
71C0
E0C0
C000
C000
C000
C000
C000
E0C0
71C0
3F80
1E00
ENDCHAR
STARTCHAR Ccircumflex
ENCODING 264
SWIDTH 722 0
DWIDTH 17 0
BBX 15 21 1 0
BITMAP
0180
03C0
0660
0000
07E0
1FF8
381C
700C
6006
E000
C000
C000
C000
C000
C000
C006
6006
700C
381C
1FF8
07E0
ENDCHAR
STARTCHAR ccircumflex
ENCODING 265
SWIDTH 500 0
DWIDTH 12 0
BBX 10 17 1 0
BITMAP
0C00
1E00
3300
0000
1F00
3F80
71C0
E0C0
C000
C000
C000
C000
C000
E0C0
71C0
3F80
1E00
ENDCHAR
STARTCHAR Cdotaccent
ENCODING 266
SWIDTH 722 0
DWIDTH 17 0
BBX 15 20 1 0
BITMAP
0180
0180
0000
07E0
1FF8
381C
700C
6006
E000
C000
C000
C000
C000
C000
C006
6006
700C
381C
1FF8
07E0
ENDCHAR
STARTCHAR cdotaccent
ENCODING 267
SWIDTH 500 0
DWIDTH 12 0
BBX 10 16 1 0
BITMAP
0C00
0C00
0000
1F00
3F80
71C0
E0C0
C000
C000
C000
C000
C000
E0C0
71C0
3F80
1E00
ENDCHAR
STARTCHAR Ccaron
ENCODING 268
SWIDTH 722 0
DWIDTH 17 0
BBX 15 21 1 0
BITMAP
0660
03C0
0180
0000
07E0
1FF8
381C
700C
6006
E000
C000
C000
C000
C000
C000
C006
6006
700C
381C
1FF8
07E0
ENDCHAR
STARTCHAR ccaron
ENCODING 269
SWIDTH 500 0
DWIDTH 12 0
BBX 10 17 1 0
BITMAP
3300
1B00
0E00
0000
1F00
3F80
71C0
E0C0
C000
C000
C000
C000
C000
E0C0
71C0
3F80
1E00
ENDCHAR
STARTCHAR Dcaron
ENCODING 270
SWIDTH 722 0
DWIDTH 17 0
BBX 14 21 2 0
BITMAP
1980
0F00
0600
0000
FFC0
FFE0
C070
C038
C018
C00C
C00C
C00C
C00C
C00C
C00C
C00C
C018
C038
C070
FFE0
FF80
ENDCHAR
STARTCHAR dcaron
ENCODING 271
SWIDTH 614 0
DWIDTH 15 0
BBX 14 17 1 0
BITMAP
006C
006C
0064
0064
1F68
3FE0
71E0
E0E0
C060
C060
C060
C060
C060
60E0
71E0
3FE0
1E60
ENDCHAR
STARTCHAR Dcroat
ENCODING 272
SWIDTH 722 0
DWIDTH 17 0
BBX 16 17 0 0
BITMAP
3FF0
3FF8
301C
300E
3006
3003
3003
FF83
FF83
3003
3003
3003
3006
300E
301C
3FF8
3FE0
ENDCHAR
STARTCHAR dcroat
ENCODING 273
SWIDTH 556 0
DWIDTH 13 0
BBX 13 17 1 0
BITMAP
0060
07F8
07F8
0060
1E60
3FE0
71E0
E0E0
C060
C060
C060
C060
C060
60E0
71E0
3FE0
1E60
ENDCHAR
STARTCHAR Emacron
ENCODING 274
SWIDTH 666 0
DWIDTH 16 0
BBX 13 20 2 0
BITMAP
0FE0
0FE0
0000
FFF8
FFF8
C000
C000
C000
C000
C000
FFF0
FFF0
C000
C000
C000
C000
C000
C000
FFF8
FFF8
ENDCHAR
STARTCHAR emacron
ENCODING 275
SWIDTH 556 0
DWIDTH 13 0
BBX 11 17 1 0
BITMAP
1FC0
1FC0
0000
0000
1F00
3F80
71C0
C0E0
C060
FFE0
FFE0
C000
C000
E060
71C0
3F80
1F00
ENDCHAR
STARTCHAR Ebreve
ENCODING 276
SWIDTH 666 0
DWIDTH 16 0
BBX 13 21 2 0
BITMAP
1040
18C0
0F80
0000
FFF8
FFF8
C000
C000
C000
C000
C000
FFF0
FFF0
C000
C000
C000
C000
C000
C000
FFF8
FFF8
ENDCHAR
STARTCHAR ebreve
ENCODING 277
SWIDTH 556 0
DWIDTH 13 0
BBX 11 17 1 0
BITMAP
2080
3180
1F00
0000
1F00
3F80
71C0
C0E0
C060
FFE0
FFE0
C000
C000
E060
71C0
3F80
1F00
ENDCHAR
STARTCHAR Edotaccent
ENCODING 278
SWIDTH 666 0
DWIDTH 16 0
BBX 13 20 2 0
BITMAP
0300
0300
0000
FFF8
FFF8
C000
C000
C000
C000
C000
FFF0
FFF0
C000
C000
C000
C000
C000
C000
FFF8
FFF8
ENDCHAR
STARTCHAR edotaccent
ENCODING 279
SWIDTH 556 0
DWIDTH 13 0
BBX 11 16 1 0
BITMAP
0600
0600
0000
1F00
3F80
71C0
C0E0
C060
FFE0
FFE0
C000
C000
E060
71C0
3F80
1F00
ENDCHAR
STARTCHAR Eogonek
ENCODING 280
SWIDTH 666 0
DWIDTH 16 0
BBX 13 22 2 -5
BITMAP
FFF8
FFF8
C000
C000
C000
C000
C000
FFF0
FFF0
C000
C000
C000
C000
C000
C000
FFF8
FFF8
0010
0020
0020
0020
0038
ENDCHAR
STARTCHAR eogonek
ENCODING 281
SWIDTH 556 0
DWIDTH 13 0
BBX 11 18 1 -5
BITMAP
1F00
3F80
71C0
C0E0
C060
FFE0
FFE0
C000
C000
E060
71C0
3F80
1F00
0200
0200
0200
0200
0380
ENDCHAR
STARTCHAR Ecaron
ENCODING 282
SWIDTH 666 0
DWIDTH 16 0
BBX 13 21 2 0
BITMAP
0CC0
0780
0300
0000
FFF8
FFF8
C000
C000
C000
C000
C000
FFF0
FFF0
C000
C000
C000
C000
C000
C000
FFF8
FFF8
ENDCHAR
STARTCHAR ecaron
ENCODING 283
SWIDTH 556 0
DWIDTH 13 0
BBX 11 17 1 0
BITMAP
1980
0F00
0600
0000
1F00
3F80
71C0
C0E0
C060
FFE0
FFE0
C000
C000
E060
71C0
3F80
1F00
ENDCHAR
STARTCHAR Gcircumflex
ENCODING 284
SWIDTH 777 0
DWIDTH 19 0
BBX 16 21 1 0
BITMAP
00C0
01E0
0330
0000
07F0
1FFC
3C1E
7006
6003
E000
C000
C000
C07F
C07F
C003
E003
6003
7003
3C1F
1FFC
03F0
ENDCHAR
STARTCHAR gcircumflex
ENCODING 285
SWIDTH 556 0
DWIDTH 14 0
BBX 11 22 1 -5
BITMAP
0E00
1B00
3300
0000
1E60
3F60
71E0
60E0
C060
C060
C060
C060
C060
60E0
71E0
3F60
1E60
0060
C0E0
E1C0
7FC0
3F00
ENDCHAR
STARTCHAR Gbreve
ENCODING 286
SWIDTH 777 0
DWIDTH 19 0
BBX 16 21 1 0
BITMAP
0410
0630
03E0
0000
07F0
1FFC
3C1E
7006
6003
E000
C000
C000
C07F
C07F
C003
E003
6003
7003
3C1F
1FFC
03F0
ENDCHAR
STARTCHAR gbreve
ENCODING 287
SWIDTH 556 0
DWIDTH 14 0
BBX 11 22 1 -5
BITMAP
2080
3180
1F00
0000
1E60
3F60
71E0
60E0
C060
C060
C060
C060
C060
60E0
71E0
3F60
1E60
0060
C0E0
E1C0
7FC0
3F00
ENDCHAR
STARTCHAR Gdotaccent
ENCODING 288
SWIDTH 777 0
DWIDTH 19 0
BBX 16 20 1 0
BITMAP
0180
0180
0000
07F0
1FFC
3C1E
7006
6003
E000
C000
C000
C07F
C07F
C003
E003
6003
7003
3C1F
1FFC
03F0
ENDCHAR
STARTCHAR gdotaccent
ENCODING 289
SWIDTH 556 0
DWIDTH 14 0
BBX 11 21 1 -5
BITMAP
0600
0600
0000
1E60
3F60
71E0
60E0
C060
C060
C060
C060
C060
60E0
71E0
3F60
1E60
0060
C0E0
E1C0
7FC0
3F00
ENDCHAR
STARTCHAR uni0122
ENCODING 290
SWIDTH 777 0
DWIDTH 19 0
BBX 16 24 1 -7
BITMAP
07F0
1FFC
3C1E
7006
6003
E000
C000
C000
C07F
C07F
C003
E003
6003
7003
3C1F
1FFC
03F0
0000
0000
00C0
00C0
0040
0040
0040
ENDCHAR
STARTCHAR uni0123
ENCODING 291
SWIDTH 556 0
DWIDTH 13 0
BBX 11 24 1 -5
BITMAP
0400
0C00
0800
0C00
0C00
0000
1E60
3FE0
71E0
E0E0
C060
C060
C060
C060
C060
60E0
71E0
3FE0
1E60
0060
C060
E1C0
7F80
3F00
ENDCHAR
STARTCHAR Hcircumflex
ENCODING 292
SWIDTH 722 0
DWIDTH 17 0
BBX 13 21 2 0
BITMAP
0300
0780
0CC0
0000
C018
C018
C018
C018
C018
C018
C018
FFF8
FFF8
C018
C018
C018
C018
C018
C018
C018
C018
ENDCHAR
STARTCHAR hcircumflex
ENCODING 293
SWIDTH 556 0
DWIDTH 14 0
BBX 10 21 2 0
BITMAP
0600
0F00
1980
0000
C000
C000
C000
C000
CF00
DF80
F1C0
E0C0
C0C0
C0C0
C0C0
C0C0
C0C0
C0C0
C0C0
C0C0
C0C0
ENDCHAR
STARTCHAR Hbar
ENCODING 294
SWIDTH 722 0
DWIDTH 17 0
BBX 17 17 0 0
BITMAP
300600
300600
FFFF80
FFFF80
300600
300600
300600
3FFE00
3FFE00
300600
300600
300600
300600
300600
300600
300600
300600
ENDCHAR
STARTCHAR hbar
ENCODING 295
SWIDTH 556 0
DWIDTH 14 0
BBX 12 17 0 0
BITMAP
3000
FF00
FF00
3000
33C0
37E0
3C70
3830
3030
3030
3030
3030
3030
3030
3030
3030
3030
ENDCHAR
STARTCHAR Itilde
ENCODING 296
SWIDTH 277 0
DWIDTH 6 0
BBX 8 21 -1 0
BITMAP
73
FF
CE
00
18
18
18
18
18
18
18
18
18
18
18
18
18
18
18
18
18
ENDCHAR
STARTCHAR itilde
ENCODING 297
SWIDTH 277 0
DWIDTH 6 0
BBX 8 17 -1 0
BITMAP
73
7F
C6
00
18
18
18
18
18
18
18
18
18
18
18
18
18
ENDCHAR
STARTCHAR Imacron
ENCODING 298
SWIDTH 277 0
DWIDTH 6 0
BBX 7 20 -1 0
BITMAP
FE
FE
00
18
18
18
18
18
18
18
18
18
18
18
18
18
18
18
18
18
ENDCHAR
STARTCHAR imacron
ENCODING 299
SWIDTH 277 0
DWIDTH 6 0
BBX 7 17 -1 0
BITMAP
FE
FE
00
00
18
18
18
18
18
18
18
18
18
18
18
18
18
ENDCHAR
STARTCHAR Ibreve
ENCODING 300
SWIDTH 277 0
DWIDTH 6 0
BBX 6 21 0 0
BITMAP
84
84
78
00
30
30
30
30
30
30
30
30
30
30
30
30
30
30
30
30
30
ENDCHAR
STARTCHAR ibreve
ENCODING 301
SWIDTH 277 0
DWIDTH 6 0
BBX 7 17 -1 0
BITMAP
C2
42
3C
00
18
18
18
18
18
18
18
18
18
18
18
18
18
ENDCHAR
STARTCHAR Iogonek
ENCODING 302
SWIDTH 277 0
DWIDTH 6 0
BBX 3 22 1 -5
BITMAP
60
60
60
60
60
60
60
60
60
60
60
60
60
60
60
60
60
40
80
80
80
60
ENDCHAR
STARTCHAR iogonek
ENCODING 303
SWIDTH 222 0
DWIDTH 5 0
BBX 3 22 1 -5
BITMAP
60
60
00
00
60
60
60
60
60
60
60
60
60
60
60
60
60
40
40
80
C0
60
ENDCHAR
STARTCHAR Idotaccent
ENCODING 304
SWIDTH 277 0
DWIDTH 6 0
BBX 2 20 2 0
BITMAP
C0
C0
00
C0
C0
C0
C0
C0
C0
C0
C0
C0
C0
C0
C0
C0
C0
C0
C0
C0
ENDCHAR
STARTCHAR dotlessi
ENCODING 305
SWIDTH 277 0
DWIDTH 6 0
BBX 2 13 2 0
BITMAP
C0
C0
C0
C0
C0
C0
C0
C0
C0
C0
C0
C0
C0
ENDCHAR
STARTCHAR IJ
ENCODING 306
SWIDTH 734 0
DWIDTH 18 0
BBX 13 17 2 0
BITMAP
C018
C018
C018
C018
C018
C018
C018
C018
C018
C018
C018
C018
CC18
CC18
CE38
C7F0
C3E0
ENDCHAR
STARTCHAR ij
ENCODING 307
SWIDTH 443 0
DWIDTH 11 0
BBX 8 22 2 -5
BITMAP
C3
C3
00
00
C3
C3
C3
C3
C3
C3
C3
C3
C3
C3
C3
C3
C3
03
03
03
1F
1E
ENDCHAR
STARTCHAR Jcircumflex
ENCODING 308
SWIDTH 500 0
DWIDTH 12 0
BBX 11 21 1 0
BITMAP
01C0
0360
0660
0000
0180
0180
0180
0180
0180
0180
0180
0180
0180
0180
0180
0180
C180
C180
E380
7F00
3E00
ENDCHAR
STARTCHAR jcircumflex
ENCODING 309
SWIDTH 222 0
DWIDTH 6 0
BBX 7 22 -1 -5
BITMAP
18
3C
66
00
18
18
18
18
18
18
18
18
18
18
18
18
18
18
18
18
F8
F0
ENDCHAR
STARTCHAR uni0136
ENCODING 310
SWIDTH 666 0
DWIDTH 16 0
BBX 14 24 2 -7
BITMAP
C038
C070
C0E0
C1C0
C380
C700
CE00
DE00
FF00
F700
E380
C1C0
C0E0
C0E0
C070
C038
C01C
0000
0000
0300
0300
0100
0100
0100
ENDCHAR
STARTCHAR uni0137
ENCODING 311
SWIDTH 500 0
DWIDTH 12 0
BBX 10 24 2 -7
BITMAP
C000
C000
C000
C000
C180
C300
C600
CC00
D800
F800
FC00
CE00
C600
C700
C300
C180
C1C0
0000
0000
0C00
0C00
0400
0400
0400
ENDCHAR
STARTCHAR kgreenlandic
ENCODING 312
SWIDTH 500 0
DWIDTH 12 0
BBX 9 13 2 0
BITMAP
C180
C300
C600
CC00
D800
F800
E800
CC00
C600
C600
C300
C380
C180
ENDCHAR
STARTCHAR Lacute
ENCODING 313
SWIDTH 556 0
DWIDTH 13 0
BBX 10 21 2 0
BITMAP
1C00
1800
3000
0000
C000
C000
C000
C000
C000
C000
C000
C000
C000
C000
C000
C000
C000
C000
C000
FFC0
FFC0
ENDCHAR
STARTCHAR lacute
ENCODING 314
SWIDTH 222 0
DWIDTH 6 0
BBX 4 21 1 0
BITMAP
70
60
C0
00
60
60
60
60
60
60
60
60
60
60
60
60
60
60
60
60
60
ENDCHAR
STARTCHAR uni013B
ENCODING 315
SWIDTH 556 0
DWIDTH 13 0
BBX 10 24 2 -7
BITMAP
C000
C000
C000
C000
C000
C000
C000
C000
C000
C000
C000
C000
C000
C000
C000
FFC0
FFC0
0000
0000
0C00
0C00
0400
0400
0400
ENDCHAR
STARTCHAR uni013C
ENCODING 316
SWIDTH 222 0
DWIDTH 6 0
BBX 3 24 2 -7
BITMAP
C0
C0
C0
C0
C0
C0
C0
C0
C0
C0
C0
C0
C0
C0
C0
C0
C0
00
00
60
60
60
40
40
ENDCHAR
STARTCHAR Lcaron
ENCODING 317
SWIDTH 556 0
DWIDTH 13 0
BBX 10 17 2 0
BITMAP
C300
C300
C100
C100
C300
C200
C000
C000
C000
C000
C000
C000
C000
C000
C000
FFC0
FFC0
ENDCHAR
STARTCHAR lcaron
ENCODING 318
SWIDTH 291 0
DWIDTH 7 0
BBX 5 17 2 0
BITMAP
D8
D8
C8
C8
D0
C0
C0
C0
C0
C0
C0
C0
C0
C0
C0
C0
C0
ENDCHAR
STARTCHAR Ldot
ENCODING 319
SWIDTH 556 0
DWIDTH 13 0
BBX 10 17 2 0
BITMAP
C000
C000
C000
C000
C000
C000
C000
C000
C300
C300
C000
C000
C000
C000
C000
FFC0
FFC0
ENDCHAR
STARTCHAR ldot
ENCODING 320
SWIDTH 333 0
DWIDTH 8 0
BBX 6 17 2 0
BITMAP
C0
C0
C0
C0
C0
C0
C0
C0
CC
CC
C0
C0
C0
C0
C0
C0
C0
ENDCHAR
STARTCHAR Lslash
ENCODING 321
SWIDTH 556 0
DWIDTH 13 0
BBX 12 17 0 0
BITMAP
3000
3000
3000
3000
3100
3700
3E00
3800
7000
F000
B000
3000
3000
3000
3000
3FF0
3FF0
ENDCHAR
STARTCHAR lslash
ENCODING 322
SWIDTH 222 0
DWIDTH 6 0
BBX 6 17 0 0
BITMAP
30
30
30
30
30
30
3C
3C
78
F0
F0
30
30
30
30
30
30
ENDCHAR
STARTCHAR Nacute
ENCODING 323
SWIDTH 722 0
DWIDTH 17 0
BBX 13 21 2 0
BITMAP
0380
0300
0600
0000
C018
E018
F018
F018
D818
CC18
CC18
C618
C718
C318
C198
C198
C0D8
C078
C078
C038
C018
ENDCHAR
STARTCHAR nacute
ENCODING 324
SWIDTH 556 0
DWIDTH 14 0
BBX 10 17 2 0
BITMAP
0700
0600
0C00
0000
CF00
DF80
F1C0
E0C0
C0C0
C0C0
C0C0
C0C0
C0C0
C0C0
C0C0
C0C0
C0C0
ENDCHAR
STARTCHAR uni0145
ENCODING 325
SWIDTH 722 0
DWIDTH 17 0
BBX 13 24 2 -7
BITMAP
C018
E018
F018
F018
D818
CC18
CC18
C618
C718
C318
C198
C198
C0D8
C078
C078
C038
C018
0000
0000
0600
0600
0200
0200
0200
ENDCHAR
STARTCHAR uni0146
ENCODING 326
SWIDTH 556 0
DWIDTH 14 0
BBX 10 20 2 -7
BITMAP
CF00
DF80
F1C0
E0C0
C0C0
C0C0
C0C0
C0C0
C0C0
C0C0
C0C0
C0C0
C0C0
0000
0000
0C00
0C00
0400
0C00
0800
ENDCHAR
STARTCHAR Ncaron
ENCODING 327
SWIDTH 722 0
DWIDTH 17 0
BBX 13 21 2 0
BITMAP
1880
0D80
0700
0000
C018
E018
F018
F018
D818
CC18
CC18
C618
C718
C318
C198
C198
C0D8
C078
C078
C038
C018
ENDCHAR
STARTCHAR ncaron
ENCODING 328
SWIDTH 556 0
DWIDTH 14 0
BBX 10 17 2 0
BITMAP
1980
1B00
0E00
0000
CF00
DF80
F1C0
E0C0
C0C0
C0C0
C0C0
C0C0
C0C0
C0C0
C0C0
C0C0
C0C0
ENDCHAR
STARTCHAR napostrophe
ENCODING 329
SWIDTH 604 0
DWIDTH 15 0
BBX 13 17 0 0
BITMAP
C000
C000
4000
4000
D9E0
9BF0
1E38
1C18
1818
1818
1818
1818
1818
1818
1818
1818
1818
ENDCHAR
STARTCHAR Eng
ENCODING 330
SWIDTH 723 0
DWIDTH 17 0
BBX 14 17 2 0
BITMAP
CFC0
DFF0
F878
E018
C01C
C00C
C00C
C00C
C00C
C00C
C00C
C00C
C01C
C018
C138
C3F0
C1E0
ENDCHAR
STARTCHAR eng
ENCODING 331
SWIDTH 556 0
DWIDTH 13 0
BBX 10 18 2 -5
BITMAP
CF00
FF80
E1C0
C0C0
C0C0
C0C0
C0C0
C0C0
C0C0
C0C0
C0C0
C0C0
C0C0
00C0
00C0
00C0
03C0
0780
ENDCHAR
STARTCHAR Omacron
ENCODING 332
SWIDTH 777 0
DWIDTH 19 0
BBX 17 20 1 0
BITMAP
07F000
07F000
000000
07F000
1FFC00
3C1E00
700700
600300
E00380
C00180
C00180
C00180
C00180
C00180
E00380
600300
700700
3C1E00
1FFC00
07F000
ENDCHAR
STARTCHAR omacron
ENCODING 333
SWIDTH 556 0
DWIDTH 13 0
BBX 11 17 1 0
BITMAP
3F80
3F80
0000
0000
1F00
3F80
71C0
E0E0
C060
C060
C060
C060
C060
E0E0
71C0
3F80
1F00
ENDCHAR
STARTCHAR Obreve
ENCODING 334
SWIDTH 777 0
DWIDTH 19 0
BBX 17 21 1 0
BITMAP
041000
063000
03E000
000000
07F000
1FFC00
3C1E00
700700
600300
E00380
C00180
C00180
C00180
C00180
C00180
E00380
600300
700700
3C1E00
1FFC00
07F000
ENDCHAR
STARTCHAR obreve
ENCODING 335
SWIDTH 556 0
DWIDTH 13 0
BBX 11 17 1 0
BITMAP
1040
1880
0F00
0000
1F00
3F80
71C0
E0E0
C060
C060
C060
C060
C060
E0E0
71C0
3F80
1F00
ENDCHAR
STARTCHAR Ohungarumlaut
ENCODING 336
SWIDTH 777 0
DWIDTH 19 0
BBX 17 21 1 0
BITMAP
019800
033000
066000
000000
07F000
1FFC00
3C1E00
700700
600300
E00380
C00180
C00180
C00180
C00180
C00180
E00380
600300
700700
3C1E00
1FFC00
07F000
ENDCHAR
STARTCHAR ohungarumlaut
ENCODING 337
SWIDTH 556 0
DWIDTH 13 0
BBX 11 17 1 0
BITMAP
0CC0
1980
3300
0000
1F00
3F80
71C0
E0E0
C060
C060
C060
C060
C060
E0E0
71C0
3F80
1F00
ENDCHAR
STARTCHAR OE
ENCODING 338
SWIDTH 1000 0
DWIDTH 24 0
BBX 22 17 1 0
BITMAP
0FCFFC
1FEFFC
387C00
603C00
601C00
C00C00
C00C00
C00FF8
C00FF8
C00C00
C00C00
C00C00
601C00
703C00
387C00
1FEFFC
0FCFFC
ENDCHAR
STARTCHAR oe
ENCODING 339
SWIDTH 943 0
DWIDTH 23 0
BBX 21 13 1 0
BITMAP
0F87C0
3FCFE0
70FC70
607010
C03018
C03FF8
C03FF8
C03000
C03000
E07818
70FC30
3FCFF0
1F07C0
ENDCHAR
STARTCHAR Racute
ENCODING 340
SWIDTH 722 0
DWIDTH 17 0
BBX 14 21 2 0
BITMAP
0380
0300
0600
0000
FFE0
FFF0
C038
C018
C018
C018
C038
FFF0
FFC0
C380
C1C0
C0E0
C0E0
C070
C030
C038
C01C
ENDCHAR
STARTCHAR racute
ENCODING 341
SWIDTH 333 0
DWIDTH 8 0
BBX 6 17 2 0
BITMAP
1C
18
30
00
DC
FC
E0
C0
C0
C0
C0
C0
C0
C0
C0
C0
C0
ENDCHAR
STARTCHAR uni0156
ENCODING 342
SWIDTH 722 0
DWIDTH 17 0
BBX 14 24 2 -7
BITMAP
FFE0
FFF0
C038
C018
C018
C018
C038
FFF0
FFC0
C380
C1C0
C0E0
C0E0
C070
C030
C038
C01C
0000
0000
0300
0300
0100
0300
0200
ENDCHAR
STARTCHAR uni0157
ENCODING 343
SWIDTH 333 0
DWIDTH 8 0
BBX 6 20 2 -7
BITMAP
DC
FC
E0
C0
C0
C0
C0
C0
C0
C0
C0
C0
C0
00
00
60
60
60
40
40
ENDCHAR
STARTCHAR Rcaron
ENCODING 344
SWIDTH 722 0
DWIDTH 17 0
BBX 14 21 2 0
BITMAP
1980
0F00
0600
0000
FFE0
FFF0
C038
C018
C018
C018
C038
FFF0
FFC0
C380
C1C0
C0E0
C0E0
C070
C030
C038
C01C
ENDCHAR
STARTCHAR rcaron
ENCODING 345
SWIDTH 333 0
DWIDTH 8 0
BBX 6 17 2 0
BITMAP
CC
78
30
00
DC
FC
E0
C0
C0
C0
C0
C0
C0
C0
C0
C0
C0
ENDCHAR
STARTCHAR Sacute
ENCODING 346
SWIDTH 666 0
DWIDTH 16 0
BBX 14 21 1 0
BITMAP
01C0
0180
0300
0000
0FC0
3FF0
3038
601C
600C
6000
3800
3FC0
0FF0
0078
001C
C00C
C00C
601C
7838
3FF0
0FC0
ENDCHAR
STARTCHAR sacute
ENCODING 347
SWIDTH 500 0
DWIDTH 12 0
BBX 10 17 1 0
BITMAP
0700
0600
0C00
0000
3F00
7F80
E1C0
C0C0
E000
7E00
3F80
07C0
00C0
C0C0
E1C0
7F80
3F00
ENDCHAR
STARTCHAR Scircumflex
ENCODING 348
SWIDTH 666 0
DWIDTH 16 0
BBX 14 21 1 0
BITMAP
0380
03C0
0660
0000
0FC0
3FF0
3038
601C
600C
6000
3800
3FC0
0FF0
0078
001C
C00C
C00C
601C
7838
3FF0
0FC0
ENDCHAR
STARTCHAR scircumflex
ENCODING 349
SWIDTH 500 0
DWIDTH 12 0
BBX 10 17 1 0
BITMAP
0E00
1A00
3300
0000
3F00
7F80
E1C0
C0C0
E000
7E00
3F80
07C0
00C0
C0C0
E1C0
7F80
3F00
ENDCHAR
STARTCHAR Scedilla
ENCODING 350
SWIDTH 666 0
DWIDTH 16 0
BBX 14 21 1 -4
BITMAP
0FC0
3FF0
3038
601C
600C
6000
3800
3FC0
0FF0
0078
001C
C00C
C00C
601C
7838
3FF0
0FC0
0200
0300
0180
0F00
ENDCHAR
STARTCHAR scedilla
ENCODING 351
SWIDTH 500 0
DWIDTH 12 0
BBX 10 17 1 -4
BITMAP
3F00
7F80
E1C0
C0C0
E000
7E00
3F80
07C0
00C0
C0C0
E1C0
7F80
3F00
0800
0C00
0600
3C00
ENDCHAR
STARTCHAR Scaron
ENCODING 352
SWIDTH 666 0
DWIDTH 16 0
BBX 14 21 1 0
BITMAP
0CC0
0780
0300
0000
0FC0
3FF0
3038
601C
600C
6000
3800
3FC0
0FF0
0078
001C
C00C
C00C
601C
7838
3FF0
0FC0
ENDCHAR
STARTCHAR scaron
ENCODING 353
SWIDTH 500 0
DWIDTH 12 0
BBX 10 17 1 0
BITMAP
3300
1E00
0C00
0000
3F00
7F80
E1C0
C0C0
E000
7E00
3F80
07C0
00C0
C0C0
E1C0
7F80
3F00
ENDCHAR
STARTCHAR uni0162
ENCODING 354
SWIDTH 610 0
DWIDTH 14 0
BBX 14 21 0 -4
BITMAP
FFFC
FFFC
0300
0300
0300
0300
0300
0300
0300
0300
0300
0300
0300
0300
0300
0300
0300
0200
0380
0180
0780
ENDCHAR
STARTCHAR uni0163
ENCODING 355
SWIDTH 277 0
DWIDTH 7 0
BBX 7 21 0 -4
BITMAP
10
30
30
30
FE
FE
30
30
30
30
30
30
30
30
30
3E
1E
08
1C
06
3C
ENDCHAR
STARTCHAR Tcaron
ENCODING 356
SWIDTH 610 0
DWIDTH 14 0
BBX 14 21 0 0
BITMAP
0CC0
0780
0300
0000
FFFC
FFFC
0300
0300
0300
0300
0300
0300
0300
0300
0300
0300
0300
0300
0300
0300
0300
ENDCHAR
STARTCHAR tcaron
ENCODING 357
SWIDTH 375 0
DWIDTH 9 0
BBX 9 17 0 0
BITMAP
1180
3180
3080
3080
FD00
FC00
3000
3000
3000
3000
3000
3000
3000
3000
3000
3C00
1C00
ENDCHAR
STARTCHAR Tbar
ENCODING 358
SWIDTH 610 0
DWIDTH 15 0
BBX 14 17 0 0
BITMAP
FFFC
FFFC
0300
0300
0300
0300
0300
0300
3FF0
3FF0
0300
0300
0300
0300
0300
0300
0300
ENDCHAR
STARTCHAR tbar
ENCODING 359
SWIDTH 277 0
DWIDTH 7 0
BBX 7 16 0 0
BITMAP
30
30
30
FE
FE
30
30
30
FE
FE
30
30
30
30
3E
1E
ENDCHAR
STARTCHAR Utilde
ENCODING 360
SWIDTH 722 0
DWIDTH 17 0
BBX 13 21 2 0
BITMAP
0E60
1FE0
19C0
0000
C018
C018
C018
C018
C018
C018
C018
C018
C018
C018
C018
C018
C018
E038
7070
3FE0
1FC0
ENDCHAR
STARTCHAR utilde
ENCODING 361
SWIDTH 556 0
DWIDTH 14 0
BBX 10 17 2 0
BITMAP
3980
7F80
6700
0000
C0C0
C0C0
C0C0
C0C0
C0C0
C0C0
C0C0
C0C0
C0C0
C1C0
E3C0
7EC0
3CC0
ENDCHAR
STARTCHAR Umacron
ENCODING 362
SWIDTH 722 0
DWIDTH 17 0
BBX 13 20 2 0
BITMAP
1FC0
1FC0
0000
C018
C018
C018
C018
C018
C018
C018
C018
C018
C018
C018
C018
C018
E038
7070
3FE0
1FC0
ENDCHAR
STARTCHAR umacron
ENCODING 363
SWIDTH 556 0
DWIDTH 14 0
BBX 10 17 2 0
BITMAP
3F80
3F80
0000
0000
C0C0
C0C0
C0C0
C0C0
C0C0
C0C0
C0C0
C0C0
C0C0
C1C0
E3C0
7EC0
3CC0
ENDCHAR
STARTCHAR Ubreve
ENCODING 364
SWIDTH 722 0
DWIDTH 17 0
BBX 13 21 2 0
BITMAP
0820
0840
0780
0000
C018
C018
C018
C018
C018
C018
C018
C018
C018
C018
C018
C018
C018
E038
7070
3FE0
1FC0
ENDCHAR
STARTCHAR ubreve
ENCODING 365
SWIDTH 556 0
DWIDTH 14 0
BBX 10 17 2 0
BITMAP
2080
3180
1F00
0000
C0C0
C0C0
C0C0
C0C0
C0C0
C0C0
C0C0
C0C0
C0C0
C1C0
E3C0
7EC0
3CC0
ENDCHAR
STARTCHAR Uring
ENCODING 366
SWIDTH 722 0
DWIDTH 17 0
BBX 13 21 2 0
BITMAP
0700
0880
0880
0880
C718
C018
C018
C018
C018
C018
C018
C018
C018
C018
C018
C018
C018
E038
7070
3FE0
1FC0
ENDCHAR
STARTCHAR uring
ENCODING 367
SWIDTH 556 0
DWIDTH 14 0
BBX 10 19 2 0
BITMAP
0E00
1200
1100
1200
0E00
0000
C0C0
C0C0
C0C0
C0C0
C0C0
C0C0
C0C0
C0C0
C0C0
C1C0
E3C0
7EC0
3CC0
ENDCHAR
STARTCHAR Uhungarumlaut
ENCODING 368
SWIDTH 722 0
DWIDTH 17 0
BBX 13 21 2 0
BITMAP
0660
0CC0
1980
0000
C018
C018
C018
C018
C018
C018
C018
C018
C018
C018
C018
C018
C018
E038
7070
3FE0
1FC0
ENDCHAR
STARTCHAR uhungarumlaut
ENCODING 369
SWIDTH 556 0
DWIDTH 14 0
BBX 10 17 2 0
BITMAP
0CC0
1980
3300
0000
C0C0
C0C0
C0C0
C0C0
C0C0
C0C0
C0C0
C0C0
C0C0
C1C0
E3C0
7EC0
3CC0
ENDCHAR
STARTCHAR Uogonek
ENCODING 370
SWIDTH 722 0
DWIDTH 17 0
BBX 13 22 2 -5
BITMAP
C018
C018
C018
C018
C018
C018
C018
C018
C018
C018
C018
C018
C018
E038
7070
3FE0
1FC0
0080
0100
0100
0100
01C0
ENDCHAR
STARTCHAR uogonek
ENCODING 371
SWIDTH 556 0
DWIDTH 14 0
BBX 10 18 2 -5
BITMAP
C0C0
C0C0
C0C0
C0C0
C0C0
C0C0
C0C0
C0C0
C0C0
C1C0
E3C0
7EC0
3CC0
0080
0080
0100
0180
00C0
ENDCHAR
STARTCHAR Wcircumflex
ENCODING 372
SWIDTH 943 0
DWIDTH 23 0
BBX 23 21 0 0
BITMAP
001800
003C00
006600
000000
C03806
C03806
606C0C
606C0C
606C0C
60C60C
30C618
30C618
31C318
318318
398338
1B83B0
1B01B0
1B01B0
1B01B0
0E00E0
0E00E0
ENDCHAR
STARTCHAR wcircumflex
ENCODING 373
SWIDTH 722 0
DWIDTH 17 0
BBX 17 17 0 0
BITMAP
00C000
01E000
033000
000000
C08180
C1C180
C1C180
614300
636300
636300
363600
363600
363600
141400
1C1C00
1C1C00
080800
ENDCHAR
STARTCHAR Ycircumflex
ENCODING 374
SWIDTH 666 0
DWIDTH 16 0
BBX 16 21 0 0
BITMAP
01C0
0360
0660
0000
E007
600E
301C
381C
1C38
0E70
0660
07E0
03C0
0180
0180
0180
0180
0180
0180
0180
0180
ENDCHAR
STARTCHAR ycircumflex
ENCODING 375
SWIDTH 500 0
DWIDTH 12 0
BBX 10 22 1 -5
BITMAP
0C00
1E00
3300
0000
C0C0
C0C0
C180
6180
6180
6380
3300
3300
1B00
1E00
1E00
0E00
0C00
0C00
0C00
1800
7800
7000
ENDCHAR
STARTCHAR Ydieresis
ENCODING 376
SWIDTH 666 0
DWIDTH 16 0
BBX 16 20 0 0
BITMAP
0660
0660
0000
E007
600E
301C
381C
1C38
0E70
0660
07E0
03C0
0180
0180
0180
0180
0180
0180
0180
0180
ENDCHAR
STARTCHAR Zacute
ENCODING 377
SWIDTH 610 0
DWIDTH 15 0
BBX 14 21 0 0
BITMAP
01C0
0180
0300
0000
7FFC
7FFC
0018
0030
0060
00E0
01C0
0180
0300
0600
0E00
1C00
1800
3000
6000
FFFC
FFFC
ENDCHAR
STARTCHAR zacute
ENCODING 378
SWIDTH 500 0
DWIDTH 12 0
BBX 10 17 1 0
BITMAP
0700
0600
0C00
0000
7FC0
7FC0
0180
0380
0700
0E00
0C00
1800
3800
7000
6000
FFC0
FFC0
ENDCHAR
STARTCHAR Zdotaccent
ENCODING 379
SWIDTH 610 0
DWIDTH 15 0
BBX 14 20 0 0
BITMAP
0180
0180
0000
7FFC
7FFC
0018
0030
0060
00E0
01C0
0180
0300
0600
0E00
1C00
1800
3000
6000
FFFC
FFFC
ENDCHAR
STARTCHAR zdotaccent
ENCODING 380
SWIDTH 500 0
DWIDTH 12 0
BBX 10 16 1 0
BITMAP
0600
0600
0000
7FC0
7FC0
0180
0380
0700
0E00
0C00
1800
3800
7000
6000
FFC0
FFC0
ENDCHAR
STARTCHAR Zcaron
ENCODING 381
SWIDTH 610 0
DWIDTH 15 0
BBX 14 21 0 0
BITMAP
0660
0340
01C0
0000
7FFC
7FFC
0018
0030
0060
00E0
01C0
0180
0300
0600
0E00
1C00
1800
3000
6000
FFFC
FFFC
ENDCHAR
STARTCHAR zcaron
ENCODING 382
SWIDTH 500 0
DWIDTH 12 0
BBX 10 17 1 0
BITMAP
1980
0D00
0700
0000
7FC0
7FC0
0180
0380
0700
0E00
0C00
1800
3800
7000
6000
FFC0
FFC0
ENDCHAR
STARTCHAR longs
ENCODING 383
SWIDTH 222 0
DWIDTH 5 0
BBX 5 17 2 0
BITMAP
78
F8
C0
C0
C0
C0
C0
C0
C0
C0
C0
C0
C0
C0
C0
C0
C0
ENDCHAR
STARTCHAR uni0180
ENCODING 384
SWIDTH 556 0
DWIDTH 13 0
BBX 12 17 0 0
BITMAP
6000
FF00
FF00
6000
6780
7FC0
78E0
7070
6030
6030
6030
6030
6030
7060
78E0
7FC0
6780
ENDCHAR
STARTCHAR uni0181
ENCODING 385
SWIDTH 758 0
DWIDTH 18 0
BBX 17 17 0 0
BITMAP
7FF800
FFFE00
CC0700
CC0300
CC0300
0C0300
0C0600
0FFC00
0FFE00
0C0700
0C0180
0C0180
0C0180
0C0180
0C0300
0FFF00
0FFC00
ENDCHAR
STARTCHAR uni0182
ENCODING 386
SWIDTH 656 0
DWIDTH 16 0
BBX 13 17 2 0
BITMAP
FFE0
FFE0
C000
C000
C000
C000
C000
FFC0
FFF0
C070
C018
C018
C018
C018
C030
FFF0
FFC0
ENDCHAR
STARTCHAR uni0183
ENCODING 387
SWIDTH 556 0
DWIDTH 13 0
BBX 11 17 1 0
BITMAP
FF80
FF80
C000
C000
CF00
FF80
F1C0
E0E0
C060
C060
C060
C060
C060
E0C0
F1C0
FF80
CF00
ENDCHAR
STARTCHAR uni0184
ENCODING 388
SWIDTH 656 0
DWIDTH 16 0
BBX 15 17 0 0
BITMAP
1000
3000
7000
F000
7000
3000
3000
3FF0
3FFC
300C
3006
3006
3006
3006
301C
3FFC
3FF0
ENDCHAR
STARTCHAR uni0185
ENCODING 389
SWIDTH 556 0
DWIDTH 13 0
BBX 12 17 0 0
BITMAP
2000
6000
E000
6000
6780
7FC0
78E0
7070
6030
6030
6030
6030
6030
7060
78E0
7FC0
6780
ENDCHAR
STARTCHAR uni0186
ENCODING 390
SWIDTH 722 0
DWIDTH 17 0
BBX 15 17 1 0
BITMAP
0FC0
3FF0
7038
601C
C00C
C006
0006
0006
0006
0006
0006
000E
C00C
E01C
7038
3FF0
0FC0
ENDCHAR
STARTCHAR uni0187
ENCODING 391
SWIDTH 722 0
DWIDTH 17 0
BBX 18 19 1 0
BITMAP
0003C0
0007C0
07E600
1FFE00
381E00
700E00
600600
C00000
C00000
C00000
C00000
C00000
C00000
C00600
600600
700C00
381C00
1FF800
07E000
ENDCHAR
STARTCHAR uni0188
ENCODING 392
SWIDTH 500 0
DWIDTH 12 0
BBX 12 15 1 0
BITMAP
0070
00F0
1EC0
3FC0
71C0
E0C0
C000
C000
C000
C000
C000
E0C0
71C0
3F80
1F00
ENDCHAR
STARTCHAR uni0189
ENCODING 393
SWIDTH 722 0
DWIDTH 17 0
BBX 16 17 0 0
BITMAP
3FF0
3FF8
301C
300E
3006
3003
3003
FF83
FF83
3003
3003
3003
3006
300E
301C
3FF8
3FE0
ENDCHAR
STARTCHAR uni018A
ENCODING 394
SWIDTH 809 0
DWIDTH 19 0
BBX 18 17 0 0
BITMAP
7FF800
FFFE00
CC0700
CC0380
CC0180
0C00C0
0C00C0
0C00C0
0C00C0
0C00C0
0C00C0
0C00C0
0C0180
0C0380
0C0700
0FFE00
0FF800
ENDCHAR
STARTCHAR uni018B
ENCODING 395
SWIDTH 656 0
DWIDTH 16 0
BBX 13 17 1 0
BITMAP
3FF8
3FF8
0018
0018
0018
0018
0018
1FF8
7FF8
6018
C018
C018
C018
C018
7018
7FF8
1FF8
ENDCHAR
STARTCHAR uni018C
ENCODING 396
SWIDTH 556 0
DWIDTH 13 0
BBX 11 17 1 0
BITMAP
3FE0
3FE0
0060
0060
1E60
3FE0
71E0
E0E0
C060
C060
C060
C060
C060
60E0
71E0
3FE0
1E60
ENDCHAR
STARTCHAR uni018D
ENCODING 397
SWIDTH 556 0
DWIDTH 13 0
BBX 11 18 1 -5
BITMAP
1F00
3F80
71C0
E0C0
C060
C060
C060
C060
C060
E0E0
71C0
3F80
1F00
0E00
0700
0180
7FC0
7FC0
ENDCHAR
STARTCHAR uni018E
ENCODING 398
SWIDTH 666 0
DWIDTH 16 0
BBX 13 17 1 0
BITMAP
FFF8
FFF8
0018
0018
0018
0018
0018
7FF8
7FF8
0018
0018
0018
0018
0018
0018
FFF8
FFF8
ENDCHAR
STARTCHAR uni018F
ENCODING 399
SWIDTH 752 0
DWIDTH 18 0
BBX 16 17 1 0
BITMAP
07E0
1FF8
381C
700E
6006
0003
0003
FFFF
FFFF
C003
C003
E007
6006
700E
381C
1FF8
07E0
ENDCHAR
STARTCHAR uni0190
ENCODING 400
SWIDTH 604 0
DWIDTH 15 0
BBX 13 17 1 0
BITMAP
0FC0
3FE0
7070
6038
6018
6000
3000
1F00
3F00
7000
C000
C000
C018
E030
70F0
3FE0
0F80
ENDCHAR
STARTCHAR uni0191
ENCODING 401
SWIDTH 610 0
DWIDTH 15 0
BBX 15 22 -1 -5
BITMAP
1FFE
1FFE
1800
1800
1800
1800
1800
1FFC
1FFC
1800
1800
1800
1800
1800
1800
1800
1800
1800
1800
1800
F000
E000
ENDCHAR
STARTCHAR florin
ENCODING 402
SWIDTH 556 0
DWIDTH 13 0
BBX 11 22 1 -5
BITMAP
01E0
03E0
0300
0300
1FC0
1FC0
0600
0600
0600
0600
0600
0C00
0C00
0C00
0C00
0C00
0C00
1800
1800
1800
F800
F000
ENDCHAR
STARTCHAR uni0193
ENCODING 403
SWIDTH 777 0
DWIDTH 19 0
BBX 19 19 1 0
BITMAP
0001E0
0003E0
03F300
1FFF00
3C1F00
700700
600300
E00000
C00000
C00000
C0FF00
C0FF00
C00300
E00300
600300
700300
3C0F00
1FFC00
03F000
ENDCHAR
STARTCHAR uni0194
ENCODING 404
SWIDTH 624 0
DWIDTH 15 0
BBX 15 22 0 -5
BITMAP
E00E
600C
600C
3018
3018
1830
1830
0C60
0C60
06C0
06C0
07C0
0380
0380
0380
0380
06C0
06C0
0C60
0C60
07C0
0780
ENDCHAR
STARTCHAR uni0195
ENCODING 405
SWIDTH 880 0
DWIDTH 21 0
BBX 17 17 2 0
BITMAP
C00000
C00000
C00000
C00000
CF0180
FF8180
F1C180
E0C180
C0C180
C0C180
C0C180
C0C180
C0C180
C0C180
C0E300
C07F00
C03E00
ENDCHAR
STARTCHAR uni0196
ENCODING 406
SWIDTH 222 0
DWIDTH 5 0
BBX 2 17 2 0
BITMAP
C0
C0
C0
C0
C0
C0
C0
C0
C0
C0
C0
C0
C0
C0
C0
C0
C0
ENDCHAR
STARTCHAR uni0197
ENCODING 407
SWIDTH 277 0
DWIDTH 7 0
BBX 6 17 0 0
BITMAP
30
30
30
30
30
30
30
30
FC
FC
30
30
30
30
30
30
30
ENDCHAR
STARTCHAR uni0198
ENCODING 408
SWIDTH 666 0
DWIDTH 16 0
BBX 14 17 2 0
BITMAP
7838
F870
C0E0
C1C0
C380
C700
CE00
DE00
FF00
F380
E180
C1C0
C0E0
C070
C070
C038
C01C
ENDCHAR
STARTCHAR uni0199
ENCODING 409
SWIDTH 500 0
DWIDTH 12 0
BBX 10 17 2 0
BITMAP
7800
F800
C000
C000
C180
C300
C600
CC00
D800
FC00
EC00
CE00
C700
C700
C380
C180
C1C0
ENDCHAR
STARTCHAR uni019A
ENCODING 410
SWIDTH 222 0
DWIDTH 5 0
BBX 4 17 1 0
BITMAP
60
60
60
60
60
60
60
F0
F0
60
60
60
60
60
60
60
60
ENDCHAR
STARTCHAR uni019B
ENCODING 411
SWIDTH 500 0
DWIDTH 12 0
BBX 12 17 0 0
BITMAP
1900
0F80
1E00
7E00
6600
0600
0700
0F00
0D80
1980
1980
38C0
30C0
30E0
6060
6060
C030
ENDCHAR
STARTCHAR uni019C
ENCODING 412
SWIDTH 890 0
DWIDTH 21 0
BBX 17 17 2 0
BITMAP
C18180
C18180
C18180
C18180
C18180
C18180
C18180
C18180
C18180
C18180
C18180
C18180
C18180
C18380
E3C780
7EFF80
3C7980
ENDCHAR
STARTCHAR uni019D
ENCODING 413
SWIDTH 722 0
DWIDTH 17 0
BBX 16 22 -1 -5
BITMAP
1803
1C03
1E03
1E03
1B03
1983
1983
18C3
18E3
1863
1833
1833
181B
180F
180F
1807
1803
1800
1800
1800
F800
F000
ENDCHAR
STARTCHAR uni019E
ENCODING 414
SWIDTH 556 0
DWIDTH 13 0
BBX 10 18 2 -5
BITMAP
CF00
DF80
E1C0
E0C0
C0C0
C0C0
C0C0
C0C0
C0C0
C0C0
C0C0
C0C0
C0C0
00C0
00C0
00C0
00C0
00C0
ENDCHAR
STARTCHAR uni019F
ENCODING 415
SWIDTH 777 0
DWIDTH 19 0
BBX 17 17 1 0
BITMAP
07F000
1FFC00
3C1E00
700700
600300
C00180
C00180
FFFF80
FFFF80
C00180
C00180
E00380
600300
700700
3C1E00
1FFC00
07F000
ENDCHAR
STARTCHAR Ohorn
ENCODING 416
SWIDTH 857 0
DWIDTH 21 0
BBX 19 17 1 0
BITMAP
07F060
1FFC60
3C1E20
700720
600340
E00380
C00180
C00180
C00180
C00180
C00180
E00380
600300
700700
3C1E00
1FFC00
07F000
ENDCHAR
STARTCHAR ohorn
ENCODING 417
SWIDTH 655 0
DWIDTH 16 0
BBX 13 13 1 0
BITMAP
1F18
3F98
71C8
E0E8
C070
C070
C060
C060
C060
E0E0
71C0
3F80
1F00
ENDCHAR
STARTCHAR uni01A2
ENCODING 418
SWIDTH 868 0
DWIDTH 21 0
BBX 18 22 1 -5
BITMAP
03F0C0
1FFFC0
3C0FC0
700CC0
600CC0
E00CC0
C00CC0
C00CC0
C00CC0
C00CC0
C00CC0
E00CC0
600CC0
700CC0
3C0CC0
1FFCC0
03F0C0
0000C0
0000C0
0000C0
0000C0
0000C0
ENDCHAR
STARTCHAR uni01A3
ENCODING 419
SWIDTH 667 0
DWIDTH 16 0
BBX 13 18 1 -5
BITMAP
1F18
3FF8
7198
E198
C198
C198
C198
C198
C198
E198
7198
3F98
1F18
0018
0018
0018
0018
0018
ENDCHAR
STARTCHAR uni01A4
ENCODING 420
SWIDTH 754 0
DWIDTH 18 0
BBX 17 17 0 0
BITMAP
7FFC00
FFFF00
CC0300
CC0180
CC0180
0C0180
0C0180
0C0700
0FFF00
0FFC00
0C0000
0C0000
0C0000
0C0000
0C0000
0C0000
0C0000
ENDCHAR
STARTCHAR uni01A5
ENCODING 421
SWIDTH 556 0
DWIDTH 13 0
BBX 11 22 1 -5
BITMAP
7800
F800
C000
C000
CF00
DF80
F1C0
E0E0
C060
C060
C060
C060
C060
E0C0
F1C0
FF80
DF00
C000
C000
C000
C000
C000
ENDCHAR
STARTCHAR uni01A6
ENCODING 422
SWIDTH 666 0
DWIDTH 16 0
BBX 14 22 2 -5
BITMAP
C000
C000
FFC0
FFF0
C030
C018
C018
C018
C018
C070
FFF0
FFC0
C300
C180
C180
C0C0
C0E0
0060
0030
0030
0018
001C
ENDCHAR
STARTCHAR uni01A7
ENCODING 423
SWIDTH 666 0
DWIDTH 16 0
BBX 14 17 1 0
BITMAP
0FC0
3FF0
3830
6018
6018
0018
0078
07F0
3FC0
7E00
E000
C00C
C00C
C018
7078
3FF0
0FC0
ENDCHAR
STARTCHAR uni01A8
ENCODING 424
SWIDTH 500 0
DWIDTH 12 0
BBX 10 13 1 0
BITMAP
3F00
7F80
E1C0
C0C0
01C0
0F80
7F00
F800
C000
C0C0
E1C0
7F80
3F00
ENDCHAR
STARTCHAR uni01A9
ENCODING 425
SWIDTH 618 0
DWIDTH 15 0
BBX 12 17 2 0
BITMAP
FFE0
FFE0
C000
6000
3000
1800
0C00
0600
0300
0600
0C00
1800
3000
6000
C000
FFF0
FFF0
ENDCHAR
STARTCHAR uni01AA
ENCODING 426
SWIDTH 380 0
DWIDTH 9 0
BBX 8 22 1 -5
BITMAP
70
98
98
98
78
18
18
18
18
18
18
18
18
18
18
18
18
18
18
18
1F
0F
ENDCHAR
STARTCHAR uni01AB
ENCODING 427
SWIDTH 277 0
DWIDTH 7 0
BBX 7 22 0 -5
BITMAP
10
30
30
30
FE
FE
30
30
30
30
30
30
30
30
30
3E
1E
06
06
06
3E
3C
ENDCHAR
STARTCHAR uni01AC
ENCODING 428
SWIDTH 610 0
DWIDTH 15 0
BBX 15 17 0 0
BITMAP
3FFE
FFFE
C180
C180
C180
0180
0180
0180
0180
0180
0180
0180
0180
0180
0180
0180
0180
ENDCHAR
STARTCHAR uni01AD
ENCODING 429
SWIDTH 277 0
DWIDTH 7 0
BBX 8 17 0 0
BITMAP
1F
3F
30
30
FE
FE
30
30
30
30
30
30
30
30
30
3E
1E
ENDCHAR
STARTCHAR uni01AE
ENCODING 430
SWIDTH 610 0
DWIDTH 15 0
BBX 13 22 1 -5
BITMAP
FFF8
FFF8
0600
0600
0600
0600
0600
0600
0600
0600
0600
0600
0600
0600
0600
0600
0600
0600
0600
0600
03C0
01C0
ENDCHAR
STARTCHAR Uhorn
ENCODING 431
SWIDTH 854 0
DWIDTH 21 0
BBX 17 17 2 0
BITMAP
C01980
C01980
C01880
C01880
C01900
C01E00
C01800
C01800
C01800
C01800
C01800
C01800
C01800
E03000
707000
3FE000
1F8000
ENDCHAR
STARTCHAR uhorn
ENCODING 432
SWIDTH 669 0
DWIDTH 16 0
BBX 13 13 2 0
BITMAP
C0D8
C0D8
C0C8
C0C8
C0D0
C0E0
C0C0
C0C0
C0C0
C1C0
E3C0
7EC0
3CC0
ENDCHAR
STARTCHAR uni01B1
ENCODING 433
SWIDTH 747 0
DWIDTH 18 0
BBX 16 17 1 0
BITMAP
FE7F
FE7F
1C38
300C
6006
6006
C003
C003
C003
C003
C003
E007
6006
700E
381C
1FF8
07E0
ENDCHAR
STARTCHAR uni01B2
ENCODING 434
SWIDTH 722 0
DWIDTH 17 0
BBX 13 17 2 0
BITMAP
C0E0
C0F0
C038
C018
C018
C018
C018
C018
C018
C018
C018
C030
C030
6070
70E0
3FC0
1F80
ENDCHAR
STARTCHAR uni01B3
ENCODING 435
SWIDTH 772 0
DWIDTH 19 0
BBX 19 17 0 0
BITMAP
E003C0
6007E0
300E40
380C00
181800
0C3000
067000
076000
03C000
018000
018000
018000
018000
018000
018000
018000
018000
ENDCHAR
STARTCHAR uni01B4
ENCODING 436
SWIDTH 500 0
DWIDTH 12 0
BBX 17 22 0 -5
BITMAP
000F00
001F80
001900
003000
C03000
607000
606000
606000
30C000
30C000
39C000
198000
1B8000
0F0000
0F0000
0F0000
060000
060000
0C0000
0C0000
780000
700000
ENDCHAR
STARTCHAR uni01B5
ENCODING 437
SWIDTH 610 0
DWIDTH 15 0
BBX 13 17 1 0
BITMAP
7FF8
7FF8
0030
0060
00E0
00C0
0180
FFF8
FFF8
0600
0C00
1800
3800
3000
6000
FFF8
FFF8
ENDCHAR
STARTCHAR uni01B6
ENCODING 438
SWIDTH 500 0
DWIDTH 12 0
BBX 10 13 1 0
BITMAP
FFC0
FFC0
0180
0300
0600
FFC0
FFC0
1800
3000
6000
C000
FFC0
FFC0
ENDCHAR
STARTCHAR uni01B7
ENCODING 439
SWIDTH 610 0
DWIDTH 15 0
BBX 14 22 0 -5
BITMAP
7FFC
7FFC
001C
0038
0070
00E0
01C0
0380
03C0
03F0
0078
0018
001C
000C
000C
000C
000C
C01C
E018
7070
3FE0
0FC0
ENDCHAR
STARTCHAR uni01B8
ENCODING 440
SWIDTH 610 0
DWIDTH 15 0
BBX 14 22 1 -5
BITMAP
FFF8
FFF8
E000
7000
3800
1C00
0E00
0700
0F00
3F00
7800
6000
E000
C000
C000
C000
C000
E00C
6018
3838
1FF0
0FC0
ENDCHAR
STARTCHAR uni01B9
ENCODING 441
SWIDTH 544 0
DWIDTH 13 0
BBX 11 18 1 -5
BITMAP
7FC0
7FC0
3800
1800
0C00
0E00
1E00
3E00
7000
E000
C000
C000
C000
C060
60E0
71C0
3FC0
1F00
ENDCHAR
STARTCHAR uni01BA
ENCODING 442
SWIDTH 544 0
DWIDTH 13 0
BBX 11 18 1 -5
BITMAP
7FC0
7FC0
0180
0300
0600
0F00
0F80
01C0
00C0
01C0
0F80
7E00
F000
C000
C060
E0E0
7FC0
3F00
ENDCHAR
STARTCHAR uni01BB
ENCODING 443
SWIDTH 556 0
DWIDTH 13 0
BBX 11 17 1 0
BITMAP
1F00
7FC0
60E0
C060
C060
0060
00C0
FFE0
FFE0
0700
0E00
1C00
3800
7000
6000
FFE0
FFE0
ENDCHAR
STARTCHAR uni01BC
ENCODING 444
SWIDTH 556 0
DWIDTH 13 0
BBX 11 17 1 0
BITMAP
FFC0
FFC0
3000
3000
3000
3000
3F00
3F80
01C0
00E0
0060
0060
C060
E0E0
71C0
7F80
1F00
ENDCHAR
STARTCHAR uni01BD
ENCODING 445
SWIDTH 458 0
DWIDTH 11 0
BBX 9 13 1 0
BITMAP
FF80
FF80
3000
3000
3000
3E00
3F00
0380
0180
C180
E380
7F00
3E00
ENDCHAR
STARTCHAR uni01BE
ENCODING 446
SWIDTH 486 0
DWIDTH 12 0
BBX 11 17 0 0
BITMAP
1000
3000
3000
3000
FC00
FC00
3000
3000
3000
1E00
0FC0
01E0
0060
C060
E0E0
7FC0
1F00
ENDCHAR
STARTCHAR uni01BF
ENCODING 447
SWIDTH 556 0
DWIDTH 13 0
BBX 10 18 2 -5
BITMAP
CF00
DF80
F180
E0C0
C0C0
C0C0
C0C0
C0C0
C1C0
C180
C380
C700
DC00
F800
E000
C000
C000
C000
ENDCHAR
STARTCHAR uni01C0
ENCODING 448
SWIDTH 259 0
DWIDTH 6 0
BBX 2 17 2 0
BITMAP
C0
C0
C0
C0
C0
C0
C0
C0
C0
C0
C0
C0
C0
C0
C0
C0
C0
ENDCHAR
STARTCHAR uni01C1
ENCODING 449
SWIDTH 413 0
DWIDTH 10 0
BBX 6 17 2 0
BITMAP
CC
CC
CC
CC
CC
CC
CC
CC
CC
CC
CC
CC
CC
CC
CC
CC
CC
ENDCHAR
STARTCHAR uni01C2
ENCODING 450
SWIDTH 583 0
DWIDTH 14 0
BBX 12 17 1 0
BITMAP
0600
0600
0600
0600
0600
FFF0
FFF0
0600
0600
0600
FFF0
FFF0
0600
0600
0600
0600
0600
ENDCHAR
STARTCHAR uni01C3
ENCODING 451
SWIDTH 277 0
DWIDTH 8 0
BBX 2 17 3 0
BITMAP
C0
C0
C0
C0
C0
C0
C0
C0
C0
C0
C0
C0
C0
00
00
C0
C0
ENDCHAR
STARTCHAR uni01C4
ENCODING 452
SWIDTH 1333 0
DWIDTH 32 0
BBX 29 21 2 0
BITMAP
00000CC0
00000580
00000700
00000000
FFC0FFF8
FFE0FFF8
C0700030
C0380060
C01800C0
C00C01C0
C00C0380
C00C0300
C00C0600
C00C0C00
C00C1C00
C00C3800
C0183000
C0386000
C070C000
FFE1FFF8
FF81FFF8
ENDCHAR
STARTCHAR uni01C5
ENCODING 453
SWIDTH 1222 0
DWIDTH 29 0
BBX 26 17 2 0
BITMAP
FFC01980
FFE00B00
C0700E00
C0380000
C0187FC0
C00C7FC0
C00C0180
C00C0380
C00C0700
C00C0E00
C00C0C00
C00C1800
C0183800
C0387000
C0706000
FFE0FFC0
FF80FFC0
ENDCHAR
STARTCHAR uni01C6
ENCODING 454
SWIDTH 1048 0
DWIDTH 25 0
BBX 23 17 1 0
BITMAP
0060CC
0060D8
006070
006000
1E63FE
3F63FE
71E00C
E0E01C
C06038
C06070
C06060
C060C0
C061C0
60E380
71E300
3F67FE
1E67FE
ENDCHAR
STARTCHAR uni01C7
ENCODING 455
SWIDTH 1062 0
DWIDTH 25 0
BBX 21 17 2 0
BITMAP
C00018
C00018
C00018
C00018
C00018
C00018
C00018
C00018
C00018
C00018
C00018
C00018
C00C18
C00C18
C00E38
FFC7F0
FFC3E0
ENDCHAR
STARTCHAR uni01C8
ENCODING 456
SWIDTH 833 0
DWIDTH 20 0
BBX 16 22 2 -5
BITMAP
C003
C003
C000
C000
C003
C003
C003
C003
C003
C003
C003
C003
C003
C003
C003
FFC3
FFC3
0003
0003
0003
001F
001E
ENDCHAR
STARTCHAR uni01C9
ENCODING 457
SWIDTH 451 0
DWIDTH 11 0
BBX 8 22 2 -5
BITMAP
C3
C3
C0
C0
C3
C3
C3
C3
C3
C3
C3
C3
C3
C3
C3
C3
C3
03
03
03
1F
1E
ENDCHAR
STARTCHAR uni01CA
ENCODING 458
SWIDTH 1222 0
DWIDTH 29 0
BBX 25 17 2 0
BITMAP
C0180180
E0180180
F0180180
F0180180
D8180180
CC180180
CC180180
C6180180
C7180180
C3180180
C1980180
C1980180
C0D8C180
C078C180
C078E380
C0387F00
C0183E00
ENDCHAR
STARTCHAR uni01CB
ENCODING 459
SWIDTH 944 0
DWIDTH 23 0
BBX 19 22 2 -5
BITMAP
C01860
E01860
F01800
F01800
D81860
CC1860
CC1860
C61860
C71860
C31860
C19860
C19860
C0D860
C07860
C07860
C03860
C01860
000060
000060
000060
0003E0
0003C0
ENDCHAR
STARTCHAR uni01CC
ENCODING 460
SWIDTH 770 0
DWIDTH 19 0
BBX 15 22 2 -5
BITMAP
0006
0006
0000
0000
CF06
DF86
F1C6
E0C6
C0C6
C0C6
C0C6
C0C6
C0C6
C0C6
C0C6
C0C6
C0C6
0006
0006
0006
003E
003C
ENDCHAR
STARTCHAR uni01CD
ENCODING 461
SWIDTH 666 0
DWIDTH 15 0
BBX 15 21 0 0
BITMAP
0660
06C0
0380
0000
0380
0380
06C0
06C0
0EE0
0C60
0C60
1830
1830
1830
3FF8
3FF8
701C
600C
600C
C006
C006
ENDCHAR
STARTCHAR uni01CE
ENCODING 462
SWIDTH 556 0
DWIDTH 13 0
BBX 11 18 1 0
BITMAP
1980
0F00
0E00
0000
0000
1F00
7F80
E1C0
C0C0
00C0
07C0
3FC0
78C0
C0C0
C1C0
E3C0
7FC0
3C60
ENDCHAR
STARTCHAR uni01CF
ENCODING 463
SWIDTH 277 0
DWIDTH 6 0
BBX 6 21 0 0
BITMAP
CC
68
38
00
30
30
30
30
30
30
30
30
30
30
30
30
30
30
30
30
30
ENDCHAR
STARTCHAR uni01D0
ENCODING 464
SWIDTH 222 0
DWIDTH 5 0
BBX 7 18 0 0
BITMAP
C6
6C
38
00
00
30
30
30
30
30
30
30
30
30
30
30
30
30
ENDCHAR
STARTCHAR uni01D1
ENCODING 465
SWIDTH 777 0
DWIDTH 19 0
BBX 17 21 1 0
BITMAP
066000
036000
01C000
000000
07F000
1FFC00
3C1E00
700700
600300
E00380
C00180
C00180
C00180
C00180
C00180
E00380
600300
700700
3C1E00
1FFC00
07F000
ENDCHAR
STARTCHAR uni01D2
ENCODING 466
SWIDTH 556 0
DWIDTH 13 0
BBX 11 18 1 0
BITMAP
3180
1B00
0E00
0000
0000
1F00
3F80
71C0
E0E0
C060
C060
C060
C060
C060
E0E0
71C0
3F80
1F00
ENDCHAR
STARTCHAR uni01D3
ENCODING 467
SWIDTH 722 0
DWIDTH 17 0
BBX 13 21 2 0
BITMAP
0CC0
0D80
0700
0000
C018
C018
C018
C018
C018
C018
C018
C018
C018
C018
C018
C018
C018
E038
7070
3FE0
1FC0
ENDCHAR
STARTCHAR uni01D4
ENCODING 468
SWIDTH 556 0
DWIDTH 14 0
BBX 10 18 2 0
BITMAP
3180
1B00
0E00
0000
0000
C0C0
C0C0
C0C0
C0C0
C0C0
C0C0
C0C0
C0C0
C0C0
C1C0
E3C0
7EC0
3CC0
ENDCHAR
STARTCHAR uni01D5
ENCODING 469
SWIDTH 722 0
DWIDTH 17 0
BBX 13 21 2 0
BITMAP
1FC0
0000
18C0
18C0
C018
C018
C018
C018
C018
C018
C018
C018
C018
C018
C018
C018
C018
E038
7070
3FE0
1FC0
ENDCHAR
STARTCHAR uni01D6
ENCODING 470
SWIDTH 556 0
DWIDTH 14 0
BBX 10 20 2 0
BITMAP
3F80
3F80
0000
0000
3300
3300
0000
C0C0
C0C0
C0C0
C0C0
C0C0
C0C0
C0C0
C0C0
C0C0
C1C0
E3C0
7EC0
3CC0
ENDCHAR
STARTCHAR uni01D7
ENCODING 471
SWIDTH 722 0
DWIDTH 17 0
BBX 13 21 2 0
BITMAP
0180
0300
18C0
18C0
C018
C018
C018
C018
C018
C018
C018
C018
C018
C018
C018
C018
C018
E038
7070
3FE0
1FC0
ENDCHAR
STARTCHAR uni01D8
ENCODING 472
SWIDTH 556 0
DWIDTH 14 0
BBX 10 21 2 0
BITMAP
0600
0C00
0800
0000
0000
3300
3300
0000
C0C0
C0C0
C0C0
C0C0
C0C0
C0C0
C0C0
C0C0
C0C0
C1C0
E3C0
7EC0
3CC0
ENDCHAR
STARTCHAR uni01D9
ENCODING 473
SWIDTH 722 0
DWIDTH 17 0
BBX 13 21 2 0
BITMAP
1980
0700
18C0
18C0
C018
C018
C018
C018
C018
C018
C018
C018
C018
C018
C018
C018
C018
E038
7070
3FE0
1FC0
ENDCHAR
STARTCHAR uni01DA
ENCODING 474
SWIDTH 556 0
DWIDTH 14 0
BBX 10 21 2 0
BITMAP
6300
3600
1C00
0000
0000
3300
3300
0000
C0C0
C0C0
C0C0
C0C0
C0C0
C0C0
C0C0
C0C0
C0C0
C1C0
E3C0
7EC0
3CC0
ENDCHAR
STARTCHAR uni01DB
ENCODING 475
SWIDTH 722 0
DWIDTH 17 0
BBX 13 21 2 0
BITMAP
1C00
0400
18C0
18C0
C018
C018
C018
C018
C018
C018
C018
C018
C018
C018
C018
C018
C018
E038
7070
3FE0
1FC0
ENDCHAR
STARTCHAR uni01DC
ENCODING 476
SWIDTH 556 0
DWIDTH 14 0
BBX 10 21 2 0
BITMAP
1800
0C00
0400
0000
0000
3300
3300
0000
C0C0
C0C0
C0C0
C0C0
C0C0
C0C0
C0C0
C0C0
C0C0
C1C0
E3C0
7EC0
3CC0
ENDCHAR
STARTCHAR uni01DD
ENCODING 477
SWIDTH 556 0
DWIDTH 13 0
BBX 11 13 1 0
BITMAP
1F00
7F80
E1C0
C0E0
0060
0060
FFE0
FFE0
C060
E0C0
71C0
3F80
1F00
ENDCHAR
STARTCHAR uni01DE
ENCODING 478
SWIDTH 666 0
DWIDTH 15 0
BBX 15 21 0 0
BITMAP
0FE0
0000
0C60
0C60
0380
0380
06C0
06C0
0EE0
0C60
0C60
1830
1830
1830
3FF8
3FF8
701C
600C
600C
C006
C006
ENDCHAR
STARTCHAR uni01DF
ENCODING 479
SWIDTH 556 0
DWIDTH 13 0
BBX 11 20 1 0
BITMAP
3F80
3F80
0000
3300
3300
0000
0000
1F00
7F80
E1C0
C0C0
00C0
07C0
3FC0
78C0
C0C0
C1C0
E3C0
7FC0
3C60
ENDCHAR
STARTCHAR uni01E0
ENCODING 480
SWIDTH 666 0
DWIDTH 15 0
BBX 15 21 0 0
BITMAP
07C0
0000
0100
0000
0380
0380
06C0
06C0
0EE0
0C60
0C60
1830
1830
1830
3FF8
3FF8
701C
600C
600C
C006
C006
ENDCHAR
STARTCHAR uni01E1
ENCODING 481
SWIDTH 556 0
DWIDTH 13 0
BBX 11 20 1 0
BITMAP
1FC0
1FC0
0000
0600
0600
0000
0000
1F00
7F80
E1C0
C0C0
00C0
07C0
3FC0
78C0
C0C0
C1C0
E3C0
7FC0
3C60
ENDCHAR
STARTCHAR uni01E2
ENCODING 482
SWIDTH 1000 0
DWIDTH 24 0
BBX 23 20 0 0
BITMAP
001FC0
001FC0
000000
00FFFE
01FFFE
019800
031800
031800
061800
061800
0C1FFC
0C1FFC
181800
1FF800
3FF800
301800
601800
601800
C01FFE
C01FFE
ENDCHAR
STARTCHAR uni01E3
ENCODING 483
SWIDTH 889 0
DWIDTH 21 0
BBX 20 17 1 0
BITMAP
01FC00
01FC00
000000
000000
1F8F80
7FFFC0
60F860
C06020
01E030
3FFFF0
7E7FF0
E06000
C06000
C0F030
E1F860
7FBFC0
3E0F80
ENDCHAR
STARTCHAR uni01E4
ENCODING 484
SWIDTH 777 0
DWIDTH 19 0
BBX 17 17 1 0
BITMAP
07F000
1FFC00
3C1E00
700600
600700
E00300
C00000
C00000
C07F00
C07F00
C00300
E07F80
607F80
700300
3C0F00
1FFC00
07F000
ENDCHAR
STARTCHAR uni01E5
ENCODING 485
SWIDTH 556 0
DWIDTH 13 0
BBX 12 18 1 -5
BITMAP
1E60
3FE0
71E0
E0E0
C060
C060
C060
C060
E0E0
60E0
3FE0
1E60
0060
FFF0
00C0
C1C0
7F80
3F00
ENDCHAR
STARTCHAR Gcaron
ENCODING 486
SWIDTH 777 0
DWIDTH 19 0
BBX 16 21 1 0
BITMAP
0330
0360
01C0
0000
07F0
1FFC
3C1E
7006
6003
E000
C000
C000
C07F
C07F
C003
E003
6003
7003
3C1F
1FFC
03F0
ENDCHAR
STARTCHAR gcaron
ENCODING 487
SWIDTH 556 0
DWIDTH 14 0
BBX 11 22 1 -5
BITMAP
1980
0D00
0700
0000
1E60
3F60
71E0
60E0
C060
C060
C060
C060
C060
60E0
71E0
3F60
1E60
0060
C0E0
E1C0
7FC0
3F00
ENDCHAR
STARTCHAR uni01E8
ENCODING 488
SWIDTH 666 0
DWIDTH 16 0
BBX 14 21 2 0
BITMAP
3300
1B00
0E00
0000
C038
C070
C0E0
C1C0
C380
C700
CE00
DE00
FF00
F700
E380
C1C0
C0E0
C0E0
C070
C038
C01C
ENDCHAR
STARTCHAR uni01E9
ENCODING 489
SWIDTH 500 0
DWIDTH 12 0
BBX 10 21 2 0
BITMAP
3300
1600
1C00
0000
C000
C000
C000
C000
C180
C300
C600
CC00
D800
F800
FC00
CE00
C600
C700
C300
C180
C1C0
ENDCHAR
STARTCHAR uni01EA
ENCODING 490
SWIDTH 777 0
DWIDTH 19 0
BBX 17 22 1 -5
BITMAP
07F000
1FFC00
3C1E00
700700
600300
E00380
C00180
C00180
C00180
C00180
C00180
E00380
600300
700700
3C1E00
1FFC00
07F000
004000
008000
008000
008000
006000
ENDCHAR
STARTCHAR uni01EB
ENCODING 491
SWIDTH 556 0
DWIDTH 13 0
BBX 11 18 1 -5
BITMAP
1F00
3F80
71C0
E0E0
C060
C060
C060
C060
C060
E0E0
71C0
3F80
1F00
0200
0200
0400
0600
0300
ENDCHAR
STARTCHAR uni01EC
ENCODING 492
SWIDTH 777 0
DWIDTH 19 0
BBX 17 25 1 -5
BITMAP
07F000
07F000
000000
07F000
1FFC00
3C1E00
700700
600300
E00380
C00180
C00180
C00180
C00180
C00180
E00380
600300
700700
3C1E00
1FFC00
07F000
004000
008000
008000
008000
006000
ENDCHAR
STARTCHAR uni01ED
ENCODING 493
SWIDTH 556 0
DWIDTH 13 0
BBX 11 22 1 -5
BITMAP
1FC0
1FC0
0000
0000
1F00
3F80
71C0
E0E0
C060
C060
C060
C060
C060
E0E0
71C0
3F80
1F00
0200
0200
0400
0600
0300
ENDCHAR
STARTCHAR uni01EE
ENCODING 494
SWIDTH 610 0
DWIDTH 15 0
BBX 14 26 0 -5
BITMAP
0C60
06C0
0380
0000
7FFC
7FFC
001C
0038
0070
00E0
01C0
0380
03C0
03F0
0078
0018
001C
000C
000C
000C
000C
C01C
E018
7070
3FE0
0FC0
ENDCHAR
STARTCHAR uni01EF
ENCODING 495
SWIDTH 544 0
DWIDTH 13 0
BBX 11 22 1 -5
BITMAP
3300
1B00
0E00
0000
7FC0
7FC0
0380
0300
0600
0E00
0F00
0F80
01C0
00E0
0060
0060
0060
C060
E0C0
71C0
7F80
1F00
ENDCHAR
STARTCHAR uni01F0
ENCODING 496
SWIDTH 222 0
DWIDTH 5 0
BBX 8 22 -1 -5
BITMAP
63
36
1C
00
18
18
18
18
18
18
18
18
18
18
18
18
18
18
18
18
F8
F0
ENDCHAR
STARTCHAR uni01F1
ENCODING 497
SWIDTH 1333 0
DWIDTH 32 0
BBX 29 17 2 0
BITMAP
FFC0FFF8
FFE0FFF8
C0700030
C0380060
C01800C0
C00C01C0
C00C0380
C00C0300
C00C0600
C00C0C00
C00C1C00
C00C3800
C0183000
C0386000
C070C000
FFE1FFF8
FF81FFF8
ENDCHAR
STARTCHAR uni01F2
ENCODING 498
SWIDTH 1222 0
DWIDTH 29 0
BBX 26 17 2 0
BITMAP
FFC00000
FFE00000
C0700000
C0380000
C0187FC0
C00C7FC0
C00C0180
C00C0380
C00C0700
C00C0E00
C00C0C00
C00C1800
C0183800
C0387000
C0706000
FFE0FFC0
FF80FFC0
ENDCHAR
STARTCHAR uni01F3
ENCODING 499
SWIDTH 1048 0
DWIDTH 25 0
BBX 23 17 1 0
BITMAP
006000
006000
006000
006000
1E63FE
3F63FE
71E00C
E0E01C
C06038
C06070
C06060
C060C0
C061C0
60E380
71E300
3F67FE
1E67FE
ENDCHAR
STARTCHAR uni01F4
ENCODING 500
SWIDTH 777 0
DWIDTH 19 0
BBX 16 21 1 0
BITMAP
00E0
00C0
0080
0000
07F0
1FFC
3C1E
7006
6003
E000
C000
C000
C07F
C07F
C003
E003
6003
7003
3C1F
1FFC
03F0
ENDCHAR
STARTCHAR uni01F5
ENCODING 501
SWIDTH 556 0
DWIDTH 14 0
BBX 11 22 1 -5
BITMAP
0380
0300
0600
0000
1E60
3F60
71E0
60E0
C060
C060
C060
C060
C060
60E0
71E0
3F60
1E60
0060
C0E0
E1C0
7FC0
3F00
ENDCHAR
STARTCHAR uni01F6
ENCODING 502
SWIDTH 1034 0
DWIDTH 25 0
BBX 21 17 2 0
BITMAP
C01800
C01800
C01800
C01800
C01818
C01818
C01818
FFF818
FFF818
C01818
C01818
C01818
C01818
C01818
C01C30
C00FF0
C007C0
ENDCHAR
STARTCHAR uni01F7
ENCODING 503
SWIDTH 618 0
DWIDTH 15 0
BBX 12 22 2 -5
BITMAP
CF80
DFE0
F0E0
E070
C030
C030
C030
C030
C030
C060
C060
C0C0
C1C0
C180
C300
CE00
DC00
F800
E000
C000
C000
C000
ENDCHAR
STARTCHAR uni01F8
ENCODING 504
SWIDTH 722 0
DWIDTH 17 0
BBX 13 21 2 0
BITMAP
0C00
0600
0200
0000
C018
E018
F018
F018
D818
CC18
CC18
C618
C718
C318
C198
C198
C0D8
C078
C078
C038
C018
ENDCHAR
STARTCHAR uni01F9
ENCODING 505
SWIDTH 556 0
DWIDTH 14 0
BBX 10 17 2 0
BITMAP
1C00
0C00
0400
0000
CF00
DF80
F1C0
E0C0
C0C0
C0C0
C0C0
C0C0
C0C0
C0C0
C0C0
C0C0
C0C0
ENDCHAR
STARTCHAR Aringacute
ENCODING 506
SWIDTH 666 0
DWIDTH 15 0
BBX 15 24 0 0
BITMAP
01C0
0180
0300
0380
0440
0440
0440
0380
0380
06C0
06C0
0EE0
0C60
0C60
1830
1830
1830
3FF8
3FF8
701C
600C
600C
C006
C006
ENDCHAR
STARTCHAR aringacute
ENCODING 507
SWIDTH 556 0
DWIDTH 13 0
BBX 11 23 1 0
BITMAP
0700
0600
0C00
0000
0E00
1100
1100
1100
0E00
0000
1F00
7F80
E1C0
C0C0
00C0
07C0
3FC0
78C0
C0C0
C1C0
E3C0
7FC0
3C60
ENDCHAR
STARTCHAR AEacute
ENCODING 508
SWIDTH 1000 0
DWIDTH 24 0
BBX 23 21 0 0
BITMAP
001800
003000
002000
000000
00FFFE
01FFFE
019800
031800
031800
061800
061800
0C1FFC
0C1FFC
181800
1FF800
3FF800
301800
601800
601800
C01FFE
C01FFE
ENDCHAR
STARTCHAR aeacute
ENCODING 509
SWIDTH 889 0
DWIDTH 21 0
BBX 20 17 1 0
BITMAP
001C00
001800
003000
000000
1F8F80
7FFFC0
60F860
C06020
01E030
3FFFF0
7E7FF0
E06000
C06000
C0F030
E1F860
7FBFC0
3E0F80
ENDCHAR
STARTCHAR Oslashacute
ENCODING 510
SWIDTH 777 0
DWIDTH 19 0
BBX 17 22 1 -1
BITMAP
007000
006000
00C000
000100
07F380
1FFF00
3C1E00
700F00
601F00
E03B80
C07180
C0E180
C1C180
C38180
C70180
EE0380
7C0300
780700
3C1E00
7FFC00
E7F000
400000
ENDCHAR
STARTCHAR oslashacute
ENCODING 511
SWIDTH 610 0
DWIDTH 15 0
BBX 11 18 2 -1
BITMAP
0700
0600
0C00
0060
1F60
3FC0
71C0
E3C0
C760
C660
CC60
DC60
D860
F0E0
71C0
7F80
DF00
C000
ENDCHAR
STARTCHAR uni0200
ENCODING 512
SWIDTH 666 0
DWIDTH 15 0
BBX 15 21 0 0
BITMAP
1980
0CC0
0660
0000
0380
0380
06C0
06C0
0EE0
0C60
0C60
1830
1830
1830
3FF8
3FF8
701C
600C
600C
C006
C006
ENDCHAR
STARTCHAR uni0201
ENCODING 513
SWIDTH 556 0
DWIDTH 13 0
BBX 11 17 1 0
BITMAP
6600
3300
1980
0000
1F00
7F80
E1C0
C0C0
00C0
07C0
3FC0
78C0
C0C0
C1C0
E3C0
7FC0
3C60
ENDCHAR
STARTCHAR uni0202
ENCODING 514
SWIDTH 666 0
DWIDTH 15 0
BBX 15 21 0 0
BITMAP
0780
0C40
0820
0000
0380
0380
06C0
06C0
0EE0
0C60
0C60
1830
1830
1830
3FF8
3FF8
701C
600C
600C
C006
C006
ENDCHAR
STARTCHAR uni0203
ENCODING 515
SWIDTH 556 0
DWIDTH 13 0
BBX 11 17 1 0
BITMAP
1E00
3100
2080
0000
1F00
7F80
E1C0
C0C0
00C0
07C0
3FC0
78C0
C0C0
C1C0
E3C0
7FC0
3C60
ENDCHAR
STARTCHAR uni0204
ENCODING 516
SWIDTH 666 0
DWIDTH 16 0
BBX 13 21 2 0
BITMAP
3300
3300
1980
0000
FFF8
FFF8
C000
C000
C000
C000
C000
FFF0
FFF0
C000
C000
C000
C000
C000
C000
FFF8
FFF8
ENDCHAR
STARTCHAR uni0205
ENCODING 517
SWIDTH 556 0
DWIDTH 13 0
BBX 11 17 1 0
BITMAP
6600
3300
1980
0000
1F00
3F80
71C0
C0E0
C060
FFE0
FFE0
C000
C000
E060
71C0
3F80
1F00
ENDCHAR
STARTCHAR uni0206
ENCODING 518
SWIDTH 666 0
DWIDTH 16 0
BBX 13 21 2 0
BITMAP
0780
08C0
1040
0000
FFF8
FFF8
C000
C000
C000
C000
C000
FFF0
FFF0
C000
C000
C000
C000
C000
C000
FFF8
FFF8
ENDCHAR
STARTCHAR uni0207
ENCODING 519
SWIDTH 556 0
DWIDTH 13 0
BBX 11 17 1 0
BITMAP
0F00
1080
1040
0000
1F00
3F80
71C0
C0E0
C060
FFE0
FFE0
C000
C000
E060
71C0
3F80
1F00
ENDCHAR
STARTCHAR uni0208
ENCODING 520
SWIDTH 277 0
DWIDTH 6 0
BBX 7 21 -2 0
BITMAP
CC
66
22
00
0C
0C
0C
0C
0C
0C
0C
0C
0C
0C
0C
0C
0C
0C
0C
0C
0C
ENDCHAR
STARTCHAR uni0209
ENCODING 521
SWIDTH 277 0
DWIDTH 6 0
BBX 7 17 -1 0
BITMAP
CC
CC
66
00
18
18
18
18
18
18
18
18
18
18
18
18
18
ENDCHAR
STARTCHAR uni020A
ENCODING 522
SWIDTH 277 0
DWIDTH 6 0
BBX 6 21 0 0
BITMAP
78
84
84
00
30
30
30
30
30
30
30
30
30
30
30
30
30
30
30
30
30
ENDCHAR
STARTCHAR uni020B
ENCODING 523
SWIDTH 277 0
DWIDTH 6 0
BBX 7 17 -1 0
BITMAP
3C
42
82
00
18
18
18
18
18
18
18
18
18
18
18
18
18
ENDCHAR
STARTCHAR uni020C
ENCODING 524
SWIDTH 777 0
DWIDTH 19 0
BBX 17 21 1 0
BITMAP
0CC000
0CC000
066000
000000
07F000
1FFC00
3C1E00
700700
600300
E00380
C00180
C00180
C00180
C00180
C00180
E00380
600300
700700
3C1E00
1FFC00
07F000
ENDCHAR
STARTCHAR uni020D
ENCODING 525
SWIDTH 556 0
DWIDTH 13 0
BBX 11 17 1 0
BITMAP
6600
3300
1100
0000
1F00
3F80
71C0
E0E0
C060
C060
C060
C060
C060
E0E0
71C0
3F80
1F00
ENDCHAR
STARTCHAR uni020E
ENCODING 526
SWIDTH 777 0
DWIDTH 19 0
BBX 17 21 1 0
BITMAP
01E000
021000
061000
000000
07F000
1FFC00
3C1E00
700700
600300
E00380
C00180
C00180
C00180
C00180
C00180
E00380
600300
700700
3C1E00
1FFC00
07F000
ENDCHAR
STARTCHAR uni020F
ENCODING 527
SWIDTH 556 0
DWIDTH 13 0
BBX 11 17 1 0
BITMAP
1E00
3100
2080
0000
1F00
3F80
71C0
E0E0
C060
C060
C060
C060
C060
E0E0
71C0
3F80
1F00
ENDCHAR
STARTCHAR uni0210
ENCODING 528
SWIDTH 722 0
DWIDTH 17 0
BBX 14 21 2 0
BITMAP
6600
3300
1980
0000
FFE0
FFF0
C038
C018
C018
C018
C038
FFF0
FFC0
C380
C1C0
C0E0
C0E0
C070
C030
C038
C01C
ENDCHAR
STARTCHAR uni0211
ENCODING 529
SWIDTH 333 0
DWIDTH 8 0
BBX 7 17 1 0
BITMAP
CC
66
66
00
6E
7E
70
60
60
60
60
60
60
60
60
60
60
ENDCHAR
STARTCHAR uni0212
ENCODING 530
SWIDTH 722 0
DWIDTH 17 0
BBX 14 21 2 0
BITMAP
0F00
1180
2080
0000
FFE0
FFF0
C038
C018
C018
C018
C038
FFF0
FFC0
C380
C1C0
C0E0
C0E0
C070
C030
C038
C01C
ENDCHAR
STARTCHAR uni0213
ENCODING 531
SWIDTH 333 0
DWIDTH 8 0
BBX 7 17 2 0
BITMAP
78
84
82
00
DC
FC
E0
C0
C0
C0
C0
C0
C0
C0
C0
C0
C0
ENDCHAR
STARTCHAR uni0214
ENCODING 532
SWIDTH 722 0
DWIDTH 17 0
BBX 13 21 2 0
BITMAP
3300
1980
0880
0000
C018
C018
C018
C018
C018
C018
C018
C018
C018
C018
C018
C018
C018
E038
7070
3FE0
1FC0
ENDCHAR
STARTCHAR uni0215
ENCODING 533
SWIDTH 556 0
DWIDTH 14 0
BBX 10 17 2 0
BITMAP
6600
3300
3300
0000
C0C0
C0C0
C0C0
C0C0
C0C0
C0C0
C0C0
C0C0
C0C0
C1C0
E3C0
7EC0
3CC0
ENDCHAR
STARTCHAR uni0216
ENCODING 534
SWIDTH 722 0
DWIDTH 17 0
BBX 13 21 2 0
BITMAP
0780
0840
0860
0000
C018
C018
C018
C018
C018
C018
C018
C018
C018
C018
C018
C018
C018
E038
7070
3FE0
1FC0
ENDCHAR
STARTCHAR uni0217
ENCODING 535
SWIDTH 556 0
DWIDTH 14 0
BBX 10 17 2 0
BITMAP
1E00
2100
2180
0000
C0C0
C0C0
C0C0
C0C0
C0C0
C0C0
C0C0
C0C0
C0C0
C1C0
E3C0
7EC0
3CC0
ENDCHAR
STARTCHAR uni0218
ENCODING 536
SWIDTH 666 0
DWIDTH 16 0
BBX 14 24 1 -7
BITMAP
0FC0
3FF0
3038
601C
600C
6000
3800
3FC0
0FF0
0078
001C
C00C
C00C
601C
7838
3FF0
0FC0
0000
0000
0300
0300
0100
0300
0200
ENDCHAR
STARTCHAR uni0219
ENCODING 537
SWIDTH 500 0
DWIDTH 12 0
BBX 10 20 1 -7
BITMAP
3F00
7F80
E1C0
C0C0
E000
7E00
3F80
07C0
00C0
C0C0
E1C0
7F80
3F00
0000
0000
0C00
0C00
0400
0C00
0800
ENDCHAR
STARTCHAR uni021A
ENCODING 538
SWIDTH 610 0
DWIDTH 14 0
BBX 14 23 0 -6
BITMAP
FFFC
FFFC
0300
0300
0300
0300
0300
0300
0300
0300
0300
0300
0300
0300
0300
0300
0300
0000
0300
0300
0100
0300
0200
ENDCHAR
STARTCHAR uni021B
ENCODING 539
SWIDTH 277 0
DWIDTH 7 0
BBX 7 23 0 -6
BITMAP
10
30
30
30
FE
FE
30
30
30
30
30
30
30
30
30
3E
1E
00
0C
0C
04
04
08
ENDCHAR
STARTCHAR uni021C
ENCODING 540
SWIDTH 544 0
DWIDTH 13 0
BBX 11 22 1 -5
BITMAP
1F00
7FC0
F0C0
4060
0060
0060
0060
00C0
00C0
01C0
07C0
1E60
7860
6060
0060
00E0
00C0
0180
0700
1E00
7800
4000
ENDCHAR
STARTCHAR uni021D
ENCODING 541
SWIDTH 436 0
DWIDTH 10 0
BBX 9 18 0 -5
BITMAP
3E00
7F00
E380
4180
0180
0180
0300
0700
1F00
7980
6180
0180
0180
0300
0700
1E00
7800
6000
ENDCHAR
STARTCHAR uni021E
ENCODING 542
SWIDTH 722 0
DWIDTH 17 0
BBX 13 21 2 0
BITMAP
0CC0
0D80
0700
0000
C018
C018
C018
C018
C018
C018
C018
FFF8
FFF8
C018
C018
C018
C018
C018
C018
C018
C018
ENDCHAR
STARTCHAR uni021F
ENCODING 543
SWIDTH 556 0
DWIDTH 14 0
BBX 10 21 2 0
BITMAP
3300
1B00
0E00
0000
C000
C000
C000
C000
CF00
DF80
F1C0
E0C0
C0C0
C0C0
C0C0
C0C0
C0C0
C0C0
C0C0
C0C0
C0C0
ENDCHAR
STARTCHAR uni0220
ENCODING 544
SWIDTH 706 0
DWIDTH 17 0
BBX 13 22 2 -5
BITMAP
CFC0
FFF0
F070
C038
C018
C018
C018
C018
C018
C018
C018
C018
C018
C018
C018
C018
C018
0018
0018
0018
0018
0018
ENDCHAR
STARTCHAR uni0221
ENCODING 545
SWIDTH 681 0
DWIDTH 16 0
BBX 15 22 1 -5
BITMAP
0060
0060
0060
0060
1E60
3FE0
71E0
E0E0
C060
C060
C060
C060
C060
60E0
71E0
3FE0
1E7C
007E
00E6
01E6
03FE
011C
ENDCHAR
STARTCHAR uni0222
ENCODING 546
SWIDTH 604 0
DWIDTH 15 0
BBX 13 17 1 0
BITMAP
01C0
0070
3C18
E018
C018
C018
6070
3FC0
3FE0
7070
C018
C018
C018
E038
7070
3FE0
1FC0
ENDCHAR
STARTCHAR uni0223
ENCODING 547
SWIDTH 565 0
DWIDTH 14 0
BBX 12 17 1 0
BITMAP
30C0
6060
C030
C030
C030
C030
6060
3FC0
3FC0
7060
C030
C030
C030
C030
6060
7FE0
1F80
ENDCHAR
STARTCHAR uni0224
ENCODING 548
SWIDTH 610 0
DWIDTH 15 0
BBX 14 20 0 -3
BITMAP
7FFC
7FFC
000C
0018
0030
0060
00C0
0180
0300
0600
0C00
1800
3000
6000
C000
FFF8
FFFC
000C
000C
000C
ENDCHAR
STARTCHAR uni0225
ENCODING 549
SWIDTH 500 0
DWIDTH 12 0
BBX 10 16 1 -3
BITMAP
FFC0
FFC0
0180
0300
0600
0E00
1C00
3800
3000
6000
C000
FF80
FFC0
00C0
00C0
00C0
ENDCHAR
STARTCHAR uni0226
ENCODING 550
SWIDTH 666 0
DWIDTH 15 0
BBX 15 20 0 0
BITMAP
0180
0180
0000
0380
0380
06C0
06C0
0EE0
0C60
0C60
1830
1830
1830
3FF8
3FF8
701C
600C
600C
C006
C006
ENDCHAR
STARTCHAR uni0227
ENCODING 551
SWIDTH 556 0
DWIDTH 13 0
BBX 11 16 1 0
BITMAP
0600
0600
0000
1F00
7F80
E1C0
C0C0
00C0
07C0
3FC0
78C0
C0C0
C1C0
E3C0
7FC0
3C60
ENDCHAR
STARTCHAR uni0228
ENCODING 552
SWIDTH 666 0
DWIDTH 16 0
BBX 13 21 2 -4
BITMAP
FFF8
FFF8
C000
C000
C000
C000
C000
FFF0
FFF0
C000
C000
C000
C000
C000
C000
FFF8
FFF8
0200
0300
0180
0F00
ENDCHAR
STARTCHAR uni0229
ENCODING 553
SWIDTH 556 0
DWIDTH 13 0
BBX 11 17 1 -4
BITMAP
1F00
3F80
71C0
E0E0
C060
FFE0
FFE0
C000
C000
E060
70C0
3FC0
1F00
0400
0600
0300
1E00
ENDCHAR
STARTCHAR uni022A
ENCODING 554
SWIDTH 777 0
DWIDTH 19 0
BBX 17 21 1 0
BITMAP
07F000
063000
063000
000000
07F000
1FFC00
3C1E00
700700
600300
E00380
C00180
C00180
C00180
C00180
C00180
E00380
600300
700700
3C1E00
1FFC00
07F000
ENDCHAR
STARTCHAR uni022B
ENCODING 555
SWIDTH 556 0
DWIDTH 13 0
BBX 11 20 1 0
BITMAP
1FC0
1FC0
0000
1980
1980
0000
0000
1F00
3F80
71C0
E0E0
C060
C060
C060
C060
C060
E0E0
71C0
3F80
1F00
ENDCHAR
STARTCHAR uni022C
ENCODING 556
SWIDTH 777 0
DWIDTH 19 0
BBX 17 21 1 0
BITMAP
07F000
03A000
02E000
000000
07F000
1FFC00
3C1E00
700700
600300
E00380
C00180
C00180
C00180
C00180
C00180
E00380
600300
700700
3C1E00
1FFC00
07F000
ENDCHAR
STARTCHAR uni022D
ENCODING 557
SWIDTH 556 0
DWIDTH 13 0
BBX 11 20 1 0
BITMAP
1FC0
1FC0
0000
1CC0
3FC0
3380
0000
1F00
3F80
71C0
E0E0
C060
C060
C060
C060
C060
E0E0
71C0
3F80
1F00
ENDCHAR
STARTCHAR uni022E
ENCODING 558
SWIDTH 777 0
DWIDTH 19 0
BBX 17 20 1 0
BITMAP
018000
018000
000000
07F000
1FFC00
3C1E00
700700
600300
E00380
C00180
C00180
C00180
C00180
C00180
E00380
600300
700700
3C1E00
1FFC00
07F000
ENDCHAR
STARTCHAR uni022F
ENCODING 559
SWIDTH 556 0
DWIDTH 13 0
BBX 11 16 1 0
BITMAP
0600
0600
0000
1F00
3F80
71C0
E0E0
C060
C060
C060
C060
C060
E0E0
71C0
3F80
1F00
ENDCHAR
STARTCHAR uni0230
ENCODING 560
SWIDTH 777 0
DWIDTH 19 0
BBX 17 21 1 0
BITMAP
03E000
000000
008000
000000
07F000
1FFC00
3C1E00
700700
600300
E00380
C00180
C00180
C00180
C00180
C00180
E00380
600300
700700
3C1E00
1FFC00
07F000
ENDCHAR
STARTCHAR uni0231
ENCODING 561
SWIDTH 556 0
DWIDTH 13 0
BBX 11 20 1 0
BITMAP
3F80
3F80
0000
0600
0600
0000
0000
1F00
3F80
71C0
E0E0
C060
C060
C060
C060
C060
E0E0
71C0
3F80
1F00
ENDCHAR
STARTCHAR uni0232
ENCODING 562
SWIDTH 666 0
DWIDTH 16 0
BBX 16 20 0 0
BITMAP
07F0
07F0
0000
E007
600E
301C
381C
1C38
0E70
0660
07E0
03C0
0180
0180
0180
0180
0180
0180
0180
0180
ENDCHAR
STARTCHAR uni0233
ENCODING 563
SWIDTH 500 0
DWIDTH 12 0
BBX 10 22 1 -5
BITMAP
7F00
7F00
0000
0000
C0C0
C0C0
C180
6180
6180
6380
3300
3300
1B00
1E00
1E00
0E00
0C00
0C00
0C00
1800
7800
7000
ENDCHAR
STARTCHAR uni0234
ENCODING 564
SWIDTH 349 0
DWIDTH 8 0
BBX 9 22 -1 -5
BITMAP
1800
1800
1800
1800
1800
1800
1800
1800
1800
1800
1800
1800
1800
1800
1800
1800
1F00
1F80
3980
7980
FF80
4700
ENDCHAR
STARTCHAR uni0235
ENCODING 565
SWIDTH 684 0
DWIDTH 16 0
BBX 14 18 2 -5
BITMAP
CF00
DF80
F1C0
E0C0
C0C0
C0C0
C0C0
C0C0
C0C0
C0C0
C0C0
C0C0
C0F8
00FC
01CC
03CC
07FC
0238
ENDCHAR
STARTCHAR uni0236
ENCODING 566
SWIDTH 367 0
DWIDTH 9 0
BBX 10 17 -1 0
BITMAP
0800
1800
1800
1800
7F00
7F00
1800
1800
1800
1800
1800
1F80
1FC0
38C0
78C0
EFC0
4780
ENDCHAR
STARTCHAR uni0237
ENCODING 567
SWIDTH 222 0
DWIDTH 5 0
BBX 5 18 -1 -5
BITMAP
18
18
18
18
18
18
18
18
18
18
18
18
18
18
18
18
F8
F0
ENDCHAR
STARTCHAR uni0238
ENCODING 568
SWIDTH 886 0
DWIDTH 21 0
BBX 20 17 0 0
BITMAP
006000
006000
006000
006000
1E6780
3F6FC0
71F8E0
E0F070
C06030
C06030
C06030
C06030
C06030
60F060
71F8E0
3F6FC0
1E6780
ENDCHAR
STARTCHAR uni0239
ENCODING 569
SWIDTH 886 0
DWIDTH 21 0
BBX 20 18 0 -5
BITMAP
1E6780
3F6FC0
71F8E0
E0F070
C06030
C06030
C06030
C06030
C06030
60F060
71F8E0
3F6FC0
1E6780
006000
006000
006000
006000
006000
ENDCHAR
STARTCHAR uni023A
ENCODING 570
SWIDTH 666 0
DWIDTH 16 0
BBX 16 19 0 -1
BITMAP
0006
018C
03D8
03D8
06F0
0670
0E60
0CF0
0CF0
1998
1B18
3FFC
3FFC
360C
6C06
7806
D807
F003
6000
ENDCHAR
STARTCHAR uni023B
ENCODING 571
SWIDTH 722 0
DWIDTH 17 0
BBX 15 19 1 -1
BITMAP
0006
07EC
1FF8
381C
703C
6076
E060
C0C0
C0C0
C180
C300
C300
E606
6E06
7C0C
381C
1FF8
37E0
6000
ENDCHAR
STARTCHAR uni023C
ENCODING 572
SWIDTH 500 0
DWIDTH 12 0
BBX 11 22 0 -5
BITMAP
0060
0060
00C0
00C0
0F80
1FC0
39E0
7360
6300
6600
6600
6C00
6C00
7C60
38E0
3FC0
3F80
3000
6000
6000
C000
C000
ENDCHAR
STARTCHAR uni023D
ENCODING 573
SWIDTH 556 0
DWIDTH 13 0
BBX 12 17 0 0
BITMAP
3000
3000
3000
3000
3000
3000
3000
FF00
FF00
3000
3000
3000
3000
3000
3000
3FF0
3FF0
ENDCHAR
STARTCHAR uni023E
ENCODING 574
SWIDTH 610 0
DWIDTH 15 0
BBX 13 19 1 -1
BITMAP
0018
FFF8
FFF8
0660
06C0
06C0
0780
0780
0700
0700
0600
0E00
0E00
1E00
1E00
3600
6600
6600
C000
ENDCHAR
STARTCHAR uni023F
ENCODING 575
SWIDTH 500 0
DWIDTH 12 0
BBX 10 18 1 -5
BITMAP
3F00
7F80
E1C0
C0C0
E000
7E00
3F80
07C0
00C0
40C0
E1C0
7F80
3F00
1800
1C00
0C80
07C0
0380
ENDCHAR
STARTCHAR uni0240
ENCODING 576
SWIDTH 500 0
DWIDTH 12 0
BBX 11 18 1 -5
BITMAP
FFC0
FFC0
0180
0300
0600
0E00
1C00
3800
3000
6000
C000
F000
F800
1C00
0E00
0740
03E0
01C0
ENDCHAR
STARTCHAR uni0241
ENCODING 577
SWIDTH 580 0
DWIDTH 14 0
BBX 12 17 0 0
BITMAP
1F80
3FC0
70E0
E060
C030
0030
0030
0030
0030
0070
00E0
07C0
0780
0600
0600
0600
0600
ENDCHAR
STARTCHAR uni0242
ENCODING 578
SWIDTH 453 0
DWIDTH 11 0
BBX 10 13 0 0
BITMAP
1F00
7F80
E180
C0C0
00C0
00C0
01C0
0380
0F80
0E00
0C00
0C00
0C00
ENDCHAR
STARTCHAR uni0243
ENCODING 579
SWIDTH 666 0
DWIDTH 16 0
BBX 15 17 0 0
BITMAP
3FE0
3FF8
301C
300C
300C
300C
3018
3FF0
3FF8
301C
3006
FF86
FF86
3006
300C
3FFC
3FF0
ENDCHAR
STARTCHAR uni0244
ENCODING 580
SWIDTH 722 0
DWIDTH 17 0
BBX 15 17 1 0
BITMAP
600C
600C
600C
600C
600C
600C
600C
FFFE
FFFE
600C
600C
600C
600C
701C
3838
1FF0
0FE0
ENDCHAR
STARTCHAR uni0245
ENCODING 581
SWIDTH 667 0
DWIDTH 16 0
BBX 15 17 0 0
BITMAP
0380
0380
06C0
06C0
06E0
0C60
0C60
1830
1830
3838
3018
3018
600C
600C
E00E
C006
C006
ENDCHAR
STARTCHAR uni0246
ENCODING 582
SWIDTH 666 0
DWIDTH 16 0
BBX 13 19 2 -1
BITMAP
0018
FFF8
FFF8
C060
C0C0
C0C0
C180
C180
FFF0
FFF0
C600
CC00
CC00
D800
D800
F000
FFF8
FFF8
C000
ENDCHAR
STARTCHAR uni0247
ENCODING 583
SWIDTH 556 0
DWIDTH 13 0
BBX 11 22 1 -5
BITMAP
0060
00C0
00C0
00C0
1F80
3F80
73C0
E360
C760
FFE0
FFE0
CC00
CC00
FC60
78E0
3FC0
3F80
3000
6000
6000
6000
C000
ENDCHAR
STARTCHAR uni0248
ENCODING 584
SWIDTH 500 0
DWIDTH 12 0
BBX 11 17 1 0
BITMAP
0180
0180
0180
0180
0180
0180
0180
07E0
07E0
0180
0180
0180
C180
C180
E380
7F00
3E00
ENDCHAR
STARTCHAR uni0249
ENCODING 585
SWIDTH 222 0
DWIDTH 5 0
BBX 5 22 0 -5
BITMAP
30
30
00
00
30
30
30
30
30
78
78
30
30
30
30
30
30
30
30
30
F0
E0
ENDCHAR
STARTCHAR uni024A
ENCODING 586
SWIDTH 737 0
DWIDTH 18 0
BBX 17 22 1 -5
BITMAP
03FA00
0FFE00
3C0600
300600
600600
E00600
C00600
C00600
C00600
C00600
C00600
E00600
600600
700600
3C0E00
1FFE00
03F600
000600
000600
000600
000780
000380
ENDCHAR
STARTCHAR uni024B
ENCODING 587
SWIDTH 556 0
DWIDTH 13 0
BBX 12 18 1 -5
BITMAP
1EC0
7FC0
63C0
E1C0
C0C0
C0C0
C0C0
C0C0
C0C0
61C0
71C0
3FC0
1EC0
00C0
00C0
00C0
00F0
0070
ENDCHAR
STARTCHAR uni024C
ENCODING 588
SWIDTH 722 0
DWIDTH 17 0
BBX 16 17 0 0
BITMAP
1FF8
1FFC
180C
1806
1806
1806
1806
181C
FFFC
FFF0
1860
1830
1818
181C
180C
1806
1807
ENDCHAR
STARTCHAR uni024D
ENCODING 589
SWIDTH 333 0
DWIDTH 8 0
BBX 7 13 1 0
BITMAP
6E
7E
70
60
60
F8
F8
60
60
60
60
60
60
ENDCHAR
STARTCHAR uni024E
ENCODING 590
SWIDTH 666 0
DWIDTH 16 0
BBX 16 17 0 0
BITMAP
E007
6006
FFFF
FFFF
1C38
0C30
0660
03C0
03C0
0180
0180
0180
0180
0180
0180
0180
0180
ENDCHAR
STARTCHAR uni024F
ENCODING 591
SWIDTH 500 0
DWIDTH 12 0
BBX 11 18 0 -5
BITMAP
C060
60E0
60C0
60C0
FFE0
FFE0
3180
1B80
1B00
1B00
0F00
0E00
0E00
0C00
0C00
1C00
7800
7000
ENDCHAR
STARTCHAR uni0250
ENCODING 592
SWIDTH 556 0
DWIDTH 13 0
BBX 11 13 1 0
BITMAP
C780
6FC0
78E0
7060
6060
67C0
7F80
7800
6000
6060
70E0
3FC0
1F00
ENDCHAR
STARTCHAR uni0251
ENCODING 593
SWIDTH 556 0
DWIDTH 13 0
BBX 11 13 1 0
BITMAP
1E60
3F60
71E0
E0E0
C060
C060
C060
C060
C060
60E0
71E0
3F60
1E60
ENDCHAR
STARTCHAR uni0252
ENCODING 594
SWIDTH 556 0
DWIDTH 13 0
BBX 11 13 1 0
BITMAP
CF00
DF80
F1C0
E0E0
C060
C060
C060
C060
C060
E0C0
F1C0
DF80
CF00
ENDCHAR
STARTCHAR uni0253
ENCODING 595
SWIDTH 556 0
DWIDTH 13 0
BBX 11 17 1 0
BITMAP
7800
F800
C000
C000
CF00
FF80
F1C0
E0E0
C060
C060
C060
C060
C060
E0C0
F1C0
FF80
CF00
ENDCHAR
STARTCHAR uni0254
ENCODING 596
SWIDTH 500 0
DWIDTH 12 0
BBX 10 13 1 0
BITMAP
3E00
7F00
E380
C1C0
00C0
00C0
00C0
00C0
00C0
C1C0
E380
7F00
3E00
ENDCHAR
STARTCHAR uni0255
ENCODING 597
SWIDTH 500 0
DWIDTH 12 0
BBX 10 14 1 -1
BITMAP
1F00
3F80
71C0
E0C0
C000
C000
C000
C780
DFC0
F8C0
70C0
7F80
DF00
4000
ENDCHAR
STARTCHAR uni0256
ENCODING 598
SWIDTH 556 0
DWIDTH 13 0
BBX 14 22 1 -5
BITMAP
0060
0060
0060
0060
1E60
3FE0
71E0
E0E0
C060
C060
C060
C060
C060
60E0
71E0
3FE0
1E60
0060
0060
0060
007C
003C
ENDCHAR
STARTCHAR uni0257
ENCODING 599
SWIDTH 556 0
DWIDTH 13 0
BBX 14 17 1 0
BITMAP
003C
007C
0060
0060
1E60
3FE0
71E0
E0E0
C060
C060
C060
C060
C060
60E0
71E0
3FE0
1E60
ENDCHAR
STARTCHAR uni0258
ENCODING 600
SWIDTH 556 0
DWIDTH 13 0
BBX 11 13 1 0
BITMAP
1F00
3F80
71C0
E0C0
C060
FFE0
FFE0
0060
0060
C0E0
E1C0
7F80
1F00
ENDCHAR
STARTCHAR uni0259
ENCODING 601
SWIDTH 556 0
DWIDTH 13 0
BBX 11 13 1 0
BITMAP
1F00
7F80
E1C0
C0E0
0060
0060
FFE0
FFE0
C060
C0C0
61C0
3F80
1F00
ENDCHAR
STARTCHAR uni025A
ENCODING 602
SWIDTH 738 0
DWIDTH 18 0
BBX 17 13 1 0
BITMAP
1F8000
7FC000
60E000
C07400
00FC00
3FFC00
FF3E80
E03780
C03780
E06000
70E000
3FC000
1F8000
ENDCHAR
STARTCHAR uni025B
ENCODING 603
SWIDTH 458 0
DWIDTH 11 0
BBX 9 13 1 0
BITMAP
3E00
7F00
E380
C180
C000
7800
7800
E000
C000
C180
E380
7F00
3E00
ENDCHAR
STARTCHAR uni025C
ENCODING 604
SWIDTH 458 0
DWIDTH 11 0
BBX 9 13 1 0
BITMAP
3E00
7F00
E380
C180
0180
0F00
0F00
0380
0180
C180
E380
7F00
3E00
ENDCHAR
STARTCHAR uni025D
ENCODING 605
SWIDTH 631 0
DWIDTH 15 0
BBX 14 13 1 0
BITMAP
3E00
7F00
E3E0
C1E0
03E4
1F3C
1F1C
0380
0180
C180
E380
7F00
3E00
ENDCHAR
STARTCHAR uni025E
ENCODING 606
SWIDTH 507 0
DWIDTH 12 0
BBX 10 13 1 0
BITMAP
1F00
3F80
71C0
E0C0
C1C0
C780
C780
C1C0
C0C0
E0C0
71C0
3F80
1F00
ENDCHAR
STARTCHAR uni025F
ENCODING 607
SWIDTH 277 0
DWIDTH 7 0
BBX 8 18 -1 -5
BITMAP
0C
0C
0C
0C
0C
0C
0C
0C
0C
0C
0C
7F
7F
0C
0C
0C
FC
F8
ENDCHAR
STARTCHAR uni0260
ENCODING 608
SWIDTH 556 0
DWIDTH 13 0
BBX 13 22 1 -5
BITMAP
0078
00F8
00C0
00C0
1EC0
3FC0
63C0
E1C0
C0C0
C0C0
C0C0
C0C0
C0C0
E1C0
61C0
3FC0
1EC0
00C0
C0C0
E180
7F80
3E00
ENDCHAR
STARTCHAR uni0261
ENCODING 609
SWIDTH 556 0
DWIDTH 14 0
BBX 11 18 1 -5
BITMAP
1E60
3F60
71E0
60E0
C060
C060
C060
C060
C060
60E0
71E0
3F60
1E60
0060
C0E0
E1C0
7FC0
3F00
ENDCHAR
STARTCHAR uni0262
ENCODING 610
SWIDTH 558 0
DWIDTH 13 0
BBX 11 13 1 0
BITMAP
1F80
3FC0
70E0
E060
C000
C000
C7E0
C7E0
C060
E060
70E0
3FE0
1F80
ENDCHAR
STARTCHAR uni0263
ENCODING 611
SWIDTH 500 0
DWIDTH 12 0
BBX 12 18 0 -5
BITMAP
C030
6060
6060
70C0
30C0
3180
1980
1B00
0F00
0E00
0E00
0E00
0E00
1F00
1B00
1B00
1F00
0E00
ENDCHAR
STARTCHAR uni0264
ENCODING 612
SWIDTH 616 0
DWIDTH 15 0
BBX 15 13 0 0
BITMAP
3838
7C7C
CEE6
46C4
07C0
0380
0380
0380
0380
06C0
06C0
07C0
0380
ENDCHAR
STARTCHAR uni0265
ENCODING 613
SWIDTH 556 0
DWIDTH 13 0
BBX 10 18 1 -5
BITMAP
C0C0
C0C0
C0C0
C0C0
C0C0
C0C0
C0C0
C0C0
C0C0
C1C0
E3C0
7FC0
3CC0
00C0
00C0
00C0
00C0
00C0
ENDCHAR
STARTCHAR uni0266
ENCODING 614
SWIDTH 556 0
DWIDTH 13 0
BBX 10 17 2 0
BITMAP
7800
F800
C000
C000
CF00
FF80
F1C0
E0C0
C0C0
C0C0
C0C0
C0C0
C0C0
C0C0
C0C0
C0C0
C0C0
ENDCHAR
STARTCHAR uni0267
ENCODING 615
SWIDTH 556 0
DWIDTH 13 0
BBX 10 22 2 -5
BITMAP
7800
F800
C000
C000
CF00
FF80
F1C0
E0C0
C0C0
C0C0
C0C0
C0C0
C0C0
C0C0
C0C0
C0C0
C0C0
00C0
00C0
00C0
07C0
0780
ENDCHAR
STARTCHAR uni0268
ENCODING 616
SWIDTH 222 0
DWIDTH 5 0
BBX 4 17 1 0
BITMAP
60
60
00
00
60
60
60
60
60
F0
F0
60
60
60
60
60
60
ENDCHAR
STARTCHAR uni0269
ENCODING 617
SWIDTH 222 0
DWIDTH 5 0
BBX 4 13 1 0
BITMAP
C0
C0
C0
C0
C0
C0
C0
C0
C0
C0
C0
F0
70
ENDCHAR
STARTCHAR uni026A
ENCODING 618
SWIDTH 355 0
DWIDTH 9 0
BBX 6 13 1 0
BITMAP
FC
FC
30
30
30
30
30
30
30
30
30
FC
FC
ENDCHAR
STARTCHAR uni026B
ENCODING 619
SWIDTH 327 0
DWIDTH 8 0
BBX 8 17 0 0
BITMAP
18
18
18
18
18
18
18
7B
FF
DE
18
18
18
18
18
18
18
ENDCHAR
STARTCHAR uni026C
ENCODING 620
SWIDTH 303 0
DWIDTH 7 0
BBX 7 17 0 0
BITMAP
18
18
18
18
18
78
98
98
98
7E
18
18
18
18
18
18
18
ENDCHAR
STARTCHAR uni026D
ENCODING 621
SWIDTH 222 0
DWIDTH 5 0
BBX 5 22 1 -5
BITMAP
C0
C0
C0
C0
C0
C0
C0
C0
C0
C0
C0
C0
C0
C0
C0
C0
C0
C0
C0
C0
F8
78
ENDCHAR
STARTCHAR uni026E
ENCODING 622
SWIDTH 571 0
DWIDTH 14 0
BBX 11 22 2 -5
BITMAP
C000
C000
C000
C000
FFC0
FFC0
C380
C300
C600
CE00
CF00
CFC0
C1C0
C0E0
C060
C060
C060
0060
C0C0
E1C0
7F80
3F00
ENDCHAR
STARTCHAR uni026F
ENCODING 623
SWIDTH 833 0
DWIDTH 20 0
BBX 16 13 2 0
BITMAP
C183
C183
C183
C183
C183
C183
C183
C183
C183
C183
E3C7
7EFF
3C73
ENDCHAR
STARTCHAR uni0270
ENCODING 624
SWIDTH 833 0
DWIDTH 20 0
BBX 16 18 2 -5
BITMAP
C183
C183
C183
C183
C183
C183
C183
C183
C183
C183
E3C7
7EFF
3C73
0003
0003
0003
0003
0003
ENDCHAR
STARTCHAR uni0271
ENCODING 625
SWIDTH 833 0
DWIDTH 20 0
BBX 18 18 1 -5
BITMAP
CF0F00
DFBF80
E1E1C0
E0C0C0
C0C0C0
C0C0C0
C0C0C0
C0C0C0
C0C0C0
C0C0C0
C0C0C0
C0C0C0
C0C0C0
0000C0
0000C0
0000C0
0007C0
000780
ENDCHAR
STARTCHAR uni0272
ENCODING 626
SWIDTH 556 0
DWIDTH 13 0
BBX 13 18 -1 -5
BITMAP
19E0
1BF0
1E38
1C18
1818
1818
1818
1818
1818
1818
1818
1818
1818
1800
1800
1800
F800
F000
ENDCHAR
STARTCHAR uni0273
ENCODING 627
SWIDTH 556 0
DWIDTH 13 0
BBX 13 18 2 -5
BITMAP
CF00
DF80
F1C0
E0C0
C0C0
C0C0
C0C0
C0C0
C0C0
C0C0
C0C0
C0C0
C0C0
00C0
00C0
00C0
00F8
0078
ENDCHAR
STARTCHAR uni0274
ENCODING 628
SWIDTH 552 0
DWIDTH 13 0
BBX 11 13 1 0
BITMAP
C060
E060
F060
F060
D860
CC60
CE60
C660
C360
C1E0
C1E0
C0E0
C060
ENDCHAR
STARTCHAR uni0275
ENCODING 629
SWIDTH 556 0
DWIDTH 13 0
BBX 11 13 1 0
BITMAP
1F00
3F80
71C0
E0E0
C060
FFE0
FFE0
C060
C060
E0E0
71C0
3F80
1F00
ENDCHAR
STARTCHAR uni0276
ENCODING 630
SWIDTH 790 0
DWIDTH 19 0
BBX 17 13 1 0
BITMAP
1E7F80
3FFF80
71E000
E0E000
C06000
C07F00
C07F00
C06000
C06000
E0E000
71E000
3FFF80
1E7F80
ENDCHAR
STARTCHAR uni0277
ENCODING 631
SWIDTH 780 0
DWIDTH 19 0
BBX 17 13 1 0
BITMAP
07F000
1FFC00
380E00
700700
E00380
C00180
C18180
C18180
C18180
C18380
63C300
7E7F00
3C3C00
ENDCHAR
STARTCHAR uni0278
ENCODING 632
SWIDTH 549 0
DWIDTH 13 0
BBX 12 22 0 -5
BITMAP
0600
0600
0600
0600
1F80
3FC0
76E0
E660
C630
C630
C630
C630
C630
E660
76E0
3FC0
1F80
0600
0600
0600
0600
0600
ENDCHAR
STARTCHAR uni0279
ENCODING 633
SWIDTH 333 0
DWIDTH 8 0
BBX 6 13 0 0
BITMAP
0C
0C
0C
0C
0C
0C
0C
0C
0C
0C
1C
FC
EC
ENDCHAR
STARTCHAR uni027A
ENCODING 634
SWIDTH 333 0
DWIDTH 8 0
BBX 6 17 0 0
BITMAP
0C
0C
0C
0C
0C
0C
0C
0C
0C
0C
0C
0C
0C
0C
1C
FC
EC
ENDCHAR
STARTCHAR uni027B
ENCODING 635
SWIDTH 333 0
DWIDTH 8 0
BBX 9 18 0 -5
BITMAP
0C00
0C00
0C00
0C00
0C00
0C00
0C00
0C00
0C00
0C00
1C00
FC00
EC00
0C00
0C00
0C00
0F80
0780
ENDCHAR
STARTCHAR uni027C
ENCODING 636
SWIDTH 333 0
DWIDTH 8 0
BBX 6 18 2 -5
BITMAP
DC
FC
E0
C0
C0
C0
C0
C0
C0
C0
C0
C0
C0
C0
C0
C0
C0
C0
ENDCHAR
STARTCHAR uni027D
ENCODING 637
SWIDTH 333 0
DWIDTH 8 0
BBX 6 18 2 -5
BITMAP
DC
FC
E0
C0
C0
C0
C0
C0
C0
C0
C0
C0
C0
C0
C0
C0
F8
78
ENDCHAR
STARTCHAR uni027E
ENCODING 638
SWIDTH 333 0
DWIDTH 8 0
BBX 6 13 2 0
BITMAP
3C
7C
E0
C0
C0
C0
C0
C0
C0
C0
C0
C0
C0
ENDCHAR
STARTCHAR uni027F
ENCODING 639
SWIDTH 333 0
DWIDTH 8 0
BBX 6 18 0 -5
BITMAP
F0
F8
1C
0C
0C
0C
0C
0C
0C
0C
0C
0C
0C
0C
0C
0C
0C
0C
ENDCHAR
STARTCHAR uni0280
ENCODING 640
SWIDTH 541 0
DWIDTH 13 0
BBX 11 13 2 0
BITMAP
FF00
FF80
C1C0
C0C0
C0C0
C1C0
FF80
FF00
C300
C380
C180
C0C0
C0E0
ENDCHAR
STARTCHAR uni0281
ENCODING 641
SWIDTH 541 0
DWIDTH 13 0
BBX 11 13 2 0
BITMAP
C0E0
C0C0
C180
C180
C300
FF00
FF80
C1C0
C0C0
C0C0
C1C0
FF80
FF00
ENDCHAR
STARTCHAR uni0282
ENCODING 642
SWIDTH 500 0
DWIDTH 12 0
BBX 10 18 1 -5
BITMAP
3F00
7F80
E1C0
C0C0
E000
7C00
3F80
07C0
00C0
C0C0
E1C0
FF80
DF00
C000
C000
C000
F800
7800
ENDCHAR
STARTCHAR uni0283
ENCODING 643
SWIDTH 222 0
DWIDTH 5 0
BBX 8 22 -2 -5
BITMAP
0F
1F
18
18
18
18
18
18
18
18
18
18
18
18
18
18
18
18
18
18
F8
F0
ENDCHAR
STARTCHAR uni0284
ENCODING 644
SWIDTH 259 0
DWIDTH 6 0
BBX 8 22 -1 -5
BITMAP
0F
1F
18
18
18
18
18
18
18
18
18
18
18
18
18
7E
7E
18
18
18
F8
F0
ENDCHAR
STARTCHAR uni0285
ENCODING 645
SWIDTH 222 0
DWIDTH 5 0
BBX 8 18 -2 -5
BITMAP
F0
F8
18
18
18
18
18
18
18
18
18
18
18
18
18
18
1F
0F
ENDCHAR
STARTCHAR uni0286
ENCODING 646
SWIDTH 349 0
DWIDTH 8 0
BBX 9 22 0 -5
BITMAP
0780
0F80
0C00
0C00
0C00
0C00
0C00
0C00
0C00
0C00
0C00
0C00
0C00
0C00
0C00
0C00
7C00
FC00
CE00
CF00
FF80
7900
ENDCHAR
STARTCHAR uni0287
ENCODING 647
SWIDTH 277 0
DWIDTH 7 0
BBX 6 17 1 0
BITMAP
E0
F0
30
30
30
30
30
30
30
30
30
FC
FC
30
30
30
20
ENDCHAR
STARTCHAR uni0288
ENCODING 648
SWIDTH 277 0
DWIDTH 7 0
BBX 7 22 0 -5
BITMAP
10
30
30
30
FE
FE
30
30
30
30
30
30
30
30
30
30
30
30
30
30
3E
1E
ENDCHAR
STARTCHAR uni0289
ENCODING 649
SWIDTH 556 0
DWIDTH 13 0
BBX 12 13 0 0
BITMAP
6060
6060
6060
6060
6060
FFF0
FFF0
6060
6060
60E0
71E0
3F60
1E60
ENDCHAR
STARTCHAR uni028A
ENCODING 650
SWIDTH 568 0
DWIDTH 14 0
BBX 12 13 1 0
BITMAP
E070
F0F0
30C0
30C0
6060
C030
C030
C030
C030
E070
70E0
3FC0
1F80
ENDCHAR
STARTCHAR uni028B
ENCODING 651
SWIDTH 546 0
DWIDTH 13 0
BBX 10 13 2 0
BITMAP
C780
C7C0
C0C0
C0C0
C0C0
C0C0
C0C0
C0C0
C0C0
C180
E380
7F00
3E00
ENDCHAR
STARTCHAR uni028C
ENCODING 652
SWIDTH 500 0
DWIDTH 12 0
BBX 12 13 0 0
BITMAP
0600
0600
0F00
0F00
1980
1980
1980
30C0
30C0
6060
6060
6060
C030
ENDCHAR
STARTCHAR uni028D
ENCODING 653
SWIDTH 722 0
DWIDTH 17 0
BBX 17 13 0 0
BITMAP
0C1800
1C1C00
1C1C00
1E3C00
363600
322600
336600
336600
636300
614300
61C300
C1C180
C1C180
ENDCHAR
STARTCHAR uni028E
ENCODING 654
SWIDTH 500 0
DWIDTH 12 0
BBX 12 17 0 0
BITMAP
0180
0300
0300
0600
0600
0600
0F00
0F00
1B80
1980
1980
30C0
30C0
70E0
6060
6060
C030
ENDCHAR
STARTCHAR uni028F
ENCODING 655
SWIDTH 519 0
DWIDTH 12 0
BBX 12 13 0 0
BITMAP
C030
6060
30C0
30C0
1980
0F00
0F00
0600
0600
0600
0600
0600
0600
ENDCHAR
STARTCHAR uni0290
ENCODING 656
SWIDTH 500 0
DWIDTH 12 0
BBX 12 18 1 -5
BITMAP
FFC0
FFC0
0180
0300
0600
0E00
1C00
3800
3000
6000
C000
FFC0
FFC0
00C0
00C0
00C0
00F0
0070
ENDCHAR
STARTCHAR uni0291
ENCODING 657
SWIDTH 541 0
DWIDTH 13 0
BBX 11 15 1 -2
BITMAP
FFC0
FFC0
0180
0300
0600
0E00
1C00
19C0
33E0
6660
CC60
FFE0
FFC0
1800
1000
ENDCHAR
STARTCHAR uni0292
ENCODING 658
SWIDTH 544 0
DWIDTH 13 0
BBX 11 18 1 -5
BITMAP
7FC0
7FC0
0380
0300
0600
0E00
0F00
0F80
01C0
00E0
0060
0060
0060
C060
E0C0
71C0
7F80
1F00
ENDCHAR
STARTCHAR uni0293
ENCODING 659
SWIDTH 544 0
DWIDTH 13 0
BBX 12 18 1 -5
BITMAP
FFC0
FFC0
0380
0300
0600
0E00
0F00
0F80
01C0
00E0
0060
0060
3E60
7FE0
63C0
61E0
3FF0
1F20
ENDCHAR
STARTCHAR uni0294
ENCODING 660
SWIDTH 500 0
DWIDTH 12 0
BBX 11 17 0 0
BITMAP
1F00
7F80
61C0
C0C0
C060
0060
0060
0060
0060
00C0
01C0
0F80
0F00
0C00
0C00
0C00
0C00
ENDCHAR
STARTCHAR uni0295
ENCODING 661
SWIDTH 500 0
DWIDTH 12 0
BBX 11 17 1 0
BITMAP
1F00
3FC0
70C0
E060
C060
C000
C000
C000
C000
E000
7000
3E00
1E00
0600
0600
0600
0600
ENDCHAR
STARTCHAR uni0296
ENCODING 662
SWIDTH 500 0
DWIDTH 12 0
BBX 11 17 0 0
BITMAP
0C00
0C00
0C00
0C00
0F00
0F80
01C0
00C0
0060
0060
0060
0060
C060
C0E0
61C0
7F80
1F00
ENDCHAR
STARTCHAR uni0297
ENCODING 663
SWIDTH 500 0
DWIDTH 12 0
BBX 10 18 1 -5
BITMAP
1F00
3F80
71C0
E0C0
C000
C000
C000
C000
C000
C000
C000
C000
C000
C0C0
E0C0
7180
3F80
1E00
ENDCHAR
STARTCHAR uni0298
ENCODING 664
SWIDTH 777 0
DWIDTH 19 0
BBX 17 17 1 0
BITMAP
07F000
1FFC00
3C1E00
700700
600300
E00380
C00180
C18180
C18180
C00180
C00180
E00380
600300
700700
3C1E00
1FFC00
07F000
ENDCHAR
STARTCHAR uni0299
ENCODING 665
SWIDTH 531 0
DWIDTH 13 0
BBX 10 13 2 0
BITMAP
FE00
FF00
C180
C180
C380
FF00
FF80
C1C0
C0C0
C0C0
C1C0
FF80
FF00
ENDCHAR
STARTCHAR uni029A
ENCODING 666
SWIDTH 507 0
DWIDTH 12 0
BBX 10 13 1 0
BITMAP
3E00
7F00
E380
C1C0
C0C0
78C0
78C0
E0C0
C0C0
C1C0
E380
7F00
3E00
ENDCHAR
STARTCHAR uni029B
ENCODING 667
SWIDTH 558 0
DWIDTH 13 0
BBX 13 15 1 0
BITMAP
0078
00F8
1FC0
3FC0
71C0
E0C0
C000
C000
C7C0
C7C0
C0C0
E0C0
61C0
3FC0
1F00
ENDCHAR
STARTCHAR uni029C
ENCODING 668
SWIDTH 552 0
DWIDTH 13 0
BBX 11 13 1 0
BITMAP
C060
C060
C060
C060
C060
FFE0
FFE0
C060
C060
C060
C060
C060
C060
ENDCHAR
STARTCHAR uni029D
ENCODING 669
SWIDTH 397 0
DWIDTH 10 0
BBX 10 22 0 -5
BITMAP
0300
0300
0000
0000
0300
0300
0300
0300
0300
0300
0300
0300
0300
0300
0300
0300
7FC0
FFC0
C300
C700
7E00
3C00
ENDCHAR
STARTCHAR uni029E
ENCODING 670
SWIDTH 500 0
DWIDTH 12 0
BBX 10 18 0 -5
BITMAP
E0C0
60C0
30C0
38C0
18C0
1CC0
0DC0
07C0
07C0
0EC0
1CC0
38C0
70C0
00C0
00C0
00C0
00C0
00C0
ENDCHAR
STARTCHAR uni029F
ENCODING 671
SWIDTH 403 0
DWIDTH 10 0
BBX 7 13 2 0
BITMAP
C0
C0
C0
C0
C0
C0
C0
C0
C0
C0
C0
FE
FE
ENDCHAR
STARTCHAR uni02A0
ENCODING 672
SWIDTH 556 0
DWIDTH 13 0
BBX 14 22 1 -5
BITMAP
003C
007C
0060
0060
1E60
3FE0
71E0
E0E0
C060
C060
C060
C060
C060
60E0
71E0
3FE0
1F60
0060
0060
0060
0060
0060
ENDCHAR
STARTCHAR uni02A1
ENCODING 673
SWIDTH 500 0
DWIDTH 12 0
BBX 11 17 0 0
BITMAP
1F00
7F80
61C0
C0E0
C060
0060
0060
0060
00E0
01C0
0F80
0F00
0C00
FFC0
FFC0
0C00
0C00
ENDCHAR
STARTCHAR uni02A2
ENCODING 674
SWIDTH 500 0
DWIDTH 12 0
BBX 11 17 1 0
BITMAP
1F00
3FC0
70C0
E060
C060
C000
C000
C000
E000
7000
3E00
1E00
0600
7FE0
7FE0
0600
0600
ENDCHAR
STARTCHAR uni02A3
ENCODING 675
SWIDTH 964 0
DWIDTH 23 0
BBX 21 17 1 0
BITMAP
006000
006000
006000
006000
1E7FF8
3FFFF8
71E038
E0E070
C060E0
C061C0
C06380
C06700
C06E00
60FC00
71F800
3FFFF8
1E7FF8
ENDCHAR
STARTCHAR uni02A4
ENCODING 676
SWIDTH 906 0
DWIDTH 22 0
BBX 20 22 1 -5
BITMAP
006000
006000
006000
006000
1E7FE0
3FFFE0
71E0C0
E0E180
C06300
C06700
C06780
C067C0
C060E0
60E070
71E030
3FE030
1E6030
000030
006060
0070E0
003FC0
000F80
ENDCHAR
STARTCHAR uni02A5
ENCODING 677
SWIDTH 1005 0
DWIDTH 24 0
BBX 22 19 1 -2
BITMAP
006000
006000
006000
006000
1E7FF8
3FFFF8
71E030
E0E060
C060C0
C06180
C06300
C06638
C06C7C
60F8CC
71F18C
3FFFFC
1E7FF8
000300
000200
ENDCHAR
STARTCHAR uni02A6
ENCODING 678
SWIDTH 712 0
DWIDTH 17 0
BBX 16 17 0 0
BITMAP
1000
3000
3000
3000
FFFC
FFFE
3187
3303
3300
33E0
31FC
303E
3007
3003
3007
3FFE
1FFC
ENDCHAR
STARTCHAR uni02A7
ENCODING 679
SWIDTH 429 0
DWIDTH 10 0
BBX 12 22 -1 -5
BITMAP
10F0
31F0
3180
3180
FF80
FF80
3180
3180
3180
3180
3180
3180
3180
3180
3180
3F80
1F80
0180
0180
0180
0F80
0F00
ENDCHAR
STARTCHAR uni02A8
ENCODING 680
SWIDTH 718 0
DWIDTH 17 0
BBX 16 17 0 0
BITMAP
1000
3000
3000
3000
FC7C
FCFE
31C7
3383
3300
3300
3300
331E
337F
33E3
3383
3FFE
1C7C
ENDCHAR
STARTCHAR uni02A9
ENCODING 681
SWIDTH 763 0
DWIDTH 18 0
BBX 17 22 0 -5
BITMAP
1E0000
3E0000
300000
300000
FF9E00
FFBF00
31E380
31C180
318180
318180
318180
318180
318180
318180
318180
318180
318180
000180
000180
000180
000F80
000F00
ENDCHAR
STARTCHAR uni02AA
ENCODING 682
SWIDTH 661 0
DWIDTH 16 0
BBX 13 17 2 0
BITMAP
C000
C000
C000
C000
C7E0
CFF0
DC38
D818
DC00
CF80
C7F0
C0F8
C018
C018
F038
FFF0
CFC0
ENDCHAR
STARTCHAR uni02AB
ENCODING 683
SWIDTH 632 0
DWIDTH 15 0
BBX 12 17 2 0
BITMAP
C000
C000
C000
C000
FFF0
FFF0
C060
C0C0
C180
C300
C700
C600
CC00
D800
F000
FFF0
FFF0
ENDCHAR
STARTCHAR uni02AC
ENCODING 684
SWIDTH 485 0
DWIDTH 12 0
BBX 12 17 0 0
BITMAP
C630
C630
4620
6F60
6960
39C0
30C0
30C0
0000
C630
C630
4620
6F60
6960
39C0
30C0
30C0
ENDCHAR
STARTCHAR uni02AD
ENCODING 685
SWIDTH 527 0
DWIDTH 13 0
BBX 11 17 1 0
BITMAP
FFE0
FFE0
C060
C060
C060
C060
0000
0000
0000
0000
0000
FFE0
FFE0
C060
C060
C060
C060
ENDCHAR
STARTCHAR uni02AE
ENCODING 686
SWIDTH 687 0
DWIDTH 16 0
BBX 14 18 0 -5
BITMAP
F00C
F80C
1C0C
0C0C
0C0C
0C0C
0C0C
0C0C
0C0C
0C1C
0E3C
07EC
03CC
000C
000C
000C
000C
000C
ENDCHAR
STARTCHAR uni02AF
ENCODING 687
SWIDTH 687 0
DWIDTH 16 0
BBX 19 18 0 -5
BITMAP
F00C00
F80C00
1C0C00
0C0C00
0C0C00
0C0C00
0C0C00
0C0C00
0C0C00
0C1C00
0E3C00
07EC00
03CC00
000C00
000C00
000600
0007E0
0003E0
ENDCHAR
STARTCHAR uni02B0
ENCODING 688
SWIDTH 383 0
DWIDTH 9 0
BBX 7 12 1 5
BITMAP
80
80
80
BC
C6
82
82
82
82
82
82
82
ENDCHAR
STARTCHAR uni02B1
ENCODING 689
SWIDTH 383 0
DWIDTH 9 0
BBX 7 12 1 5
BITMAP
60
80
80
BC
C6
82
82
82
82
82
82
82
ENDCHAR
STARTCHAR uni02B2
ENCODING 690
SWIDTH 159 0
DWIDTH 4 0
BBX 3 15 0 2
BITMAP
20
20
00
20
20
20
20
20
20
20
20
20
20
20
C0
ENDCHAR
STARTCHAR uni02B3
ENCODING 691
SWIDTH 239 0
DWIDTH 6 0
BBX 5 9 1 5
BITMAP
B8
C0
80
80
80
80
80
80
80
ENDCHAR
STARTCHAR uni02B4
ENCODING 692
SWIDTH 239 0
DWIDTH 6 0
BBX 5 9 0 5
BITMAP
08
08
08
08
08
08
08
18
E8
ENDCHAR
STARTCHAR uni02B5
ENCODING 693
SWIDTH 239 0
DWIDTH 6 0
BBX 7 12 0 2
BITMAP
08
08
08
08
08
08
08
18
E8
08
08
06
ENDCHAR
STARTCHAR uni02B6
ENCODING 694
SWIDTH 364 0
DWIDTH 9 0
BBX 8 9 1 5
BITMAP
81
82
82
84
FC
82
82
82
FC
ENDCHAR
STARTCHAR uni02B7
ENCODING 695
SWIDTH 480 0
DWIDTH 12 0
BBX 12 9 0 5
BITMAP
8210
4620
4520
4520
2940
2940
2940
1080
1080
ENDCHAR
STARTCHAR uni02B8
ENCODING 696
SWIDTH 320 0
DWIDTH 8 0
BBX 8 12 0 2
BITMAP
81
42
42
42
24
24
2C
18
18
10
10
60
ENDCHAR
STARTCHAR uni02B9
ENCODING 697
SWIDTH 190 0
DWIDTH 5 0
BBX 2 6 1 11
BITMAP
C0
C0
C0
C0
C0
C0
ENDCHAR
STARTCHAR uni02BA
ENCODING 698
SWIDTH 354 0
DWIDTH 9 0
BBX 6 6 1 11
BITMAP
CC
CC
CC
CC
CC
CC
ENDCHAR
STARTCHAR uni02BB
ENCODING 699
SWIDTH 222 0
DWIDTH 5 0
BBX 2 6 2 11
BITMAP
40
C0
80
80
C0
C0
ENDCHAR
STARTCHAR uni02BC
ENCODING 700
SWIDTH 222 0
DWIDTH 5 0
BBX 2 6 1 11
BITMAP
C0
C0
40
40
C0
80
ENDCHAR
STARTCHAR uni02BD
ENCODING 701
SWIDTH 222 0
DWIDTH 5 0
BBX 2 6 2 11
BITMAP
C0
C0
80
80
C0
40
ENDCHAR
STARTCHAR uni02BE
ENCODING 702
SWIDTH 333 0
DWIDTH 8 0
BBX 2 4 3 14
BITMAP
80
40
40
80
ENDCHAR
STARTCHAR uni02BF
ENCODING 703
SWIDTH 333 0
DWIDTH 8 0
BBX 2 4 3 14
BITMAP
40
80
80
40
ENDCHAR
STARTCHAR uni02C0
ENCODING 704
SWIDTH 348 0
DWIDTH 8 0
BBX 7 12 0 5
BITMAP
38
44
82
02
02
02
02
04
18
10
10
10
ENDCHAR
STARTCHAR uni02C1
ENCODING 705
SWIDTH 348 0
DWIDTH 8 0
BBX 7 12 1 5
BITMAP
38
44
82
80
80
80
80
40
30
10
10
10
ENDCHAR
STARTCHAR uni02C2
ENCODING 706
SWIDTH 583 0
DWIDTH 14 0
BBX 11 11 1 3
BITMAP
0020
00E0
07C0
1E00
7800
C000
7800
1E00
03C0
00E0
0020
ENDCHAR
STARTCHAR uni02C3
ENCODING 707
SWIDTH 583 0
DWIDTH 14 0
BBX 11 11 1 3
BITMAP
8000
E000
7800
0F00
03C0
0060
03C0
0F00
7C00
E000
8000
ENDCHAR
STARTCHAR uni02C4
ENCODING 708
SWIDTH 583 0
DWIDTH 14 0
BBX 11 11 1 3
BITMAP
0400
0E00
0A00
1B00
1B00
3180
3180
2080
60C0
60C0
C060
ENDCHAR
STARTCHAR uni02C5
ENCODING 709
SWIDTH 583 0
DWIDTH 14 0
BBX 11 11 1 3
BITMAP
C060
60C0
60C0
2080
3180
3180
1B00
1B00
0A00
0E00
0400
ENDCHAR
STARTCHAR circumflex
ENCODING 710
SWIDTH 333 0
DWIDTH 8 0
BBX 6 3 1 14
BITMAP
30
78
CC
ENDCHAR
STARTCHAR caron
ENCODING 711
SWIDTH 333 0
DWIDTH 8 0
BBX 6 3 1 14
BITMAP
CC
78
30
ENDCHAR
STARTCHAR uni02C8
ENCODING 712
SWIDTH 333 0
DWIDTH 8 0
BBX 1 4 3 14
BITMAP
80
80
80
80
ENDCHAR
STARTCHAR uni02C9
ENCODING 713
SWIDTH 333 0
DWIDTH 8 0
BBX 7 2 0 14
BITMAP
FE
FE
ENDCHAR
STARTCHAR uni02CA
ENCODING 714
SWIDTH 333 0
DWIDTH 8 0
BBX 4 3 3 14
BITMAP
70
60
C0
ENDCHAR
STARTCHAR uni02CB
ENCODING 715
SWIDTH 333 0
DWIDTH 8 0
BBX 4 3 1 14
BITMAP
E0
60
30
ENDCHAR
STARTCHAR uni02CC
ENCODING 716
SWIDTH 333 0
DWIDTH 8 0
BBX 1 4 3 -5
BITMAP
80
80
80
80
ENDCHAR
STARTCHAR uni02CD
ENCODING 717
SWIDTH 333 0
DWIDTH 8 0
BBX 8 2 0 -4
BITMAP
FF
FF
ENDCHAR
STARTCHAR uni02CE
ENCODING 718
SWIDTH 333 0
DWIDTH 8 0
BBX 4 3 1 -5
BITMAP
E0
60
30
ENDCHAR
STARTCHAR uni02CF
ENCODING 719
SWIDTH 333 0
DWIDTH 8 0
BBX 4 3 3 -5
BITMAP
70
60
C0
ENDCHAR
STARTCHAR uni02D0
ENCODING 720
SWIDTH 277 0
DWIDTH 7 0
BBX 3 13 2 0
BITMAP
E0
40
00
00
00
00
00
00
00
00
00
40
E0
ENDCHAR
STARTCHAR uni02D1
ENCODING 721
SWIDTH 277 0
DWIDTH 7 0
BBX 3 2 2 11
BITMAP
E0
40
ENDCHAR
STARTCHAR uni02D2
ENCODING 722
SWIDTH 333 0
DWIDTH 8 0
BBX 2 4 3 1
BITMAP
80
40
40
80
ENDCHAR
STARTCHAR uni02D3
ENCODING 723
SWIDTH 333 0
DWIDTH 8 0
BBX 2 4 3 1
BITMAP
40
80
80
40
ENDCHAR
STARTCHAR uni02D4
ENCODING 724
SWIDTH 333 0
DWIDTH 8 0
BBX 3 3 2 2
BITMAP
40
40
E0
ENDCHAR
STARTCHAR uni02D5
ENCODING 725
SWIDTH 333 0
DWIDTH 8 0
BBX 3 3 2 2
BITMAP
E0
40
40
ENDCHAR
STARTCHAR uni02D6
ENCODING 726
SWIDTH 333 0
DWIDTH 8 0
BBX 3 3 2 2
BITMAP
40
E0
40
ENDCHAR
STARTCHAR uni02D7
ENCODING 727
SWIDTH 333 0
DWIDTH 8 0
BBX 8 2 0 3
BITMAP
FF
FF
ENDCHAR
STARTCHAR breve
ENCODING 728
SWIDTH 333 0
DWIDTH 8 0
BBX 7 3 0 14
BITMAP
82
C6
7C
ENDCHAR
STARTCHAR dotaccent
ENCODING 729
SWIDTH 333 0
DWIDTH 8 0
BBX 2 2 3 15
BITMAP
C0
C0
ENDCHAR
STARTCHAR ring
ENCODING 730
SWIDTH 333 0
DWIDTH 8 0
BBX 5 5 2 12
BITMAP
70
88
88
88
70
ENDCHAR
STARTCHAR ogonek
ENCODING 731
SWIDTH 333 0
DWIDTH 8 0
BBX 3 5 2 -5
BITMAP
40
80
80
80
60
ENDCHAR
STARTCHAR tilde
ENCODING 732
SWIDTH 333 0
DWIDTH 8 0
BBX 8 3 0 14
BITMAP
73
FF
CE
ENDCHAR
STARTCHAR hungarumlaut
ENCODING 733
SWIDTH 333 0
DWIDTH 8 0
BBX 8 3 1 14
BITMAP
33
66
CC
ENDCHAR
STARTCHAR uni02DE
ENCODING 734
SWIDTH 333 0
DWIDTH 8 0
BBX 6 5 0 4
BITMAP
E0
E0
64
7C
3C
ENDCHAR
STARTCHAR uni02DF
ENCODING 735
SWIDTH 333 0
DWIDTH 8 0
BBX 7 7 0 10
BITMAP
82
44
28
10
28
44
82
ENDCHAR
STARTCHAR uni02E0
ENCODING 736
SWIDTH 322 0
DWIDTH 8 0
BBX 8 12 0 2
BITMAP
81
42
42
24
24
18
18
18
18
24
24
18
ENDCHAR
STARTCHAR uni02E1
ENCODING 737
SWIDTH 157 0
DWIDTH 4 0
BBX 1 12 1 5
BITMAP
80
80
80
80
80
80
80
80
80
80
80
80
ENDCHAR
STARTCHAR uni02E2
ENCODING 738
SWIDTH 339 0
DWIDTH 8 0
BBX 6 9 1 5
BITMAP
78
84
80
C0
30
0C
04
84
78
ENDCHAR
STARTCHAR uni02E3
ENCODING 739
SWIDTH 328 0
DWIDTH 8 0
BBX 7 9 0 5
BITMAP
82
44
28
28
10
28
28
44
82
ENDCHAR
STARTCHAR uni02E4
ENCODING 740
SWIDTH 348 0
DWIDTH 8 0
BBX 7 12 1 5
BITMAP
38
44
82
80
80
80
80
40
30
10
10
10
ENDCHAR
STARTCHAR uni02E5
ENCODING 741
SWIDTH 382 0
DWIDTH 9 0
BBX 5 17 2 0
BITMAP
F8
F8
18
18
18
18
18
18
18
18
18
18
18
18
18
18
18
ENDCHAR
STARTCHAR uni02E6
ENCODING 742
SWIDTH 382 0
DWIDTH 9 0
BBX 5 17 2 0
BITMAP
18
18
18
18
F8
F8
18
18
18
18
18
18
18
18
18
18
18
ENDCHAR
STARTCHAR uni02E7
ENCODING 743
SWIDTH 382 0
DWIDTH 9 0
BBX 5 17 2 0
BITMAP
18
18
18
18
18
18
18
F8
F8
18
18
18
18
18
18
18
18
ENDCHAR
STARTCHAR uni02E8
ENCODING 744
SWIDTH 382 0
DWIDTH 9 0
BBX 5 17 2 0
BITMAP
18
18
18
18
18
18
18
18
18
18
18
F8
F8
18
18
18
18
ENDCHAR
STARTCHAR uni02E9
ENCODING 745
SWIDTH 382 0
DWIDTH 9 0
BBX 5 17 2 0
BITMAP
18
18
18
18
18
18
18
18
18
18
18
18
18
18
18
F8
F8
ENDCHAR
STARTCHAR uni02EA
ENCODING 746
SWIDTH 333 0
DWIDTH 8 0
BBX 6 10 1 0
BITMAP
80
80
80
80
80
80
80
80
80
FC
ENDCHAR
STARTCHAR uni02EB
ENCODING 747
SWIDTH 333 0
DWIDTH 8 0
BBX 6 10 1 0
BITMAP
80
80
80
80
80
FC
80
80
80
80
ENDCHAR
STARTCHAR uni02EC
ENCODING 748
SWIDTH 333 0
DWIDTH 8 0
BBX 6 3 1 -5
BITMAP
CC
78
30
ENDCHAR
STARTCHAR uni02ED
ENCODING 749
SWIDTH 333 0
DWIDTH 8 0
BBX 8 5 0 14
BITMAP
FF
FF
00
FF
FF
ENDCHAR
STARTCHAR uni02EE
ENCODING 750
SWIDTH 333 0
DWIDTH 8 0
BBX 5 6 2 11
BITMAP
D8
D8
48
48
D8
90
ENDCHAR
STARTCHAR uni02EF
ENCODING 751
SWIDTH 333 0
DWIDTH 8 0
BBX 5 3 2 -4
BITMAP
88
50
20
ENDCHAR
STARTCHAR uni02F0
ENCODING 752
SWIDTH 333 0
DWIDTH 8 0
BBX 5 3 2 -4
BITMAP
20
50
88
ENDCHAR
STARTCHAR uni02F1
ENCODING 753
SWIDTH 333 0
DWIDTH 8 0
BBX 3 5 2 -5
BITMAP
20
40
80
40
20
ENDCHAR
STARTCHAR uni02F2
ENCODING 754
SWIDTH 333 0
DWIDTH 8 0
BBX 3 5 2 -5
BITMAP
80
40
20
40
80
ENDCHAR
STARTCHAR uni02F3
ENCODING 755
SWIDTH 333 0
DWIDTH 8 0
BBX 4 4 2 -5
BITMAP
60
90
90
60
ENDCHAR
STARTCHAR uni02F4
ENCODING 756
SWIDTH 333 0
DWIDTH 8 0
BBX 4 3 1 2
BITMAP
E0
60
30
ENDCHAR
STARTCHAR uni02F5
ENCODING 757
SWIDTH 333 0
DWIDTH 8 0
BBX 8 3 0 2
BITMAP
CC
66
33
ENDCHAR
STARTCHAR uni02F6
ENCODING 758
SWIDTH 333 0
DWIDTH 8 0
BBX 8 3 0 2
BITMAP
77
66
CC
ENDCHAR
STARTCHAR uni02F7
ENCODING 759
SWIDTH 333 0
DWIDTH 8 0
BBX 8 3 0 -5
BITMAP
73
FF
CE
ENDCHAR
STARTCHAR uni02F8
ENCODING 760
SWIDTH 277 0
DWIDTH 7 0
BBX 2 12 2 5
BITMAP
C0
C0
00
00
00
00
00
00
00
00
C0
C0
ENDCHAR
STARTCHAR uni02F9
ENCODING 761
SWIDTH 333 0
DWIDTH 8 0
BBX 3 3 2 14
BITMAP
E0
80
80
ENDCHAR
STARTCHAR uni02FA
ENCODING 762
SWIDTH 333 0
DWIDTH 8 0
BBX 3 3 2 14
BITMAP
E0
20
20
ENDCHAR
STARTCHAR uni02FB
ENCODING 763
SWIDTH 333 0
DWIDTH 8 0
BBX 3 3 2 -4
BITMAP
80
80
E0
ENDCHAR
STARTCHAR uni02FC
ENCODING 764
SWIDTH 333 0
DWIDTH 8 0
BBX 3 3 3 -4
BITMAP
20
20
E0
ENDCHAR
STARTCHAR uni02FD
ENCODING 765
SWIDTH 397 0
DWIDTH 10 0
BBX 9 4 0 -5
BITMAP
C180
C180
FF80
FF80
ENDCHAR
STARTCHAR uni02FE
ENCODING 766
SWIDTH 397 0
DWIDTH 10 0
BBX 9 4 0 -5
BITMAP
C000
C000
FF80
FF80
ENDCHAR
STARTCHAR uni02FF
ENCODING 767
SWIDTH 333 0
DWIDTH 8 0
BBX 7 7 1 -5
BITMAP
20
40
40
FE
40
40
20
ENDCHAR
STARTCHAR gravecomb
ENCODING 768
SWIDTH 0 0
DWIDTH 0 0
BBX 5 3 -6 18
BITMAP
E0
70
38
ENDCHAR
STARTCHAR acutecomb
ENCODING 769
SWIDTH 0 0
DWIDTH 0 0
BBX 5 3 -5 18
BITMAP
38
70
E0
ENDCHAR
STARTCHAR uni0302
ENCODING 770
SWIDTH 0 0
DWIDTH 0 0
BBX 6 3 -3 14
BITMAP
30
78
CC
ENDCHAR
STARTCHAR tildecomb
ENCODING 771
SWIDTH 0 0
DWIDTH 0 0
BBX 9 3 -11 18
BITMAP
7180
FF80
C700
ENDCHAR
STARTCHAR uni0304
ENCODING 772
SWIDTH 0 0
DWIDTH 0 0
BBX 7 2 -4 14
BITMAP
FE
FE
ENDCHAR
STARTCHAR uni0305
ENCODING 773
SWIDTH 0 0
DWIDTH 0 0
BBX 14 2 -7 18
BITMAP
FFFC
FFFC
ENDCHAR
STARTCHAR uni0306
ENCODING 774
SWIDTH 0 0
DWIDTH 0 0
BBX 7 3 -3 14
BITMAP
82
C6
7C
ENDCHAR
STARTCHAR uni0307
ENCODING 775
SWIDTH 0 0
DWIDTH 0 0
BBX 2 2 -1 14
BITMAP
C0
C0
ENDCHAR
STARTCHAR uni0308
ENCODING 776
SWIDTH 0 0
DWIDTH 0 0
BBX 6 2 -3 14
BITMAP
CC
CC
ENDCHAR
STARTCHAR hookabovecomb
ENCODING 777
SWIDTH 0 0
DWIDTH 0 0
BBX 5 3 -6 18
BITMAP
F0
18
30
ENDCHAR
STARTCHAR uni030A
ENCODING 778
SWIDTH 0 0
DWIDTH 0 0
BBX 5 5 -2 14
BITMAP
70
88
88
88
70
ENDCHAR
STARTCHAR uni030B
ENCODING 779
SWIDTH 0 0
DWIDTH 0 0
BBX 8 3 -4 14
BITMAP
77
66
CC
ENDCHAR
STARTCHAR uni030C
ENCODING 780
SWIDTH 0 0
DWIDTH 0 0
BBX 6 3 -3 14
BITMAP
CC
78
30
ENDCHAR
STARTCHAR uni030D
ENCODING 781
SWIDTH 0 0
DWIDTH 0 0
BBX 1 4 -1 14
BITMAP
80
80
80
80
ENDCHAR
STARTCHAR uni030E
ENCODING 782
SWIDTH 0 0
DWIDTH 0 0
BBX 3 4 -1 14
BITMAP
A0
A0
A0
A0
ENDCHAR
STARTCHAR uni030F
ENCODING 783
SWIDTH 0 0
DWIDTH 0 0
BBX 8 3 -4 14
BITMAP
CC
66
33
ENDCHAR
STARTCHAR uni0310
ENCODING 784
SWIDTH 0 0
DWIDTH 0 0
BBX 7 5 -3 14
BITMAP
30
30
82
C6
7C
ENDCHAR
STARTCHAR uni0311
ENCODING 785
SWIDTH 0 0
DWIDTH 0 0
BBX 7 3 -3 14
BITMAP
7C
C6
82
ENDCHAR
STARTCHAR uni0312
ENCODING 786
SWIDTH 0 0
DWIDTH 0 0
BBX 2 6 -1 11
BITMAP
40
C0
80
80
C0
C0
ENDCHAR
STARTCHAR uni0313
ENCODING 787
SWIDTH 0 0
DWIDTH 0 0
BBX 2 6 -1 11
BITMAP
C0
C0
40
40
C0
80
ENDCHAR
STARTCHAR uni0314
ENCODING 788
SWIDTH 0 0
DWIDTH 0 0
BBX 2 6 -1 11
BITMAP
C0
C0
80
80
C0
40
ENDCHAR
STARTCHAR uni0315
ENCODING 789
SWIDTH 0 0
DWIDTH 0 0
BBX 2 6 0 11
BITMAP
C0
C0
40
40
C0
80
ENDCHAR
STARTCHAR uni0316
ENCODING 790
SWIDTH 0 0
DWIDTH 0 0
BBX 4 3 -3 -5
BITMAP
E0
60
30
ENDCHAR
STARTCHAR uni0317
ENCODING 791
SWIDTH 0 0
DWIDTH 0 0
BBX 4 3 -2 -5
BITMAP
70
60
C0
ENDCHAR
STARTCHAR uni0318
ENCODING 792
SWIDTH 0 0
DWIDTH 0 0
BBX 3 3 -1 -4
BITMAP
20
E0
20
ENDCHAR
STARTCHAR uni0319
ENCODING 793
SWIDTH 0 0
DWIDTH 0 0
BBX 3 3 -2 -4
BITMAP
80
E0
80
ENDCHAR
STARTCHAR uni031A
ENCODING 794
SWIDTH 0 0
DWIDTH 0 0
BBX 9 5 -4 14
BITMAP
FF80
FF80
0180
0180
0180
ENDCHAR
STARTCHAR uni031B
ENCODING 795
SWIDTH 0 0
DWIDTH 0 0
BBX 3 6 0 11
BITMAP
60
60
20
20
60
C0
ENDCHAR
STARTCHAR uni031C
ENCODING 796
SWIDTH 0 0
DWIDTH 0 0
BBX 2 4 -1 -5
BITMAP
40
80
80
40
ENDCHAR
STARTCHAR uni031D
ENCODING 797
SWIDTH 0 0
DWIDTH 0 0
BBX 3 3 -2 -4
BITMAP
40
40
E0
ENDCHAR
STARTCHAR uni031E
ENCODING 798
SWIDTH 0 0
DWIDTH 0 0
BBX 3 3 -2 -4
BITMAP
E0
40
40
ENDCHAR
STARTCHAR uni031F
ENCODING 799
SWIDTH 0 0
DWIDTH 0 0
BBX 3 3 -2 -4
BITMAP
40
E0
40
ENDCHAR
STARTCHAR uni0320
ENCODING 800
SWIDTH 0 0
DWIDTH 0 0
BBX 7 2 -4 -4
BITMAP
FE
FE
ENDCHAR
STARTCHAR uni0321
ENCODING 801
SWIDTH 0 0
DWIDTH 0 0
BBX 5 7 -3 -5
BITMAP
18
18
18
18
18
F8
F0
ENDCHAR
STARTCHAR uni0322
ENCODING 802
SWIDTH 0 0
DWIDTH 0 0
BBX 5 7 0 -5
BITMAP
C0
C0
C0
C0
C0
F8
78
ENDCHAR
STARTCHAR dotbelowcomb
ENCODING 803
SWIDTH 0 0
DWIDTH 0 0
BBX 2 2 -9 -3
BITMAP
C0
C0
ENDCHAR
STARTCHAR uni0324
ENCODING 804
SWIDTH 0 0
DWIDTH 0 0
BBX 6 2 -3 -5
BITMAP
CC
CC
ENDCHAR
STARTCHAR uni0325
ENCODING 805
SWIDTH 0 0
DWIDTH 0 0
BBX 4 4 -2 -5
BITMAP
60
90
90
60
ENDCHAR
STARTCHAR uni0326
ENCODING 806
SWIDTH 0 0
DWIDTH 0 0
BBX 2 4 -1 -5
BITMAP
C0
C0
40
80
ENDCHAR
STARTCHAR uni0327
ENCODING 807
SWIDTH 0 0
DWIDTH 0 0
BBX 5 4 -3 -4
BITMAP
20
30
18
F0
ENDCHAR
STARTCHAR uni0328
ENCODING 808
SWIDTH 0 0
DWIDTH 0 0
BBX 3 5 -1 -5
BITMAP
40
80
80
80
60
ENDCHAR
STARTCHAR uni0329
ENCODING 809
SWIDTH 0 0
DWIDTH 0 0
BBX 1 4 -1 -5
BITMAP
80
80
80
80
ENDCHAR
STARTCHAR uni032A
ENCODING 810
SWIDTH 0 0
DWIDTH 0 0
BBX 9 4 -5 -5
BITMAP
FF80
FF80
C180
C180
ENDCHAR
STARTCHAR uni032B
ENCODING 811
SWIDTH 0 0
DWIDTH 0 0
BBX 7 2 -3 -3
BITMAP
92
6C
ENDCHAR
STARTCHAR uni032C
ENCODING 812
SWIDTH 0 0
DWIDTH 0 0
BBX 6 3 -3 -5
BITMAP
CC
78
30
ENDCHAR
STARTCHAR uni032D
ENCODING 813
SWIDTH 0 0
DWIDTH 0 0
BBX 6 3 -3 -5
BITMAP
30
78
CC
ENDCHAR
STARTCHAR uni032E
ENCODING 814
SWIDTH 0 0
DWIDTH 0 0
BBX 7 3 -3 -5
BITMAP
82
C6
7C
ENDCHAR
STARTCHAR uni032F
ENCODING 815
SWIDTH 0 0
DWIDTH 0 0
BBX 7 3 -3 -5
BITMAP
7C
C6
82
ENDCHAR
STARTCHAR uni0330
ENCODING 816
SWIDTH 0 0
DWIDTH 0 0
BBX 8 3 -4 -5
BITMAP
73
FF
CE
ENDCHAR
STARTCHAR uni0331
ENCODING 817
SWIDTH 0 0
DWIDTH 0 0
BBX 7 2 -4 -4
BITMAP
FE
FE
ENDCHAR
STARTCHAR uni0332
ENCODING 818
SWIDTH 0 0
DWIDTH 0 0
BBX 14 2 -7 -5
BITMAP
FFFC
FFFC
ENDCHAR
STARTCHAR uni0333
ENCODING 819
SWIDTH 0 0
DWIDTH 0 0
BBX 7 3 -4 -6
BITMAP
FE
00
FE
ENDCHAR
STARTCHAR uni0334
ENCODING 820
SWIDTH 0 0
DWIDTH 0 0
BBX 8 3 -4 3
BITMAP
73
FF
CE
ENDCHAR
STARTCHAR uni0335
ENCODING 821
SWIDTH 0 0
DWIDTH 0 0
BBX 7 2 -4 3
BITMAP
FE
FE
ENDCHAR
STARTCHAR uni0336
ENCODING 822
SWIDTH 0 0
DWIDTH 0 0
BBX 14 2 -7 3
BITMAP
FFFC
FFFC
ENDCHAR
STARTCHAR uni0337
ENCODING 823
SWIDTH 0 0
DWIDTH 0 0
BBX 10 11 -6 0
BITMAP
0040
00C0
0180
0300
0600
0C00
1800
3000
6000
C000
8000
ENDCHAR
STARTCHAR uni0338
ENCODING 824
SWIDTH 0 0
DWIDTH 0 0
BBX 7 17 -3 0
BITMAP
06
06
0C
0C
0C
18
18
18
38
30
30
30
60
60
60
C0
C0
ENDCHAR
STARTCHAR uni0339
ENCODING 825
SWIDTH 0 0
DWIDTH 0 0
BBX 2 4 -1 -5
BITMAP
80
40
40
80
ENDCHAR
STARTCHAR uni033A
ENCODING 826
SWIDTH 0 0
DWIDTH 0 0
BBX 9 4 -5 -5
BITMAP
C180
C180
FF80
FF80
ENDCHAR
STARTCHAR uni033B
ENCODING 827
SWIDTH 0 0
DWIDTH 0 0
BBX 4 4 -2 -5
BITMAP
F0
90
90
F0
ENDCHAR
STARTCHAR uni033C
ENCODING 828
SWIDTH 0 0
DWIDTH 0 0
BBX 7 3 -3 -4
BITMAP
6C
92
10
ENDCHAR
STARTCHAR uni033D
ENCODING 829
SWIDTH 0 0
DWIDTH 0 0
BBX 5 5 -3 14
BITMAP
50
F8
70
F8
50
ENDCHAR
STARTCHAR uni033E
ENCODING 830
SWIDTH 0 0
DWIDTH 0 0
BBX 2 6 -1 14
BITMAP
40
80
80
40
40
80
ENDCHAR
STARTCHAR uni033F
ENCODING 831
SWIDTH 0 0
DWIDTH 0 0
BBX 14 3 -7 18
BITMAP
FFFC
0000
FFFC
ENDCHAR
STARTCHAR uni0340
ENCODING 832
SWIDTH 0 0
DWIDTH 0 0
BBX 4 3 -4 14
BITMAP
E0
60
30
ENDCHAR
STARTCHAR uni0341
ENCODING 833
SWIDTH 0 0
DWIDTH 0 0
BBX 4 3 0 14
BITMAP
70
60
C0
ENDCHAR
STARTCHAR uni0342
ENCODING 834
SWIDTH 0 0
DWIDTH 0 0
BBX 8 3 -4 14
BITMAP
73
FF
CE
ENDCHAR
STARTCHAR uni0343
ENCODING 835
SWIDTH 0 0
DWIDTH 0 0
BBX 2 6 -1 11
BITMAP
C0
C0
40
40
C0
80
ENDCHAR
STARTCHAR uni0344
ENCODING 836
SWIDTH 0 0
DWIDTH 0 0
BBX 8 3 -4 14
BITMAP
0C
DB
D3
ENDCHAR
STARTCHAR uni0345
ENCODING 837
SWIDTH 0 0
DWIDTH 0 0
BBX 2 4 -1 -5
BITMAP
C0
C0
C0
C0
ENDCHAR
STARTCHAR uni0346
ENCODING 838
SWIDTH 0 0
DWIDTH 0 0
BBX 9 4 -5 14
BITMAP
FF80
FF80
C180
C180
ENDCHAR
STARTCHAR uni0347
ENCODING 839
SWIDTH 0 0
DWIDTH 0 0
BBX 11 3 -6 -6
BITMAP
FFE0
0000
FFE0
ENDCHAR
STARTCHAR uni0348
ENCODING 840
SWIDTH 0 0
DWIDTH 0 0
BBX 3 4 -1 -5
BITMAP
A0
A0
A0
A0
ENDCHAR
STARTCHAR uni0349
ENCODING 841
SWIDTH 0 0
DWIDTH 0 0
BBX 3 3 -2 -4
BITMAP
E0
20
20
ENDCHAR
STARTCHAR uni034A
ENCODING 842
SWIDTH 0 0
DWIDTH 0 0
BBX 8 5 -4 13
BITMAP
08
7B
FF
DE
10
ENDCHAR
STARTCHAR uni034B
ENCODING 843
SWIDTH 0 0
DWIDTH 0 0
BBX 8 7 -4 14
BITMAP
18
18
73
FF
CE
18
18
ENDCHAR
STARTCHAR uni034C
ENCODING 844
SWIDTH 0 0
DWIDTH 0 0
BBX 8 6 -4 14
BITMAP
73
FF
CE
73
FF
CE
ENDCHAR
STARTCHAR uni034D
ENCODING 845
SWIDTH 0 0
DWIDTH 0 0
BBX 7 3 -3 -4
BITMAP
44
FE
44
ENDCHAR
STARTCHAR uni034E
ENCODING 846
SWIDTH 0 0
DWIDTH 0 0
BBX 3 4 -2 -5
BITMAP
40
E0
40
40
ENDCHAR
STARTCHAR uni034F
ENCODING 847
SWIDTH 0 0
DWIDTH 0 0
BBX 18 17 -9 0
BITMAP
F1E3C0
800040
800040
82A040
000000
080800
000000
900240
800040
900240
000000
100200
000000
880840
82A040
800040
F1E3C0
ENDCHAR
STARTCHAR uni0350
ENCODING 848
SWIDTH 0 0
DWIDTH 0 0
BBX 3 5 -2 14
BITMAP
80
40
20
40
80
ENDCHAR
STARTCHAR uni0351
ENCODING 849
SWIDTH 0 0
DWIDTH 0 0
BBX 2 4 -1 14
BITMAP
40
80
80
40
ENDCHAR
STARTCHAR uni0352
ENCODING 850
SWIDTH 0 0
DWIDTH 0 0
BBX 7 5 -3 14
BITMAP
7C
C6
82
30
30
ENDCHAR
STARTCHAR uni0353
ENCODING 851
SWIDTH 0 0
DWIDTH 0 0
BBX 5 5 -3 -5
BITMAP
50
F8
70
F8
50
ENDCHAR
STARTCHAR uni0354
ENCODING 852
SWIDTH 0 0
DWIDTH 0 0
BBX 3 5 -2 -5
BITMAP
20
40
80
40
20
ENDCHAR
STARTCHAR uni0355
ENCODING 853
SWIDTH 0 0
DWIDTH 0 0
BBX 3 5 -2 -5
BITMAP
80
40
20
40
80
ENDCHAR
STARTCHAR uni0356
ENCODING 854
SWIDTH 0 0
DWIDTH 0 0
BBX 8 5 -3 -5
BITMAP
80
44
2A
51
80
ENDCHAR
STARTCHAR uni0357
ENCODING 855
SWIDTH 0 0
DWIDTH 0 0
BBX 2 4 -1 14
BITMAP
80
40
40
80
ENDCHAR
STARTCHAR uni0358
ENCODING 856
SWIDTH 0 0
DWIDTH 0 0
BBX 1 1 3 14
BITMAP
80
ENDCHAR
STARTCHAR uni0359
ENCODING 857
SWIDTH 0 0
DWIDTH 0 0
BBX 5 4 -2 -5
BITMAP
20
F8
20
50
ENDCHAR
STARTCHAR uni035A
ENCODING 858
SWIDTH 0 0
DWIDTH 0 0
BBX 7 4 -3 -5
BITMAP
6C
92
92
6C
ENDCHAR
STARTCHAR uni035B
ENCODING 859
SWIDTH 0 0
DWIDTH 0 0
BBX 4 5 -2 14
BITMAP
40
80
F0
10
20
ENDCHAR
STARTCHAR uni035C
ENCODING 860
SWIDTH 0 0
DWIDTH 0 0
BBX 19 4 -2 -5
BITMAP
800020
6000C0
180300
07FC00
ENDCHAR
STARTCHAR uni035D
ENCODING 861
SWIDTH 0 0
DWIDTH 0 0
BBX 19 4 -2 14
BITMAP
800020
6000C0
180300
07FC00
ENDCHAR
STARTCHAR uni035E
ENCODING 862
SWIDTH 0 0
DWIDTH 0 0
BBX 14 2 -2 15
BITMAP
FFFC
FFFC
ENDCHAR
STARTCHAR uni035F
ENCODING 863
SWIDTH 0 0
DWIDTH 0 0
BBX 14 2 -2 -4
BITMAP
FFFC
FFFC
ENDCHAR
STARTCHAR uni0360
ENCODING 864
SWIDTH 0 0
DWIDTH 0 0
BBX 19 4 -1 14
BITMAP
1E0020
61C040
4030C0
800F00
ENDCHAR
STARTCHAR uni0361
ENCODING 865
SWIDTH 0 0
DWIDTH 0 0
BBX 19 4 -2 14
BITMAP
07FC00
180300
6000C0
800020
ENDCHAR
STARTCHAR uni0362
ENCODING 866
SWIDTH 0 0
DWIDTH 0 0
BBX 14 3 -2 -4
BITMAP
0008
FFFC
0008
ENDCHAR
STARTCHAR uni0363
ENCODING 867
SWIDTH 0 0
DWIDTH 0 0
BBX 7 9 -4 5
BITMAP
3C
42
82
0E
72
82
82
86
7A
ENDCHAR
STARTCHAR uni0364
ENCODING 868
SWIDTH 0 0
DWIDTH 0 0
BBX 7 9 -4 5
BITMAP
38
44
82
82
FE
80
80
46
3C
ENDCHAR
STARTCHAR uni0365
ENCODING 869
SWIDTH 0 0
DWIDTH 0 0
BBX 1 12 -1 5
BITMAP
80
80
00
80
80
80
80
80
80
80
80
80
ENDCHAR
STARTCHAR uni0366
ENCODING 870
SWIDTH 0 0
DWIDTH 0 0
BBX 7 9 -4 5
BITMAP
38
44
82
82
82
82
82
44
38
ENDCHAR
STARTCHAR uni0367
ENCODING 871
SWIDTH 0 0
DWIDTH 0 0
BBX 7 9 -3 5
BITMAP
82
82
82
82
82
82
82
C6
7A
ENDCHAR
STARTCHAR uni0368
ENCODING 872
SWIDTH 0 0
DWIDTH 0 0
BBX 7 9 -4 5
BITMAP
38
44
82
80
80
80
82
44
38
ENDCHAR
STARTCHAR uni0369
ENCODING 873
SWIDTH 0 0
DWIDTH 0 0
BBX 7 12 -4 5
BITMAP
02
02
02
3A
46
82
82
82
82
82
46
3A
ENDCHAR
STARTCHAR uni036A
ENCODING 874
SWIDTH 0 0
DWIDTH 0 0
BBX 7 12 -3 5
BITMAP
80
80
80
BC
C6
82
82
82
82
82
82
82
ENDCHAR
STARTCHAR uni036B
ENCODING 875
SWIDTH 0 0
DWIDTH 0 0
BBX 11 9 -6 5
BITMAP
B9C0
C620
8420
8420
8420
8420
8420
8420
8420
ENDCHAR
STARTCHAR uni036C
ENCODING 876
SWIDTH 0 0
DWIDTH 0 0
BBX 5 9 -2 5
BITMAP
B8
C0
80
80
80
80
80
80
80
ENDCHAR
STARTCHAR uni036D
ENCODING 877
SWIDTH 0 0
DWIDTH 0 0
BBX 4 12 -2 5
BITMAP
40
40
40
E0
40
40
40
40
40
40
40
30
ENDCHAR
STARTCHAR uni036E
ENCODING 878
SWIDTH 0 0
DWIDTH 0 0
BBX 8 9 -4 5
BITMAP
81
42
42
42
24
24
24
18
18
ENDCHAR
STARTCHAR uni036F
ENCODING 879
SWIDTH 0 0
DWIDTH 0 0
BBX 7 9 -4 5
BITMAP
82
44
28
28
10
28
28
44
82
ENDCHAR
STARTCHAR uni0370
ENCODING 880
SWIDTH 577 0
DWIDTH 14 0
BBX 11 17 2 0
BITMAP
C000
C000
C000
C000
C000
C000
C000
FFE0
FFE0
C000
C000
C000
C000
C000
C000
C000
C000
ENDCHAR
STARTCHAR uni0371
ENCODING 881
SWIDTH 475 0
DWIDTH 11 0
BBX 10 13 0 0
BITMAP
F000
F000
1800
1800
1800
1800
1FC0
1FC0
1800
1800
1800
1800
1800
ENDCHAR
STARTCHAR uni0372
ENCODING 882
SWIDTH 610 0
DWIDTH 15 0
BBX 14 17 0 0
BITMAP
FFFC
FFFC
C30C
C30C
C30C
C30C
C30C
0300
0300
0300
0300
0300
0300
0300
0300
0300
0300
ENDCHAR
STARTCHAR uni0373
ENCODING 883
SWIDTH 458 0
DWIDTH 11 0
BBX 10 17 0 0
BITMAP
7FC0
FFC0
CCC0
CCC0
CCC0
0C00
0C00
0C00
0C00
0C00
0C00
0C00
0C00
0C00
0C00
0C00
0C00
ENDCHAR
STARTCHAR uni0374
ENCODING 884
SWIDTH 333 0
DWIDTH 8 0
BBX 4 3 3 14
BITMAP
70
60
C0
ENDCHAR
STARTCHAR uni0375
ENCODING 885
SWIDTH 333 0
DWIDTH 8 0
BBX 4 3 1 -5
BITMAP
30
60
E0
ENDCHAR
STARTCHAR uni0376
ENCODING 886
SWIDTH 718 0
DWIDTH 17 0
BBX 13 17 2 0
BITMAP
C018
C038
C078
C078
C0D8
C1D8
C198
C318
C718
C618
CC18
DC18
D818
F018
F018
E018
C018
ENDCHAR
STARTCHAR uni0377
ENCODING 887
SWIDTH 583 0
DWIDTH 14 0
BBX 12 13 2 0
BITMAP
C1C0
C1C0
C3C0
C3C0
C6C0
C6C0
CCC0
D8C0
D8C0
F0C0
F0C0
E0F0
E070
ENDCHAR
STARTCHAR uni037A
ENCODING 890
SWIDTH 333 0
DWIDTH 8 0
BBX 2 4 3 -5
BITMAP
C0
C0
C0
C0
ENDCHAR
STARTCHAR uni037B
ENCODING 891
SWIDTH 500 0
DWIDTH 12 0
BBX 10 13 1 0
BITMAP
3E00
7F00
E380
C1C0
00C0
00C0
00C0
00C0
00C0
C1C0
E380
7F00
3E00
ENDCHAR
STARTCHAR uni037C
ENCODING 892
SWIDTH 500 0
DWIDTH 12 0
BBX 10 13 1 0
BITMAP
1F00
3F80
71C0
E0C0
C000
C600
C600
C000
C000
E0C0
71C0
3F80
1E00
ENDCHAR
STARTCHAR uni037D
ENCODING 893
SWIDTH 500 0
DWIDTH 12 0
BBX 10 13 1 0
BITMAP
3E00
7F00
E380
C1C0
00C0
0CC0
0CC0
00C0
00C0
C1C0
E380
7F00
3E00
ENDCHAR
STARTCHAR semicolon.dup3
ENCODING 894
SWIDTH 277 0
DWIDTH 7 0
BBX 2 17 2 -4
BITMAP
C0
C0
00
00
00
00
00
00
00
00
00
C0
C0
40
40
C0
80
ENDCHAR
STARTCHAR uni037F
ENCODING 895
SWIDTH 500 0
DWIDTH 12 0
BBX 9 17 1 0
BITMAP
0180
0180
0180
0180
0180
0180
0180
0180
0180
0180
0180
0180
C180
C180
E380
7F00
3E00
ENDCHAR
STARTCHAR tonos
ENCODING 900
SWIDTH 333 0
DWIDTH 8 0
BBX 4 3 3 14
BITMAP
70
60
C0
ENDCHAR
STARTCHAR dieresistonos
ENCODING 901
SWIDTH 333 0
DWIDTH 8 0
BBX 8 3 0 14
BITMAP
0C
DB
D3
ENDCHAR
STARTCHAR Alphatonos
ENCODING 902
SWIDTH 667 0
DWIDTH 15 0
BBX 15 17 0 0
BITMAP
1B80
3380
66C0
06C0
0EE0
0C60
0C60
1830
1830
1830
3FF8
3FF8
701C
600C
600C
C006
C006
ENDCHAR
STARTCHAR anoteleia
ENCODING 903
SWIDTH 277 0
DWIDTH 6 0
BBX 2 2 2 10
BITMAP
C0
C0
ENDCHAR
STARTCHAR Epsilontonos
ENCODING 904
SWIDTH 784 0
DWIDTH 19 0
BBX 19 17 -1 0
BITMAP
33FFE0
63FFE0
C30000
030000
030000
030000
030000
03FFC0
03FFC0
030000
030000
030000
030000
030000
030000
03FFE0
03FFE0
ENDCHAR
STARTCHAR Etatonos
ENCODING 905
SWIDTH 837 0
DWIDTH 20 0
BBX 19 17 -1 0
BITMAP
360060
660060
C60060
060060
060060
060060
060060
07FFE0
07FFE0
060060
060060
060060
060060
060060
060060
060060
060060
ENDCHAR
STARTCHAR Iotatonos
ENCODING 906
SWIDTH 383 0
DWIDTH 9 0
BBX 7 17 -1 0
BITMAP
36
66
C6
06
06
06
06
06
06
06
06
06
06
06
06
06
06
ENDCHAR
STARTCHAR Omicrontonos
ENCODING 908
SWIDTH 774 0
DWIDTH 19 0
BBX 19 17 -1 0
BITMAP
31FC00
67FF00
CF0780
1C01C0
1800C0
3800E0
300060
300060
300060
300060
300060
3800E0
1800C0
1C01C0
0F0780
07FF00
01FC00
ENDCHAR
STARTCHAR Upsilontonos
ENCODING 910
SWIDTH 855 0
DWIDTH 20 0
BBX 21 17 -1 0
BITMAP
360038
630070
C18060
01C0E0
00E1C0
007180
003300
003F00
001E00
000C00
000C00
000C00
000C00
000C00
000C00
000C00
000C00
ENDCHAR
STARTCHAR Omegatonos
ENCODING 911
SWIDTH 752 0
DWIDTH 18 0
BBX 18 17 -1 0
BITMAP
31F800
67FE00
CE0700
1C0380
180180
3801C0
3000C0
3000C0
3000C0
3000C0
3000C0
180180
180180
0C0300
070E00
3F9FC0
3F9FC0
ENDCHAR
STARTCHAR iotadieresistonos
ENCODING 912
SWIDTH 222 0
DWIDTH 6 0
BBX 8 18 -1 0
BITMAP
0C
DB
D3
00
00
18
18
18
18
18
18
18
18
18
18
18
18
18
ENDCHAR
STARTCHAR Alpha
ENCODING 913
SWIDTH 666 0
DWIDTH 15 0
BBX 15 17 0 0
BITMAP
0380
0380
06C0
06C0
0EE0
0C60
0C60
1830
1830
1830
3FF8
3FF8
701C
600C
600C
C006
C006
ENDCHAR
STARTCHAR Beta
ENCODING 914
SWIDTH 666 0
DWIDTH 16 0
BBX 13 17 2 0
BITMAP
FF80
FFE0
C070
C030
C030
C030
C060
FFE0
FFE0
C070
C038
C018
C018
C018
C030
FFF0
FFC0
ENDCHAR
STARTCHAR Gamma
ENCODING 915
SWIDTH 550 0
DWIDTH 13 0
BBX 11 17 2 0
BITMAP
FFE0
FFE0
C000
C000
C000
C000
C000
C000
C000
C000
C000
C000
C000
C000
C000
C000
C000
ENDCHAR
STARTCHAR uni0394
ENCODING 916
SWIDTH 667 0
DWIDTH 16 0
BBX 15 17 0 0
BITMAP
0380
0380
06C0
06C0
0EC0
0C60
0C60
1830
1830
3830
3018
3018
600C
600C
E00C
FFFE
FFFE
ENDCHAR
STARTCHAR Epsilon
ENCODING 917
SWIDTH 666 0
DWIDTH 16 0
BBX 13 17 2 0
BITMAP
FFF8
FFF8
C000
C000
C000
C000
C000
FFF0
FFF0
C000
C000
C000
C000
C000
C000
FFF8
FFF8
ENDCHAR
STARTCHAR Zeta
ENCODING 918
SWIDTH 610 0
DWIDTH 15 0
BBX 14 17 0 0
BITMAP
7FFC
7FFC
0018
0030
0060
00E0
01C0
0180
0300
0600
0E00
1C00
1800
3000
6000
FFFC
FFFC
ENDCHAR
STARTCHAR Eta
ENCODING 919
SWIDTH 722 0
DWIDTH 17 0
BBX 13 17 2 0
BITMAP
C018
C018
C018
C018
C018
C018
C018
FFF8
FFF8
C018
C018
C018
C018
C018
C018
C018
C018
ENDCHAR
STARTCHAR Theta
ENCODING 920
SWIDTH 777 0
DWIDTH 19 0
BBX 17 17 1 0
BITMAP
07F000
1FFC00
3C1E00
700700
600300
E00380
C00180
CFF980
CFF980
C00180
C00180
E00380
600300
700700
3C1E00
1FFC00
07F000
ENDCHAR
STARTCHAR Iota
ENCODING 921
SWIDTH 277 0
DWIDTH 6 0
BBX 2 17 2 0
BITMAP
C0
C0
C0
C0
C0
C0
C0
C0
C0
C0
C0
C0
C0
C0
C0
C0
C0
ENDCHAR
STARTCHAR Kappa
ENCODING 922
SWIDTH 666 0
DWIDTH 16 0
BBX 14 17 2 0
BITMAP
C038
C070
C0E0
C1C0
C380
C700
CE00
DE00
FF00
F700
E380
C1C0
C0E0
C0E0
C070
C038
C01C
ENDCHAR
STARTCHAR Lambda
ENCODING 923
SWIDTH 667 0
DWIDTH 16 0
BBX 15 17 0 0
BITMAP
0380
0380
06C0
06C0
06E0
0C60
0C60
1830
1830
3838
3018
3018
600C
600C
E00E
C006
C006
ENDCHAR
STARTCHAR Mu
ENCODING 924
SWIDTH 833 0
DWIDTH 19 0
BBX 15 17 2 0
BITMAP
E00E
F01E
F01E
F01E
D836
D836
D836
C826
CC66
CC66
CC66
C6C6
C6C6
C6C6
C286
C386
C386
ENDCHAR
STARTCHAR Nu
ENCODING 925
SWIDTH 722 0
DWIDTH 17 0
BBX 13 17 2 0
BITMAP
C018
E018
F018
F018
D818
CC18
CC18
C618
C718
C318
C198
C198
C0D8
C078
C078
C038
C018
ENDCHAR
STARTCHAR Xi
ENCODING 926
SWIDTH 649 0
DWIDTH 16 0
BBX 14 17 1 0
BITMAP
FFFC
FFFC
0000
0000
0000
0000
0000
7FF8
7FF8
0000
0000
0000
0000
0000
0000
FFFC
FFFC
ENDCHAR
STARTCHAR Omicron
ENCODING 927
SWIDTH 777 0
DWIDTH 19 0
BBX 17 17 1 0
BITMAP
07F000
1FFC00
3C1E00
700700
600300
E00380
C00180
C00180
C00180
C00180
C00180
E00380
600300
700700
3C1E00
1FFC00
07F000
ENDCHAR
STARTCHAR Pi
ENCODING 928
SWIDTH 722 0
DWIDTH 17 0
BBX 13 17 2 0
BITMAP
FFF8
FFF8
C018
C018
C018
C018
C018
C018
C018
C018
C018
C018
C018
C018
C018
C018
C018
ENDCHAR
STARTCHAR Rho
ENCODING 929
SWIDTH 666 0
DWIDTH 16 0
BBX 13 17 2 0
BITMAP
FFC0
FFF0
C030
C018
C018
C018
C018
C030
FFF0
FFC0
C000
C000
C000
C000
C000
C000
C000
ENDCHAR
STARTCHAR Sigma
ENCODING 931
SWIDTH 618 0
DWIDTH 15 0
BBX 12 17 2 0
BITMAP
FFE0
FFE0
C000
6000
3000
1800
0C00
0600
0300
0600
0C00
1800
3000
6000
C000
FFF0
FFF0
ENDCHAR
STARTCHAR Tau
ENCODING 932
SWIDTH 610 0
DWIDTH 14 0
BBX 14 17 0 0
BITMAP
FFFC
FFFC
0300
0300
0300
0300
0300
0300
0300
0300
0300
0300
0300
0300
0300
0300
0300
ENDCHAR
STARTCHAR Upsilon
ENCODING 933
SWIDTH 666 0
DWIDTH 16 0
BBX 16 17 0 0
BITMAP
E007
600E
301C
381C
1C38
0E70
0660
07E0
03C0
0180
0180
0180
0180
0180
0180
0180
0180
ENDCHAR
STARTCHAR Phi
ENCODING 934
SWIDTH 797 0
DWIDTH 18 0
BBX 16 17 1 0
BITMAP
0180
0180
0FF0
3FFC
718E
6186
C183
C183
C183
C183
6186
718E
3FFC
0FF0
0180
0180
0180
ENDCHAR
STARTCHAR Chi
ENCODING 935
SWIDTH 666 0
DWIDTH 15 0
BBX 15 17 0 0
BITMAP
701C
3838
1870
1C70
0EE0
06C0
07C0
0380
0380
06C0
0EC0
0EE0
1C70
3838
3818
701C
E00E
ENDCHAR
STARTCHAR Psi
ENCODING 936
SWIDTH 835 0
DWIDTH 19 0
BBX 16 17 2 0
BITMAP
C183
C183
C183
C183
C183
C183
C183
C183
6186
799E
3FFC
0FF0
0180
0180
0180
0180
0180
ENDCHAR
STARTCHAR uni03A9
ENCODING 937
SWIDTH 747 0
DWIDTH 18 0
BBX 16 17 1 0
BITMAP
07E0
1FF8
381C
700E
6006
E007
C003
C003
C003
C003
C003
6006
6006
300C
1C38
FE7F
FE7F
ENDCHAR
STARTCHAR Iotadieresis
ENCODING 938
SWIDTH 277 0
DWIDTH 6 0
BBX 6 20 0 0
BITMAP
CC
CC
00
30
30
30
30
30
30
30
30
30
30
30
30
30
30
30
30
30
ENDCHAR
STARTCHAR Upsilondieresis
ENCODING 939
SWIDTH 666 0
DWIDTH 16 0
BBX 16 20 0 0
BITMAP
0660
0660
0000
E007
600E
301C
381C
1C38
0E70
0660
07E0
03C0
0180
0180
0180
0180
0180
0180
0180
0180
ENDCHAR
STARTCHAR alphatonos
ENCODING 940
SWIDTH 578 0
DWIDTH 14 0
BBX 12 17 1 0
BITMAP
0380
0300
0600
0000
1E30
3FB0
71F0
E0E0
C060
C060
C060
C060
C060
E0E0
71F0
3FF0
1F30
ENDCHAR
STARTCHAR epsilontonos
ENCODING 941
SWIDTH 445 0
DWIDTH 11 0
BBX 9 17 1 0
BITMAP
0C00
1800
1000
0000
3E00
7F80
E300
C000
E000
7C00
7C00
E000
C000
C100
E380
7F00
3E00
ENDCHAR
STARTCHAR etatonos
ENCODING 942
SWIDTH 556 0
DWIDTH 14 0
BBX 10 22 2 -5
BITMAP
0700
0600
0C00
0000
CF00
FF80
E1C0
C0C0
C0C0
C0C0
C0C0
C0C0
C0C0
C0C0
C0C0
C0C0
C0C0
00C0
00C0
00C0
00C0
00C0
ENDCHAR
STARTCHAR iotatonos
ENCODING 943
SWIDTH 222 0
DWIDTH 6 0
BBX 4 17 1 0
BITMAP
70
60
C0
00
60
60
60
60
60
60
60
60
60
60
60
60
60
ENDCHAR
STARTCHAR upsilondieresistonos
ENCODING 944
SWIDTH 546 0
DWIDTH 14 0
BBX 10 17 2 0
BITMAP
0C00
6D80
6980
0000
C0C0
C0C0
C0C0
C0C0
C0C0
C0C0
C0C0
C0C0
C0C0
C0C0
6180
7F80
1E00
ENDCHAR
STARTCHAR alpha
ENCODING 945
SWIDTH 578 0
DWIDTH 14 0
BBX 12 13 1 0
BITMAP
1E30
3FB0
71F0
E0E0
C060
C060
C060
C060
C060
E0E0
71F0
3FF0
1F30
ENDCHAR
STARTCHAR beta
ENCODING 946
SWIDTH 575 0
DWIDTH 14 0
BBX 11 22 2 -5
BITMAP
1F00
7F80
61C0
C0C0
C0C0
C180
CE00
CF80
C1C0
C0E0
C060
C060
C060
E060
F0C0
DFC0
CF00
C000
C000
C000
C000
C000
ENDCHAR
STARTCHAR gamma
ENCODING 947
SWIDTH 500 0
DWIDTH 11 0
BBX 10 18 0 -5
BITMAP
C0C0
C0C0
C0C0
6180
6180
7180
3300
3300
3F00
1E00
1E00
1E00
0C00
0C00
0C00
0C00
0C00
0C00
ENDCHAR
STARTCHAR delta
ENCODING 948
SWIDTH 556 0
DWIDTH 13 0
BBX 11 17 1 0
BITMAP
7FC0
7FC0
3800
0E00
1F00
3F80
71C0
E0E0
C060
C060
C060
C060
C060
E0C0
71C0
3F80
1F00
ENDCHAR
STARTCHAR epsilon
ENCODING 949
SWIDTH 445 0
DWIDTH 11 0
BBX 9 13 1 0
BITMAP
3E00
7F80
E300
C000
E000
7C00
7C00
E000
C000
C100
E380
7F00
3E00
ENDCHAR
STARTCHAR zeta
ENCODING 950
SWIDTH 440 0
DWIDTH 11 0
BBX 9 22 1 -5
BITMAP
3F80
3F80
0300
0E00
1C00
1800
3000
6000
6000
E000
C000
C000
C000
C000
E000
7E00
3F80
0180
0180
0380
0F00
0E00
ENDCHAR
STARTCHAR eta
ENCODING 951
SWIDTH 556 0
DWIDTH 14 0
BBX 10 18 2 -5
BITMAP
CF00
FF80
E1C0
C0C0
C0C0
C0C0
C0C0
C0C0
C0C0
C0C0
C0C0
C0C0
C0C0
00C0
00C0
00C0
00C0
00C0
ENDCHAR
STARTCHAR theta
ENCODING 952
SWIDTH 556 0
DWIDTH 13 0
BBX 11 17 1 0
BITMAP
1F00
3F80
71C0
60C0
C060
C060
C060
FFE0
FFE0
C060
C060
C060
C0E0
60C0
71C0
3F80
1F00
ENDCHAR
STARTCHAR iota
ENCODING 953
SWIDTH 222 0
DWIDTH 6 0
BBX 2 13 2 0
BITMAP
C0
C0
C0
C0
C0
C0
C0
C0
C0
C0
C0
C0
C0
ENDCHAR
STARTCHAR kappa
ENCODING 954
SWIDTH 500 0
DWIDTH 12 0
BBX 9 13 2 0
BITMAP
C180
C300
C600
CC00
D800
F000
F800
D800
CC00
C600
C300
C300
C180
ENDCHAR
STARTCHAR lambda
ENCODING 955
SWIDTH 500 0
DWIDTH 12 0
BBX 11 17 0 0
BITMAP
1800
1800
0C00
0C00
0C00
0600
0E00
0F00
1B00
1B00
3180
3180
71C0
60C0
60C0
C060
C060
ENDCHAR
STARTCHAR uni03BC
ENCODING 956
SWIDTH 576 0
DWIDTH 14 0
BBX 10 18 2 -5
BITMAP
C0C0
C0C0
C0C0
C0C0
C0C0
C0C0
C0C0
C0C0
C0C0
C1C0
E1C0
FFC0
DEC0
C000
C000
C000
C000
C000
ENDCHAR
STARTCHAR nu
ENCODING 957
SWIDTH 500 0
DWIDTH 11 0
BBX 11 13 0 0
BITMAP
C060
C060
60C0
60C0
60C0
3180
3180
1B00
1B00
1B00
0E00
0E00
0400
ENDCHAR
STARTCHAR xi
ENCODING 958
SWIDTH 447 0
DWIDTH 11 0
BBX 9 22 1 -5
BITMAP
1F00
3F00
7000
6000
7000
3F00
0F00
3800
7000
6000
C000
C000
C000
C000
7000
7E00
1F00
0180
0180
0380
0F00
0E00
ENDCHAR
STARTCHAR omicron
ENCODING 959
SWIDTH 556 0
DWIDTH 13 0
BBX 11 13 1 0
BITMAP
1F00
3F80
71C0
E0E0
C060
C060
C060
C060
C060
E0E0
71C0
3F80
1F00
ENDCHAR
STARTCHAR pi
ENCODING 960
SWIDTH 689 0
DWIDTH 17 0
BBX 16 13 0 0
BITMAP
FFFF
FFFF
1818
1818
1818
1818
1818
1818
1818
1818
1818
1818
1818
ENDCHAR
STARTCHAR rho
ENCODING 961
SWIDTH 568 0
DWIDTH 14 0
BBX 11 18 2 -5
BITMAP
1F00
3F80
71C0
E0C0
C060
C060
C060
C060
C060
E0E0
F1C0
FF80
DF00
C000
C000
C000
C000
C000
ENDCHAR
STARTCHAR sigma1
ENCODING 962
SWIDTH 481 0
DWIDTH 12 0
BBX 11 18 1 -5
BITMAP
07E0
1FE0
3800
6000
6000
C000
C000
C000
C000
E000
7000
3F00
0F80
01C0
00C0
01C0
0F80
0F00
ENDCHAR
STARTCHAR sigma
ENCODING 963
SWIDTH 617 0
DWIDTH 15 0
BBX 13 13 1 0
BITMAP
1FF8
3FF8
70E0
E060
C030
C030
C030
C030
C030
E070
70E0
3FC0
1F80
ENDCHAR
STARTCHAR tau
ENCODING 964
SWIDTH 395 0
DWIDTH 9 0
BBX 6 13 1 0
BITMAP
FC
FC
30
30
30
30
30
30
30
30
30
30
30
ENDCHAR
STARTCHAR upsilon
ENCODING 965
SWIDTH 546 0
DWIDTH 14 0
BBX 10 13 2 0
BITMAP
C0C0
C0C0
C0C0
C0C0
C0C0
C0C0
C0C0
C0C0
C0C0
C0C0
6180
7F80
1E00
ENDCHAR
STARTCHAR phi
ENCODING 966
SWIDTH 648 0
DWIDTH 16 0
BBX 14 18 1 -5
BITMAP
19E0
3BF0
6318
E30C
C30C
C30C
C30C
C30C
E31C
6318
7B70
3FE0
0FC0
0300
0300
0300
0300
0300
ENDCHAR
STARTCHAR chi
ENCODING 967
SWIDTH 524 0
DWIDTH 13 0
BBX 11 18 1 -5
BITMAP
C060
C0E0
60C0
71C0
3180
3B00
1B00
0E00
0E00
0E00
0E00
1B00
1B80
3180
71C0
60C0
E060
C060
ENDCHAR
STARTCHAR psi
ENCODING 968
SWIDTH 712 0
DWIDTH 18 0
BBX 14 18 2 -5
BITMAP
C30C
C30C
C30C
C30C
C30C
C30C
C30C
C30C
C30C
E31C
7338
3FF0
1FE0
0300
0300
0300
0300
0300
ENDCHAR
STARTCHAR omega
ENCODING 969
SWIDTH 780 0
DWIDTH 18 0
BBX 16 13 1 0
BITMAP
300C
6006
6006
E187
C183
C183
C183
C183
C183
E187
63C6
7E7E
3C38
ENDCHAR
STARTCHAR iotadieresis
ENCODING 970
SWIDTH 222 0
DWIDTH 6 0
BBX 6 16 0 0
BITMAP
CC
CC
00
30
30
30
30
30
30
30
30
30
30
30
30
30
ENDCHAR
STARTCHAR upsilondieresis
ENCODING 971
SWIDTH 546 0
DWIDTH 14 0
BBX 10 16 2 0
BITMAP
3300
3300
0000
C0C0
C0C0
C0C0
C0C0
C0C0
C0C0
C0C0
C0C0
C0C0
C0C0
6180
7F80
1E00
ENDCHAR
STARTCHAR omicrontonos
ENCODING 972
SWIDTH 556 0
DWIDTH 13 0
BBX 11 17 1 0
BITMAP
0700
0600
0C00
0000
1F00
3F80
71C0
E0E0
C060
C060
C060
C060
C060
E0E0
71C0
3F80
1F00
ENDCHAR
STARTCHAR upsilontonos
ENCODING 973
SWIDTH 546 0
DWIDTH 14 0
BBX 10 17 2 0
BITMAP
0600
0C00
0800
0000
C0C0
C0C0
C0C0
C0C0
C0C0
C0C0
C0C0
C0C0
C0C0
C0C0
6180
7F80
1E00
ENDCHAR
STARTCHAR omegatonos
ENCODING 974
SWIDTH 780 0
DWIDTH 18 0
BBX 16 17 1 0
BITMAP
00C0
0180
0100
0000
300C
6006
6006
E187
C183
C183
C183
C183
C183
E187
63C6
7E7E
3C38
ENDCHAR
STARTCHAR uni03CF
ENCODING 975
SWIDTH 666 0
DWIDTH 16 0
BBX 13 22 2 -5
BITMAP
C038
C070
C0E0
C1C0
C380
C700
CE00
DC00
FE00
F700
E300
C180
C0C0
C060
C070
C038
C038
0070
00C0
0180
0700
0200
ENDCHAR
STARTCHAR uni03D0
ENCODING 976
SWIDTH 575 0
DWIDTH 14 0
BBX 12 17 1 0
BITMAP
0F80
3FC0
7060
7060
FFE0
DF80
C000
DF80
FFE0
F060
E030
E030
E030
6030
7060
3FE0
0F80
ENDCHAR
STARTCHAR theta1
ENCODING 977
SWIDTH 546 0
DWIDTH 13 0
BBX 13 17 0 0
BITMAP
0780
0FE0
1C60
1870
1830
1E30
0FF8
03F8
0030
F030
F830
1860
1060
30E0
31C0
3F80
1F00
ENDCHAR
STARTCHAR Upsilon1
ENCODING 978
SWIDTH 772 0
DWIDTH 19 0
BBX 19 17 0 0
BITMAP
E00380
6007E0
300E40
381C00
1C1800
0C3000
067000
07E000
03C000
018000
018000
018000
018000
018000
018000
018000
018000
ENDCHAR
STARTCHAR uni03D3
ENCODING 979
SWIDTH 958 0
DWIDTH 23 0
BBX 24 17 -1 0
BITMAP
E7001C
C3003F
818072
01C0E0
00E0C0
006180
003380
003F00
001E00
000C00
000C00
000C00
000C00
000C00
000C00
000C00
000C00
ENDCHAR
STARTCHAR uni03D4
ENCODING 980
SWIDTH 772 0
DWIDTH 19 0
BBX 19 20 0 0
BITMAP
066000
066000
000000
E00380
6007E0
300E40
381C00
1C1800
0C3000
067000
07E000
03C000
018000
018000
018000
018000
018000
018000
018000
018000
ENDCHAR
STARTCHAR phi1
ENCODING 981
SWIDTH 560 0
DWIDTH 13 0
BBX 12 22 0 -5
BITMAP
0600
0600
0600
0600
1F80
3FC0
76E0
E660
C630
C630
C630
C630
C630
E660
76E0
3FC0
1F80
0600
0600
0600
0600
0600
ENDCHAR
STARTCHAR omega1
ENCODING 982
SWIDTH 780 0
DWIDTH 19 0
BBX 17 13 1 0
BITMAP
FFFF80
FFFF80
600300
E18380
C18180
C18180
C18180
C18180
C18180
E1C380
63C700
7E7F00
3C3C00
ENDCHAR
STARTCHAR uni03D7
ENCODING 983
SWIDTH 601 0
DWIDTH 14 0
BBX 14 18 0 -5
BITMAP
F01C
F038
1870
1860
18E0
19E0
1B60
1E60
1C60
1860
3860
703C
E03C
000C
000C
000C
007C
0078
ENDCHAR
STARTCHAR uni03D8
ENCODING 984
SWIDTH 777 0
DWIDTH 19 0
BBX 17 22 1 -5
BITMAP
07F000
1FFC00
3C1E00
700700
600300
E00380
C00180
C00180
C00180
C00180
C00180
E00380
600300
700700
3C1E00
1FF800
07E000
018000
018000
018000
018000
018000
ENDCHAR
STARTCHAR uni03D9
ENCODING 985
SWIDTH 556 0
DWIDTH 13 0
BBX 11 18 1 -5
BITMAP
1F00
3F80
71C0
E0E0
C060
C060
C060
C060
C060
E0E0
71C0
3F80
1F00
0600
0600
0600
0600
0600
ENDCHAR
STARTCHAR uni03DA
ENCODING 986
SWIDTH 722 0
DWIDTH 17 0
BBX 15 17 1 0
BITMAP
07E0
1FF8
383C
700E
E006
C000
C000
C000
C000
E000
6000
7800
3F80
0F80
0180
0180
0180
ENDCHAR
STARTCHAR uni03DB
ENCODING 987
SWIDTH 500 0
DWIDTH 12 0
BBX 11 18 1 -5
BITMAP
1F80
3FC0
70E0
E060
C000
C000
C000
C000
C000
6000
7C00
3F80
07C0
00C0
00C0
41C0
7F80
7F00
ENDCHAR
STARTCHAR uni03DC
ENCODING 988
SWIDTH 610 0
DWIDTH 15 0
BBX 12 17 2 0
BITMAP
FFF0
FFF0
C000
C000
C000
C000
C000
FFE0
FFE0
C060
C060
C060
C000
C000
C000
C000
C000
ENDCHAR
STARTCHAR uni03DD
ENCODING 989
SWIDTH 403 0
DWIDTH 10 0
BBX 7 18 2 -5
BITMAP
FE
FE
C0
C0
C0
FC
FC
CC
CC
C0
C0
C0
C0
C0
C0
C0
C0
C0
ENDCHAR
STARTCHAR uni03DE
ENCODING 990
SWIDTH 624 0
DWIDTH 15 0
BBX 15 17 0 0
BITMAP
E000
F000
1800
1800
1808
1818
3878
31F8
3398
3F18
3C38
3830
2030
0030
0030
001E
000E
ENDCHAR
STARTCHAR uni03DF
ENCODING 991
SWIDTH 529 0
DWIDTH 13 0
BBX 11 17 1 0
BITMAP
1800
1800
3000
3000
7000
6000
6000
FFE0
FFE0
00C0
00C0
00C0
0180
0180
0180
0300
0300
ENDCHAR
STARTCHAR uni03E0
ENCODING 992
SWIDTH 756 0
DWIDTH 18 0
BBX 17 22 0 -5
BITMAP
0F8000
1FE000
7CF000
6C3800
CC1C00
8C0E00
0C0600
0C1F00
003F00
007300
006380
006180
006180
006180
006180
006180
006180
000380
000300
000F00
01FE00
00F000
ENDCHAR
STARTCHAR uni03E1
ENCODING 993
SWIDTH 576 0
DWIDTH 14 0
BBX 11 22 2 -5
BITMAP
C000
F000
3800
1C00
0E00
0700
0780
1F80
39C0
20C0
01C0
07E0
0F60
0C60
0060
0060
0060
0060
0060
0060
00C0
0080
ENDCHAR
STARTCHAR uni03E2
ENCODING 994
SWIDTH 890 0
DWIDTH 21 0
BBX 17 22 2 -5
BITMAP
C18180
C18180
C18180
C18180
C18180
C18180
C18180
C18180
C18180
C18180
C18180
C18180
C18180
C18380
E3C780
7EFF80
3C7980
000180
000380
000300
FFFF00
FFFC00
ENDCHAR
STARTCHAR uni03E3
ENCODING 995
SWIDTH 833 0
DWIDTH 20 0
BBX 16 18 2 -5
BITMAP
C183
C183
C183
C183
C183
C183
C183
C183
C183
C183
E3C7
7EFF
3C73
0003
0007
000E
FFFE
FFF8
ENDCHAR
STARTCHAR uni03E4
ENCODING 996
SWIDTH 674 0
DWIDTH 16 0
BBX 13 17 1 0
BITMAP
1F98
3F18
7018
E018
C018
C018
C018
E018
7078
3FF8
1F98
0018
0018
0018
0018
0018
0018
ENDCHAR
STARTCHAR uni03E5
ENCODING 997
SWIDTH 556 0
DWIDTH 13 0
BBX 9 17 2 0
BITMAP
7180
F180
C180
C180
C180
C180
C180
C180
C180
C180
E380
7F80
3D80
0180
0180
0180
0180
ENDCHAR
STARTCHAR uni03E6
ENCODING 998
SWIDTH 673 0
DWIDTH 16 0
BBX 13 22 2 -5
BITMAP
C000
C000
C000
C000
C000
C000
CF80
FFE0
F070
C030
C038
C018
C018
C018
C018
C018
C018
0030
0070
00E0
FFC0
FF80
ENDCHAR
STARTCHAR uni03E7
ENCODING 999
SWIDTH 500 0
DWIDTH 12 0
BBX 11 13 0 0
BITMAP
1E60
3FC0
71C0
61C0
63E0
7E60
3C60
0060
0060
00E0
71C0
FF80
CF00
ENDCHAR
STARTCHAR uni03E8
ENCODING 1000
SWIDTH 666 0
DWIDTH 16 0
BBX 14 17 1 0
BITMAP
0FC0
1FF0
3830
6018
6018
0018
0078
07F0
3FC0
7E00
E00C
C00C
C00C
C00C
7038
3FF0
1FC0
ENDCHAR
STARTCHAR uni03E9
ENCODING 1001
SWIDTH 666 0
DWIDTH 16 0
BBX 13 17 1 0
BITMAP
0FC0
1FF0
3830
6018
6018
0018
0070
0FE0
3FC0
7C00
E000
C000
C000
C000
7010
7FF8
1FF0
ENDCHAR
STARTCHAR uni03EA
ENCODING 1002
SWIDTH 609 0
DWIDTH 15 0
BBX 15 17 0 0
BITMAP
3838
7C7C
E6CE
46C4
0380
0380
0380
0380
0380
06C0
06C0
0C60
0C60
1830
1830
1FF0
1FF0
ENDCHAR
STARTCHAR uni03EB
ENCODING 1003
SWIDTH 596 0
DWIDTH 14 0
BBX 14 13 0 0
BITMAP
3870
7CF8
CCCC
4788
0780
0380
0300
0780
0780
0780
0CC0
0FC0
0FC0
ENDCHAR
STARTCHAR uni03EC
ENCODING 1004
SWIDTH 736 0
DWIDTH 18 0
BBX 16 17 1 0
BITMAP
07FC
1FFC
3800
67E0
7FF8
F81C
E00E
E007
C003
C003
C003
C003
6007
700E
381C
1FF8
07E0
ENDCHAR
STARTCHAR uni03ED
ENCODING 1005
SWIDTH 553 0
DWIDTH 13 0
BBX 11 13 1 0
BITMAP
0FC0
3FC0
7000
E000
DF80
DFC0
C0E0
C060
C060
E060
70E0
3FC0
1F00
ENDCHAR
STARTCHAR uni03EE
ENCODING 1006
SWIDTH 463 0
DWIDTH 11 0
BBX 10 17 0 0
BITMAP
0C00
0C00
0C00
0C00
7F80
FFC0
CCC0
CCC0
CCC0
0C00
0C00
0C00
0C00
0C00
0C00
0C00
0C00
ENDCHAR
STARTCHAR uni03EF
ENCODING 1007
SWIDTH 409 0
DWIDTH 10 0
BBX 10 17 0 0
BITMAP
0C00
0E00
0C00
0C00
FFC0
FFC0
CC00
8C00
0C00
0C00
0C00
0C00
0C00
0C00
0C00
1C00
0C00
ENDCHAR
STARTCHAR uni03F0
ENCODING 1008
SWIDTH 601 0
DWIDTH 14 0
BBX 14 13 0 0
BITMAP
F01C
F038
1870
1860
18E0
19E0
1B60
1E60
1C60
1860
3860
707C
E03C
ENDCHAR
STARTCHAR uni03F1
ENCODING 1009
SWIDTH 572 0
DWIDTH 14 0
BBX 12 18 1 -5
BITMAP
1F80
3FC0
70E0
6060
C030
C030
C030
C030
C030
E060
F0E0
DFC0
CF80
6000
7000
3FE0
0FF0
0030
ENDCHAR
STARTCHAR uni03F2
ENCODING 1010
SWIDTH 500 0
DWIDTH 12 0
BBX 10 13 1 0
BITMAP
1F00
3F80
71C0
E0C0
C000
C000
C000
C000
C000
E0C0
71C0
3F80
1E00
ENDCHAR
STARTCHAR uni03F3
ENCODING 1011
SWIDTH 222 0
DWIDTH 6 0
BBX 5 22 -1 -5
BITMAP
18
18
00
00
18
18
18
18
18
18
18
18
18
18
18
18
18
18
18
18
F8
F0
ENDCHAR
STARTCHAR uni03F4
ENCODING 1012
SWIDTH 777 0
DWIDTH 19 0
BBX 17 17 1 0
BITMAP
07F000
1FFC00
3C1E00
700700
600300
C00180
C00180
FFFF80
FFFF80
C00180
C00180
E00380
600300
700700
3C1E00
1FFC00
07F000
ENDCHAR
STARTCHAR uni03F5
ENCODING 1013
SWIDTH 441 0
DWIDTH 11 0
BBX 9 13 1 0
BITMAP
1F80
3F80
7000
E000
C000
FE00
FE00
C000
C000
E000
7000
3F80
1F80
ENDCHAR
STARTCHAR uni03F6
ENCODING 1014
SWIDTH 441 0
DWIDTH 11 0
BBX 9 13 1 0
BITMAP
FC00
FE00
0700
0300
0180
3F80
3F80
0180
0180
0380
0700
FE00
FC00
ENDCHAR
STARTCHAR uni03F7
ENCODING 1015
SWIDTH 666 0
DWIDTH 16 0
BBX 13 17 2 0
BITMAP
C000
C000
C000
FFC0
FFF0
C030
C038
C018
C018
C018
C038
C070
FFE0
FFC0
C000
C000
C000
ENDCHAR
STARTCHAR uni03F8
ENCODING 1016
SWIDTH 556 0
DWIDTH 13 0
BBX 10 22 2 -5
BITMAP
C000
C000
C000
C000
DE00
FF00
E380
E1C0
C0C0
C0C0
C0C0
C0C0
C0C0
C180
E380
FF00
DE00
C000
C000
C000
C000
C000
ENDCHAR
STARTCHAR uni03F9
ENCODING 1017
SWIDTH 722 0
DWIDTH 17 0
BBX 15 17 1 0
BITMAP
07E0
1FF8
381C
700C
6006
E000
C000
C000
C000
C000
C000
C006
6006
700C
381C
1FF8
07E0
ENDCHAR
STARTCHAR uni03FA
ENCODING 1018
SWIDTH 833 0
DWIDTH 20 0
BBX 16 17 2 0
BITMAP
C003
E007
F00F
F81F
DC3B
CE73
C7E3
C3C3
C183
C003
C003
C003
C003
C003
C003
C003
C003
ENDCHAR
STARTCHAR uni03FB
ENCODING 1019
SWIDTH 687 0
DWIDTH 17 0
BBX 13 18 2 -5
BITMAP
F038
F078
F078
F078
D8D8
D8D8
D8D8
CD98
CD98
CD98
CF18
C718
C718
C000
C000
C000
C000
C000
ENDCHAR
STARTCHAR uni03FC
ENCODING 1020
SWIDTH 568 0
DWIDTH 14 0
BBX 12 18 1 -5
BITMAP
0F80
1FC0
38E0
3060
6030
6030
6030
6030
6030
7060
78E0
7FC0
6780
6000
FE00
FE00
6000
6000
ENDCHAR
STARTCHAR uni03FD
ENCODING 1021
SWIDTH 722 0
DWIDTH 17 0
BBX 15 17 1 0
BITMAP
0FC0
3FF0
7038
601C
C00C
C006
0006
0006
0006
0006
0006
000E
C00C
E01C
7038
3FF0
0FC0
ENDCHAR
STARTCHAR uni03FE
ENCODING 1022
SWIDTH 722 0
DWIDTH 17 0
BBX 15 17 1 0
BITMAP
07E0
1FF8
381C
700C
6006
C000
C000
C180
C180
C000
C000
C006
6006
700C
381C
1FF8
07E0
ENDCHAR
STARTCHAR uni03FF
ENCODING 1023
SWIDTH 722 0
DWIDTH 17 0
BBX 15 17 1 0
BITMAP
0FC0
3FF0
7038
601C
C00C
C006
0006
0306
0306
0006
0006
000E
C00C
E01C
7038
3FF0
0FC0
ENDCHAR
STARTCHAR uni0400
ENCODING 1024
SWIDTH 666 0
DWIDTH 16 0
BBX 13 21 2 0
BITMAP
0E00
0600
0200
0000
FFF8
FFF8
C000
C000
C000
C000
C000
FFF0
FFF0
C000
C000
C000
C000
C000
C000
FFF8
FFF8
ENDCHAR
STARTCHAR uni0401
ENCODING 1025
SWIDTH 667 0
DWIDTH 16 0
BBX 13 20 2 0
BITMAP
1980
1980
0000
FFF8
FFF8
C000
C000
C000
C000
C000
FFF0
FFF0
C000
C000
C000
C000
C000
C000
FFF8
FFF8
ENDCHAR
STARTCHAR uni0402
ENCODING 1026
SWIDTH 864 0
DWIDTH 21 0
BBX 19 17 1 0
BITMAP
FFFC00
FFFC00
030000
030000
030000
030000
033F00
03FF80
03C1C0
0300E0
030060
030060
030060
0300E0
0311C0
031F80
030F00
ENDCHAR
STARTCHAR uni0403
ENCODING 1027
SWIDTH 541 0
DWIDTH 13 0
BBX 11 21 2 0
BITMAP
0700
0600
0C00
0000
FFE0
FFE0
C000
C000
C000
C000
C000
C000
C000
C000
C000
C000
C000
C000
C000
C000
C000
ENDCHAR
STARTCHAR uni0404
ENCODING 1028
SWIDTH 718 0
DWIDTH 17 0
BBX 15 17 1 0
BITMAP
07E0
1FF8
383C
700C
600E
C004
C000
FF80
FF80
C000
C000
C004
600E
700C
383C
1FF8
07E0
ENDCHAR
STARTCHAR uni0405
ENCODING 1029
SWIDTH 666 0
DWIDTH 16 0
BBX 14 17 1 0
BITMAP
0FC0
3FF0
3038
601C
600C
6000
3800
3FC0
0FF0
0078
001C
C00C
C00C
601C
7838
3FF0
0FC0
ENDCHAR
STARTCHAR uni0406
ENCODING 1030
SWIDTH 277 0
DWIDTH 6 0
BBX 2 17 2 0
BITMAP
C0
C0
C0
C0
C0
C0
C0
C0
C0
C0
C0
C0
C0
C0
C0
C0
C0
ENDCHAR
STARTCHAR uni0407
ENCODING 1031
SWIDTH 277 0
DWIDTH 6 0
BBX 6 20 0 0
BITMAP
CC
CC
00
30
30
30
30
30
30
30
30
30
30
30
30
30
30
30
30
30
ENDCHAR
STARTCHAR uni0408
ENCODING 1032
SWIDTH 500 0
DWIDTH 12 0
BBX 9 17 1 0
BITMAP
0180
0180
0180
0180
0180
0180
0180
0180
0180
0180
0180
0180
C180
C180
E380
7F00
3E00
ENDCHAR
STARTCHAR uni0409
ENCODING 1033
SWIDTH 1057 0
DWIDTH 25 0
BBX 24 17 0 0
BITMAP
1FFC00
1FFC00
180C00
180C00
180C00
180C00
180C00
180FF8
180FFE
180C06
180C03
180C03
180C03
180C03
380C06
F00FFE
600FF8
ENDCHAR
STARTCHAR uni040A
ENCODING 1034
SWIDTH 1010 0
DWIDTH 24 0
BBX 21 17 2 0
BITMAP
C06000
C06000
C06000
C06000
C06000
C06000
C06000
FFFFC0
FFFFF0
C06030
C06018
C06018
C06018
C06018
C06030
C07FF0
C07FC0
ENDCHAR
STARTCHAR uni040B
ENCODING 1035
SWIDTH 854 0
DWIDTH 22 0
BBX 19 17 1 0
BITMAP
FFFC00
FFFC00
030000
030000
030000
030000
033F00
03FFC0
03C1C0
0300E0
030060
030060
030060
030060
030060
030060
030060
ENDCHAR
STARTCHAR uni040C
ENCODING 1036
SWIDTH 582 0
DWIDTH 14 0
BBX 12 21 2 0
BITMAP
0700
0600
0400
0000
C070
C0F0
C180
C380
C300
C300
C600
FE00
F800
CE00
C700
C300
C180
C0C0
C0C0
C060
C070
ENDCHAR
STARTCHAR uni040D
ENCODING 1037
SWIDTH 718 0
DWIDTH 17 0
BBX 13 21 2 0
BITMAP
0C00
0600
0200
0000
C018
C038
C078
C078
C0D8
C1D8
C198
C318
C718
C618
CC18
DC18
D818
F018
F018
E018
C018
ENDCHAR
STARTCHAR uni040E
ENCODING 1038
SWIDTH 635 0
DWIDTH 15 0
BBX 13 21 1 0
BITMAP
1040
08C0
0780
0000
C018
C018
6030
6030
3060
3060
18C0
18C0
0D80
0D80
0700
0700
0200
0600
0600
3C00
3800
ENDCHAR
STARTCHAR uni040F
ENCODING 1039
SWIDTH 718 0
DWIDTH 17 0
BBX 13 22 2 -5
BITMAP
C018
C018
C018
C018
C018
C018
C018
C018
C018
C018
C018
C018
C018
C018
C018
FFF8
FFF8
0300
0300
0300
0300
0300
ENDCHAR
STARTCHAR uni0410
ENCODING 1040
SWIDTH 666 0
DWIDTH 15 0
BBX 15 17 0 0
BITMAP
0380
0380
06C0
06C0
0EE0
0C60
0C60
1830
1830
1830
3FF8
3FF8
701C
600C
600C
C006
C006
ENDCHAR
STARTCHAR uni0411
ENCODING 1041
SWIDTH 656 0
DWIDTH 16 0
BBX 13 17 2 0
BITMAP
FFE0
FFE0
C000
C000
C000
C000
C000
FFC0
FFF0
C070
C018
C018
C018
C018
C030
FFF0
FFC0
ENDCHAR
STARTCHAR uni0412
ENCODING 1042
SWIDTH 666 0
DWIDTH 16 0
BBX 13 17 2 0
BITMAP
FF80
FFE0
C070
C030
C030
C030
C060
FFE0
FFE0
C070
C038
C018
C018
C018
C030
FFF0
FFC0
ENDCHAR
STARTCHAR uni0413
ENCODING 1043
SWIDTH 541 0
DWIDTH 13 0
BBX 11 17 2 0
BITMAP
FFE0
FFE0
C000
C000
C000
C000
C000
C000
C000
C000
C000
C000
C000
C000
C000
C000
C000
ENDCHAR
STARTCHAR uni0414
ENCODING 1044
SWIDTH 677 0
DWIDTH 16 0
BBX 16 21 0 -4
BITMAP
0FFC
0FFC
0C0C
0C0C
0C0C
0C0C
0C0C
0C0C
080C
180C
180C
180C
100C
300C
600C
FFFF
FFFF
C003
C003
C003
C003
ENDCHAR
STARTCHAR uni0415
ENCODING 1045
SWIDTH 666 0
DWIDTH 16 0
BBX 13 17 2 0
BITMAP
FFF8
FFF8
C000
C000
C000
C000
C000
FFF0
FFF0
C000
C000
C000
C000
C000
C000
FFF8
FFF8
ENDCHAR
STARTCHAR uni0416
ENCODING 1046
SWIDTH 923 0
DWIDTH 22 0
BBX 22 17 0 0
BITMAP
E0301C
F0303C
183060
1830E0
0C30C0
0C31C0
063180
03FF00
03FF00
073380
0E31C0
1C30E0
183060
303030
303030
603018
E0301C
ENDCHAR
STARTCHAR uni0417
ENCODING 1047
SWIDTH 604 0
DWIDTH 15 0
BBX 13 17 1 0
BITMAP
1F80
3FE0
7060
E030
C030
4030
0060
07C0
07E0
0070
0038
4018
E018
6038
7870
3FE0
0F80
ENDCHAR
STARTCHAR uni0418
ENCODING 1048
SWIDTH 718 0
DWIDTH 17 0
BBX 13 17 2 0
BITMAP
C018
C038
C078
C078
C0D8
C1D8
C198
C318
C718
C618
CC18
DC18
D818
F018
F018
E018
C018
ENDCHAR
STARTCHAR uni0419
ENCODING 1049
SWIDTH 718 0
DWIDTH 17 0
BBX 13 21 2 0
BITMAP
1040
0840
0780
0000
C018
C038
C078
C078
C0D8
C1D8
C198
C318
C718
C618
CC18
DC18
D818
F018
F018
E018
C018
ENDCHAR
STARTCHAR uni041A
ENCODING 1050
SWIDTH 582 0
DWIDTH 14 0
BBX 12 17 2 0
BITMAP
C070
C0F0
C180
C380
C300
C300
C600
FE00
F800
CE00
C700
C300
C180
C0C0
C0C0
C060
C070
ENDCHAR
STARTCHAR uni041B
ENCODING 1051
SWIDTH 656 0
DWIDTH 16 0
BBX 14 17 0 0
BITMAP
1FFC
1FFC
180C
180C
180C
180C
180C
180C
180C
180C
180C
180C
180C
180C
380C
F00C
600C
ENDCHAR
STARTCHAR uni041C
ENCODING 1052
SWIDTH 833 0
DWIDTH 19 0
BBX 15 17 2 0
BITMAP
E00E
F01E
F01E
F01E
D836
D836
D836
C826
CC66
CC66
CC66
C6C6
C6C6
C6C6
C286
C386
C386
ENDCHAR
STARTCHAR uni041D
ENCODING 1053
SWIDTH 722 0
DWIDTH 17 0
BBX 13 17 2 0
BITMAP
C018
C018
C018
C018
C018
C018
C018
FFF8
FFF8
C018
C018
C018
C018
C018
C018
C018
C018
ENDCHAR
STARTCHAR uni041E
ENCODING 1054
SWIDTH 777 0
DWIDTH 19 0
BBX 17 17 1 0
BITMAP
07F000
1FFC00
3C1E00
700700
600300
E00380
C00180
C00180
C00180
C00180
C00180
E00380
600300
700700
3C1E00
1FFC00
07F000
ENDCHAR
STARTCHAR uni041F
ENCODING 1055
SWIDTH 718 0
DWIDTH 17 0
BBX 13 17 2 0
BITMAP
FFF8
FFF8
C018
C018
C018
C018
C018
C018
C018
C018
C018
C018
C018
C018
C018
C018
C018
ENDCHAR
STARTCHAR uni0420
ENCODING 1056
SWIDTH 666 0
DWIDTH 16 0
BBX 13 17 2 0
BITMAP
FFC0
FFF0
C030
C018
C018
C018
C018
C030
FFF0
FFC0
C000
C000
C000
C000
C000
C000
C000
ENDCHAR
STARTCHAR uni0421
ENCODING 1057
SWIDTH 722 0
DWIDTH 17 0
BBX 15 17 1 0
BITMAP
07E0
1FF8
381C
700C
6006
E000
C000
C000
C000
C000
C000
C006
6006
700C
381C
1FF8
07E0
ENDCHAR
STARTCHAR uni0422
ENCODING 1058
SWIDTH 610 0
DWIDTH 14 0
BBX 14 17 0 0
BITMAP
FFFC
FFFC
0300
0300
0300
0300
0300
0300
0300
0300
0300
0300
0300
0300
0300
0300
0300
ENDCHAR
STARTCHAR uni0423
ENCODING 1059
SWIDTH 635 0
DWIDTH 15 0
BBX 13 17 1 0
BITMAP
C018
C018
6030
6030
3060
3060
18C0
18C0
0D80
0D80
0700
0700
0200
0600
0600
3C00
3800
ENDCHAR
STARTCHAR uni0424
ENCODING 1060
SWIDTH 760 0
DWIDTH 18 0
BBX 16 17 1 0
BITMAP
0180
0180
0FF0
3FFC
799E
6186
C183
C183
C183
C183
C183
6186
799E
3FFC
0FF0
0180
0180
ENDCHAR
STARTCHAR uni0425
ENCODING 1061
SWIDTH 666 0
DWIDTH 15 0
BBX 15 17 0 0
BITMAP
701C
3838
1870
1C70
0EE0
06C0
07C0
0380
0380
06C0
0EC0
0EE0
1C70
3838
3818
701C
E00E
ENDCHAR
STARTCHAR uni0426
ENCODING 1062
SWIDTH 739 0
DWIDTH 18 0
BBX 15 22 2 -5
BITMAP
C018
C018
C018
C018
C018
C018
C018
C018
C018
C018
C018
C018
C018
C018
C018
FFFE
FFFE
0006
0006
0006
0006
0006
ENDCHAR
STARTCHAR uni0427
ENCODING 1063
SWIDTH 666 0
DWIDTH 16 0
BBX 12 17 2 0
BITMAP
C030
C030
C030
C030
C030
C030
C030
C030
6070
7FF0
1F30
0030
0030
0030
0030
0030
0030
ENDCHAR
STARTCHAR uni0428
ENCODING 1064
SWIDTH 916 0
DWIDTH 22 0
BBX 20 17 1 0
BITMAP
C06030
C06030
C06030
C06030
C06030
C06030
C06030
C06030
C06030
C06030
C06030
C06030
C06030
C06030
C06030
FFFFF0
FFFFF0
ENDCHAR
STARTCHAR uni0429
ENCODING 1065
SWIDTH 937 0
DWIDTH 23 0
BBX 22 22 1 -5
BITMAP
C06030
C06030
C06030
C06030
C06030
C06030
C06030
C06030
C06030
C06030
C06030
C06030
C06030
C06030
C06030
FFFFFC
FFFFFC
00000C
00000C
00000C
00000C
00000C
ENDCHAR
STARTCHAR uni042A
ENCODING 1066
SWIDTH 791 0
DWIDTH 19 0
BBX 18 17 0 0
BITMAP
FE0000
FE0000
060000
060000
060000
060000
060000
07FE00
07FF80
060180
0600C0
0600C0
0600C0
0600C0
060180
07FF80
07FE00
ENDCHAR
STARTCHAR uni042B
ENCODING 1067
SWIDTH 885 0
DWIDTH 21 0
BBX 17 17 2 0
BITMAP
C00180
C00180
C00180
C00180
C00180
C00180
C00180
FFC180
FFF180
C07180
C01980
C01980
C01980
C01980
C03180
FFF180
FFC180
ENDCHAR
STARTCHAR uni042C
ENCODING 1068
SWIDTH 656 0
DWIDTH 16 0
BBX 13 17 2 0
BITMAP
C000
C000
C000
C000
C000
C000
C000
FFC0
FFF0
C030
C018
C018
C018
C018
C030
FFF0
FFC0
ENDCHAR
STARTCHAR uni042D
ENCODING 1069
SWIDTH 718 0
DWIDTH 17 0
BBX 15 17 1 0
BITMAP
0FC0
3FF0
7838
601C
E00C
4006
0006
03FE
03FE
0006
0006
400E
E00C
601C
7838
3FF0
0FC0
ENDCHAR
STARTCHAR uni042E
ENCODING 1070
SWIDTH 1010 0
DWIDTH 24 0
BBX 21 17 2 0
BITMAP
C03F00
C0FFC0
C1C0E0
C38070
C30030
C70038
C60018
C60018
FE0018
FE0018
C60018
C60038
C30030
C38070
C1C0E0
C0FFC0
C03F00
ENDCHAR
STARTCHAR uni042F
ENCODING 1071
SWIDTH 722 0
DWIDTH 17 0
BBX 14 17 1 0
BITMAP
1FFC
3FFC
700C
600C
600C
600C
700C
3FFC
0FFC
070C
0E0C
1C0C
1C0C
380C
300C
700C
E00C
ENDCHAR
STARTCHAR uni0430
ENCODING 1072
SWIDTH 556 0
DWIDTH 13 0
BBX 11 13 1 0
BITMAP
1F00
7F80
E1C0
C0C0
00C0
07C0
3FC0
78C0
C0C0
C1C0
E3C0
7FC0
3C60
ENDCHAR
STARTCHAR uni0431
ENCODING 1073
SWIDTH 572 0
DWIDTH 14 0
BBX 12 17 1 0
BITMAP
0FF0
3FE0
6000
4000
CF80
FFC0
F0E0
E060
C030
C030
C030
C030
C030
6060
70E0
3FC0
1F80
ENDCHAR
STARTCHAR uni0432
ENCODING 1074
SWIDTH 531 0
DWIDTH 13 0
BBX 10 13 2 0
BITMAP
FE00
FF00
C180
C180
C380
FF00
FF80
C1C0
C0C0
C0C0
C1C0
FF80
FF00
ENDCHAR
STARTCHAR uni0433
ENCODING 1075
SWIDTH 364 0
DWIDTH 9 0
BBX 7 13 2 0
BITMAP
FE
FE
C0
C0
C0
C0
C0
C0
C0
C0
C0
C0
C0
ENDCHAR
STARTCHAR uni0434
ENCODING 1076
SWIDTH 583 0
DWIDTH 14 0
BBX 13 17 0 -4
BITMAP
1FE0
1FE0
1860
1860
1860
1860
1860
3060
3060
3060
6060
FFF8
FFF8
C018
C018
C018
C018
ENDCHAR
STARTCHAR uni0435
ENCODING 1077
SWIDTH 556 0
DWIDTH 13 0
BBX 11 13 1 0
BITMAP
1F00
3F80
71C0
C0E0
C060
FFE0
FFE0
C000
C000
E060
71C0
3F80
1F00
ENDCHAR
STARTCHAR uni0436
ENCODING 1078
SWIDTH 668 0
DWIDTH 16 0
BBX 16 13 -1 0
BITMAP
718E
718E
1998
1998
1DB8
0DB0
07E0
1DB0
1998
318C
718E
6186
C183
ENDCHAR
STARTCHAR uni0437
ENCODING 1079
SWIDTH 458 0
DWIDTH 11 0
BBX 9 13 1 0
BITMAP
3E00
7F00
E380
C180
0180
0F00
0F00
0380
0180
C180
E380
7F00
3E00
ENDCHAR
STARTCHAR uni0438
ENCODING 1080
SWIDTH 558 0
DWIDTH 13 0
BBX 10 13 2 0
BITMAP
C1C0
C1C0
C3C0
C3C0
C6C0
CEC0
CCC0
DCC0
D8C0
F0C0
F0C0
E0C0
E0C0
ENDCHAR
STARTCHAR uni0439
ENCODING 1081
SWIDTH 558 0
DWIDTH 13 0
BBX 10 17 2 0
BITMAP
2080
3100
1E00
0000
C1C0
C1C0
C3C0
C3C0
C6C0
CEC0
CCC0
DCC0
D8C0
F0C0
F0C0
E0C0
E0C0
ENDCHAR
STARTCHAR uni043A
ENCODING 1082
SWIDTH 437 0
DWIDTH 11 0
BBX 9 13 2 0
BITMAP
C300
C700
C400
CC00
CC00
D800
F000
D800
CC00
C600
C700
C300
C180
ENDCHAR
STARTCHAR uni043B
ENCODING 1083
SWIDTH 583 0
DWIDTH 14 0
BBX 12 13 0 0
BITMAP
3FF0
3FF0
3030
3030
3030
3030
3030
3030
3030
3030
3030
F030
E030
ENDCHAR
STARTCHAR uni043C
ENCODING 1084
SWIDTH 687 0
DWIDTH 17 0
BBX 13 13 2 0
BITMAP
E038
F078
F078
F078
D8D8
D8D8
D8D8
CD98
CD98
CD98
CF18
C718
C718
ENDCHAR
STARTCHAR uni043D
ENCODING 1085
SWIDTH 552 0
DWIDTH 13 0
BBX 11 13 1 0
BITMAP
C060
C060
C060
C060
C060
FFE0
FFE0
C060
C060
C060
C060
C060
C060
ENDCHAR
STARTCHAR uni043E
ENCODING 1086
SWIDTH 556 0
DWIDTH 13 0
BBX 11 13 1 0
BITMAP
1F00
3F80
71C0
E0E0
C060
C060
C060
C060
C060
E0E0
71C0
3F80
1F00
ENDCHAR
STARTCHAR uni043F
ENCODING 1087
SWIDTH 541 0
DWIDTH 13 0
BBX 10 13 2 0
BITMAP
FFC0
FFC0
C0C0
C0C0
C0C0
C0C0
C0C0
C0C0
C0C0
C0C0
C0C0
C0C0
C0C0
ENDCHAR
STARTCHAR uni0440
ENCODING 1088
SWIDTH 556 0
DWIDTH 14 0
BBX 11 18 2 -5
BITMAP
CF00
DF80
F1C0
E0E0
C060
C060
C060
C060
C060
E0C0
F1C0
DF80
CF00
C000
C000
C000
C000
C000
ENDCHAR
STARTCHAR uni0441
ENCODING 1089
SWIDTH 500 0
DWIDTH 12 0
BBX 10 13 1 0
BITMAP
1F00
3F80
71C0
E0C0
C000
C000
C000
C000
C000
E0C0
71C0
3F80
1E00
ENDCHAR
STARTCHAR uni0442
ENCODING 1090
SWIDTH 458 0
DWIDTH 11 0
BBX 10 13 0 0
BITMAP
FFC0
FFC0
0C00
0C00
0C00
0C00
0C00
0C00
0C00
0C00
0C00
0C00
0C00
ENDCHAR
STARTCHAR uni0443
ENCODING 1091
SWIDTH 500 0
DWIDTH 12 0
BBX 10 18 1 -5
BITMAP
C0C0
C0C0
C180
6180
6180
6380
3300
3300
1B00
1E00
1E00
0E00
0C00
0C00
0C00
1800
7800
7000
ENDCHAR
STARTCHAR uni0444
ENCODING 1092
SWIDTH 822 0
DWIDTH 20 0
BBX 18 22 1 -5
BITMAP
00C000
00C000
00C000
00C000
1EDE00
3FFF00
61E380
E1E1C0
C0C0C0
C0C0C0
C0C0C0
C0C0C0
C0C0C0
E0C1C0
71E380
3FFF00
1EDE00
00C000
00C000
00C000
00C000
00C000
ENDCHAR
STARTCHAR uni0445
ENCODING 1093
SWIDTH 500 0
DWIDTH 11 0
BBX 11 13 0 0
BITMAP
E060
60C0
31C0
3980
1B00
0E00
0E00
0E00
1B00
3B80
3180
60C0
E0E0
ENDCHAR
STARTCHAR uni0446
ENCODING 1094
SWIDTH 572 0
DWIDTH 14 0
BBX 11 18 2 -5
BITMAP
C0C0
C0C0
C0C0
C0C0
C0C0
C0C0
C0C0
C0C0
C0C0
C0C0
C0C0
FFE0
FFE0
0060
0060
0060
0060
0060
ENDCHAR
STARTCHAR uni0447
ENCODING 1095
SWIDTH 520 0
DWIDTH 13 0
BBX 10 13 1 0
BITMAP
C0C0
C0C0
C0C0
C0C0
C0C0
C0C0
E1C0
7FC0
3EC0
00C0
00C0
00C0
00C0
ENDCHAR
STARTCHAR uni0448
ENCODING 1096
SWIDTH 802 0
DWIDTH 19 0
BBX 16 13 2 0
BITMAP
C183
C183
C183
C183
C183
C183
C183
C183
C183
C183
C183
FFFF
FFFF
ENDCHAR
STARTCHAR uni0449
ENCODING 1097
SWIDTH 822 0
DWIDTH 20 0
BBX 17 18 2 -5
BITMAP
C18300
C18300
C18300
C18300
C18300
C18300
C18300
C18300
C18300
C18300
C18300
FFFF80
FFFF80
000180
000180
000180
000180
000180
ENDCHAR
STARTCHAR uni044A
ENCODING 1098
SWIDTH 625 0
DWIDTH 15 0
BBX 13 13 1 0
BITMAP
F800
F800
1800
1800
1800
1FE0
1FF0
1838
1818
1818
1838
1FF0
1FE0
ENDCHAR
STARTCHAR uni044B
ENCODING 1099
SWIDTH 718 0
DWIDTH 17 0
BBX 13 13 2 0
BITMAP
C018
C018
C018
C018
C018
FF18
FF98
C1D8
C0D8
C0D8
C1D8
FF98
FF18
ENDCHAR
STARTCHAR uni044C
ENCODING 1100
SWIDTH 520 0
DWIDTH 13 0
BBX 10 13 2 0
BITMAP
C000
C000
C000
C000
C000
FF00
FF80
C1C0
C0C0
C0C0
C1C0
FF80
FF00
ENDCHAR
STARTCHAR uni044D
ENCODING 1101
SWIDTH 510 0
DWIDTH 12 0
BBX 10 13 1 0
BITMAP
3E00
7F00
E180
C1C0
00C0
0FC0
0FC0
00C0
C0C0
C1C0
6380
7F80
1E00
ENDCHAR
STARTCHAR uni044E
ENCODING 1102
SWIDTH 750 0
DWIDTH 18 0
BBX 15 13 2 0
BITMAP
C1F0
C3F8
C71C
CE0E
CC06
FC06
FC06
CC06
CC06
CE0E
C71C
C3F8
C1F0
ENDCHAR
STARTCHAR uni044F
ENCODING 1103
SWIDTH 541 0
DWIDTH 13 0
BBX 10 13 1 0
BITMAP
3FC0
7FC0
E0C0
C0C0
C0C0
E0C0
7FC0
0FC0
38C0
30C0
60C0
E0C0
C0C0
ENDCHAR
STARTCHAR uni0450
ENCODING 1104
SWIDTH 556 0
DWIDTH 13 0
BBX 11 17 1 0
BITMAP
0E00
0600
0200
0000
1F00
3F80
71C0
C0E0
C060
FFE0
FFE0
C000
C000
E060
71C0
3F80
1F00
ENDCHAR
STARTCHAR uni0451
ENCODING 1105
SWIDTH 556 0
DWIDTH 13 0
BBX 11 16 1 0
BITMAP
1980
1980
0000
1F00
3F80
71C0
C0E0
C060
FFE0
FFE0
C000
C000
E060
71C0
3F80
1F00
ENDCHAR
STARTCHAR uni0452
ENCODING 1106
SWIDTH 556 0
DWIDTH 14 0
BBX 12 22 0 -5
BITMAP
3000
FF00
FF00
3000
33C0
3FE0
3C70
3830
3030
3030
3030
3030
3030
3030
3030
3030
3030
0030
0030
0030
01F0
01E0
ENDCHAR
STARTCHAR uni0453
ENCODING 1107
SWIDTH 364 0
DWIDTH 9 0
BBX 7 17 2 0
BITMAP
1C
18
10
00
FE
FE
C0
C0
C0
C0
C0
C0
C0
C0
C0
C0
C0
ENDCHAR
STARTCHAR uni0454
ENCODING 1108
SWIDTH 510 0
DWIDTH 12 0
BBX 10 13 1 0
BITMAP
1F00
3F80
61C0
C0C0
C000
FC00
FC00
C000
C0C0
E0C0
6180
7F80
1E00
ENDCHAR
STARTCHAR uni0455
ENCODING 1109
SWIDTH 500 0
DWIDTH 12 0
BBX 10 13 1 0
BITMAP
3F00
7F80
E1C0
C0C0
E000
7E00
3F80
07C0
00C0
C0C0
E1C0
7F80
3F00
ENDCHAR
STARTCHAR uni0456
ENCODING 1110
SWIDTH 222 0
DWIDTH 5 0
BBX 2 17 2 0
BITMAP
C0
C0
00
00
C0
C0
C0
C0
C0
C0
C0
C0
C0
C0
C0
C0
C0
ENDCHAR
STARTCHAR uni0457
ENCODING 1111
SWIDTH 277 0
DWIDTH 6 0
BBX 6 16 0 0
BITMAP
CC
CC
00
30
30
30
30
30
30
30
30
30
30
30
30
30
ENDCHAR
STARTCHAR uni0458
ENCODING 1112
SWIDTH 222 0
DWIDTH 6 0
BBX 5 22 -1 -5
BITMAP
18
18
00
00
18
18
18
18
18
18
18
18
18
18
18
18
18
18
18
18
F8
F0
ENDCHAR
STARTCHAR uni0459
ENCODING 1113
SWIDTH 906 0
DWIDTH 22 0
BBX 21 13 0 0
BITMAP
1FF800
1FF800
181800
181800
181800
181FE0
181FF0
181838
181818
181818
181838
F81FF0
F01FE0
ENDCHAR
STARTCHAR uni045A
ENCODING 1114
SWIDTH 812 0
DWIDTH 20 0
BBX 17 13 2 0
BITMAP
C18000
C18000
C18000
C18000
C18000
FFFE00
FFFF00
C18380
C18180
C18180
C18380
C1FF00
C1FE00
ENDCHAR
STARTCHAR uni045B
ENCODING 1115
SWIDTH 556 0
DWIDTH 14 0
BBX 12 17 0 0
BITMAP
3000
FF00
FF00
3000
33C0
3FE0
3C70
3830
3030
3030
3030
3030
3030
3030
3030
3030
3030
ENDCHAR
STARTCHAR uni045C
ENCODING 1116
SWIDTH 437 0
DWIDTH 11 0
BBX 9 17 2 0
BITMAP
1C00
1800
1000
0000
C300
C700
C400
CC00
CC00
D800
F000
D800
CC00
C600
C700
C300
C180
ENDCHAR
STARTCHAR uni045D
ENCODING 1117
SWIDTH 558 0
DWIDTH 13 0
BBX 10 17 2 0
BITMAP
1C00
0C00
0400
0000
C1C0
C1C0
C3C0
C3C0
C6C0
CEC0
CCC0
DCC0
D8C0
F0C0
F0C0
E0C0
E0C0
ENDCHAR
STARTCHAR uni045E
ENCODING 1118
SWIDTH 500 0
DWIDTH 12 0
BBX 10 22 1 -5
BITMAP
4100
2300
1E00
0000
C0C0
C0C0
C180
6180
6180
6380
3300
3300
1B00
1E00
1E00
0E00
0C00
0C00
0C00
1800
7800
7000
ENDCHAR
STARTCHAR uni045F
ENCODING 1119
SWIDTH 552 0
DWIDTH 13 0
BBX 10 18 2 -5
BITMAP
C0C0
C0C0
C0C0
C0C0
C0C0
C0C0
C0C0
C0C0
C0C0
C0C0
C0C0
FFC0
FFC0
0C00
0C00
0C00
0C00
0C00
ENDCHAR
STARTCHAR uni0460
ENCODING 1120
SWIDTH 1337 0
DWIDTH 32 0
BBX 30 17 1 0
BITMAP
03F03F80
1FFCFFE0
3C0840F0
70000038
60000018
E000001C
C000000C
C000000C
C003000C
C003000C
C003000C
E003001C
60030018
70030038
3C0FC0F0
1FFCFFE0
03F03F00
ENDCHAR
STARTCHAR uni0461
ENCODING 1121
SWIDTH 624 0
DWIDTH 15 0
BBX 15 13 0 0
BITMAP
C606
C60C
C60C
C60C
C618
6318
6718
6730
37B0
3DB0
3DE0
1CE0
1CE0
ENDCHAR
STARTCHAR uni0462
ENCODING 1122
SWIDTH 777 0
DWIDTH 19 0
BBX 18 17 0 0
BITMAP
060000
060000
FFF000
FFF000
060000
060000
060000
07FE00
07FF80
060180
0600C0
0600C0
0600C0
0600C0
060380
07FF80
07FE00
ENDCHAR
STARTCHAR uni0463
ENCODING 1123
SWIDTH 612 0
DWIDTH 15 0
BBX 13 17 1 0
BITMAP
1800
1800
1800
1800
FF00
FF00
1800
1800
1800
1FE0
1FF0
1838
1818
1818
1838
1FF0
1FE0
ENDCHAR
STARTCHAR uni0464
ENCODING 1124
SWIDTH 949 0
DWIDTH 23 0
BBX 20 17 2 0
BITMAP
C03F00
C0FFC0
C1C1E0
C38060
C30070
C60020
C60000
FFFC00
FFFC00
C60000
C60000
C60020
C30070
C38060
C1C1E0
C0FFC0
C03F00
ENDCHAR
STARTCHAR uni0465
ENCODING 1125
SWIDTH 713 0
DWIDTH 17 0
BBX 14 13 2 0
BITMAP
C1F0
C7F8
C61C
CE0C
CC00
FFC0
FFC0
CC00
CC0C
CE0C
C618
C7F8
C1E0
ENDCHAR
STARTCHAR uni0466
ENCODING 1126
SWIDTH 667 0
DWIDTH 16 0
BBX 16 17 0 0
BITMAP
01C0
01C0
0360
0360
0670
0630
0E30
0C38
0FF8
1FF8
198C
318C
318C
7186
6186
6186
C183
ENDCHAR
STARTCHAR uni0467
ENCODING 1127
SWIDTH 500 0
DWIDTH 12 0
BBX 11 13 1 0
BITMAP
0E00
0E00
0E00
1B00
1B00
1B00
3180
3F80
3F80
6CC0
6CC0
ECC0
CC60
ENDCHAR
STARTCHAR uni0468
ENCODING 1128
SWIDTH 897 0
DWIDTH 22 0
BBX 19 17 2 0
BITMAP
C03800
C03800
C06C00
C06C00
C0CE00
C0C600
C1C600
C18700
FFFF00
FFFF00
C33180
C63180
C63180
CE30C0
CC30C0
CC30C0
D83060
ENDCHAR
STARTCHAR uni0469
ENCODING 1129
SWIDTH 695 0
DWIDTH 17 0
BBX 15 13 2 0
BITMAP
C0E0
C0E0
C0E0
C1B0
C1B0
C1B0
C318
FFF8
FFF8
C6CC
C6CC
C6CC
CCC6
ENDCHAR
STARTCHAR uni046A
ENCODING 1130
SWIDTH 828 0
DWIDTH 20 0
BBX 18 17 1 0
BITMAP
3FFF80
1FFF00
180600
0C0E00
060C00
061800
033000
01F000
0FFC00
3FFF00
78C780
60C180
C0C1C0
C0C0C0
C0C0C0
C0C0C0
C0C0C0
ENDCHAR
STARTCHAR uni046B
ENCODING 1131
SWIDTH 685 0
DWIDTH 16 0
BBX 14 13 1 0
BITMAP
7FF8
3FF0
1860
1860
0CC0
0CC0
1FE0
7FF8
6318
C30C
C30C
C30C
C30C
ENDCHAR
STARTCHAR uni046C
ENCODING 1132
SWIDTH 1053 0
DWIDTH 25 0
BBX 22 17 2 0
BITMAP
C3FFF8
C1FFF0
C18060
C0C0E0
C060C0
C06180
C03300
C01F00
FFFFC0
FFFFF0
C38C78
C60C18
CC0C1C
CC0C0C
CC0C0C
CC0C0C
CC0C0C
ENDCHAR
STARTCHAR uni046D
ENCODING 1133
SWIDTH 867 0
DWIDTH 21 0
BBX 18 13 2 0
BITMAP
C7FF80
C3FF00
C18600
C18600
C0CC00
C0CC00
FFFE00
FFFF80
C63180
CC30C0
CC30C0
CC30C0
CC30C0
ENDCHAR
STARTCHAR uni046E
ENCODING 1134
SWIDTH 604 0
DWIDTH 15 0
BBX 13 26 1 -5
BITMAP
1860
0C80
0D80
0500
0F80
3FE0
7070
6030
C030
C030
0060
07C0
07E0
0070
0018
0018
0018
0018
0070
1FE0
7F80
E000
C000
C1E0
7FF0
3E30
ENDCHAR
STARTCHAR uni046F
ENCODING 1135
SWIDTH 458 0
DWIDTH 11 0
BBX 10 22 0 -5
BITMAP
30C0
1900
1B00
0A00
1F00
3F80
71C0
60C0
00C0
0780
0780
01C0
00C0
00C0
01C0
3F80
7F00
E000
C000
C380
FFC0
3CC0
ENDCHAR
STARTCHAR uni0470
ENCODING 1136
SWIDTH 796 0
DWIDTH 19 0
BBX 17 17 1 0
BITMAP
C18180
E18180
618180
618180
718180
318180
318180
398380
198300
1D8F00
0FFE00
07F800
018000
018000
018000
018000
018000
ENDCHAR
STARTCHAR uni0471
ENCODING 1137
SWIDTH 688 0
DWIDTH 17 0
BBX 14 18 1 -5
BITMAP
C30C
C30C
630C
630C
630C
630C
330C
330C
330C
331C
1B38
1FF0
0FE0
0300
0300
0300
0300
0300
ENDCHAR
STARTCHAR uni0472
ENCODING 1138
SWIDTH 777 0
DWIDTH 19 0
BBX 17 17 1 0
BITMAP
07F000
1FFC00
3C1E00
700700
600300
E00380
C00180
DF0180
FFC380
E0FF80
C03D80
C00180
600300
700700
3C1E00
1FFC00
07F000
ENDCHAR
STARTCHAR uni0473
ENCODING 1139
SWIDTH 556 0
DWIDTH 13 0
BBX 11 13 1 0
BITMAP
1F00
3F80
71C0
E0E0
C060
F860
FFE0
C7E0
C060
E0E0
71C0
3F80
1F00
ENDCHAR
STARTCHAR uni0474
ENCODING 1140
SWIDTH 803 0
DWIDTH 19 0
BBX 19 17 0 0
BITMAP
C00380
C007E0
600640
600C00
300C00
301800
181800
181800
183000
0C3000
0C2000
066000
066000
02C000
03C000
038000
018000
ENDCHAR
STARTCHAR uni0475
ENCODING 1141
SWIDTH 630 0
DWIDTH 15 0
BBX 15 13 0 0
BITMAP
C03C
C07E
6064
6040
30C0
30C0
1180
1980
1900
0F00
0F00
0600
0600
ENDCHAR
STARTCHAR uni0476
ENCODING 1142
SWIDTH 803 0
DWIDTH 19 0
BBX 19 21 0 0
BITMAP
088000
0CC000
066000
000000
C00380
C007E0
600640
600C00
300C00
301800
181800
181800
183000
0C3000
0C2000
066000
066000
02C000
03C000
038000
018000
ENDCHAR
STARTCHAR uni0477
ENCODING 1143
SWIDTH 630 0
DWIDTH 15 0
BBX 15 17 0 0
BITMAP
3300
3300
1980
0000
C03C
C07E
6064
6040
30C0
30C0
1180
1980
1900
0F00
0F00
0600
0600
ENDCHAR
STARTCHAR uni0478
ENCODING 1144
SWIDTH 1074 0
DWIDTH 26 0
BBX 24 22 1 -5
BITMAP
0F8000
3FE000
707000
603000
E03603
C01B07
C01B06
C01B06
C0198E
C0198C
C0198C
C018DC
E030D8
6030D8
707078
3FE070
0F8070
000070
000060
0000E0
0003C0
000380
ENDCHAR
STARTCHAR uni0479
ENCODING 1145
SWIDTH 896 0
DWIDTH 22 0
BBX 20 18 1 -5
BITMAP
1C6030
7F3070
633060
E3B060
C198E0
C198C0
C198C0
C18DC0
C18D80
E38D80
630780
7F0700
1C0700
000700
000600
000E00
003C00
003800
ENDCHAR
STARTCHAR uni047A
ENCODING 1146
SWIDTH 833 0
DWIDTH 20 0
BBX 18 19 1 -1
BITMAP
01E000
07F800
1FFE00
38C700
700380
600180
E001C0
C000C0
C000C0
C000C0
C000C0
C000C0
E001C0
600180
700380
38C700
1FFE00
07F800
01E000
ENDCHAR
STARTCHAR uni047B
ENCODING 1147
SWIDTH 612 0
DWIDTH 15 0
BBX 14 15 0 -1
BITMAP
0780
1FE0
3FF0
7338
6018
C00C
C00C
C00C
C00C
C00C
6018
7338
3FF0
1FE0
0780
ENDCHAR
STARTCHAR uni047C
ENCODING 1148
SWIDTH 1190 0
DWIDTH 29 0
BBX 27 24 1 0
BITMAP
001E0000
003F8000
0061E000
00EC7800
00CC3800
00040000
00080000
07E0FC00
1FF1FF00
38208380
700001C0
600000C0
C00000E0
C0000060
C0000060
C0000060
C0000060
C0000060
C0000060
600000C0
700001C0
381E0380
1FFFFF00
07E1FC00
ENDCHAR
STARTCHAR uni047D
ENCODING 1149
SWIDTH 851 0
DWIDTH 20 0
BBX 18 21 1 0
BITMAP
01E000
03F800
061E00
0EC780
0CC380
004000
008000
000000
1C0E00
3C0F00
700380
E00180
C000C0
C000C0
C000C0
C000C0
C000C0
E001C0
61C380
3FFF00
1F7E00
ENDCHAR
STARTCHAR uni047E
ENCODING 1150
SWIDTH 1337 0
DWIDTH 32 0
BBX 30 20 1 0
BITMAP
003FF800
00111000
00000000
03F03F80
1FFCFFE0
3C0840F0
70000038
60000018
E000001C
C000000C
C000000C
C003000C
C003000C
C003000C
E003001C
60030018
70030038
3C0FC0F0
1FFCFFE0
03F03F00
ENDCHAR
STARTCHAR uni047F
ENCODING 1151
SWIDTH 624 0
DWIDTH 15 0
BBX 15 16 0 0
BITMAP
3FF0
2220
0000
C606
C60C
C60C
C60C
C618
6318
6718
6730
37B0
3DB0
3DE0
1CE0
1CE0
ENDCHAR
STARTCHAR uni0480
ENCODING 1152
SWIDTH 722 0
DWIDTH 17 0
BBX 15 22 1 -5
BITMAP
07E0
1FF8
383C
700C
600E
C006
C000
C000
C000
C000
C000
C000
6000
7000
3800
1F80
0780
0180
0180
0180
0180
0180
ENDCHAR
STARTCHAR uni0481
ENCODING 1153
SWIDTH 500 0
DWIDTH 12 0
BBX 10 18 1 -5
BITMAP
1F00
3F80
71C0
E0C0
C000
C000
C000
C000
C000
E000
7000
3E00
1E00
0600
0600
0600
0600
0600
ENDCHAR
STARTCHAR uni0482
ENCODING 1154
SWIDTH 503 0
DWIDTH 12 0
BBX 12 17 0 0
BITMAP
01C0
0180
0180
0180
3B00
7F80
07F0
0670
0600
E600
FF00
1FC0
0CC0
0C00
1800
1800
1800
ENDCHAR
STARTCHAR uni0483
ENCODING 1155
SWIDTH 0 0
DWIDTH 0 0
BBX 8 5 -4 14
BITMAP
07
07
FF
E0
E0
ENDCHAR
STARTCHAR uni0484
ENCODING 1156
SWIDTH 0 0
DWIDTH 0 0
BBX 8 3 -4 14
BITMAP
1E
F1
E1
ENDCHAR
STARTCHAR uni0485
ENCODING 1157
SWIDTH 0 0
DWIDTH 0 0
BBX 2 5 -1 12
BITMAP
C0
C0
80
C0
40
ENDCHAR
STARTCHAR uni0486
ENCODING 1158
SWIDTH 0 0
DWIDTH 0 0
BBX 2 5 -1 12
BITMAP
C0
C0
40
C0
80
ENDCHAR
STARTCHAR uni0487
ENCODING 1159
SWIDTH 0 0
DWIDTH 0 0
BBX 13 5 -7 16
BITMAP
1E00
3F80
61E0
E078
C038
ENDCHAR
STARTCHAR uni0488
ENCODING 1160
SWIDTH 0 0
DWIDTH 0 0
BBX 23 22 -12 -5
BITMAP
003800
004400
004400
380038
440044
440044
000000
000000
000000
70001C
880022
880022
000000
000000
000000
000000
380038
440044
440044
003800
004400
004400
ENDCHAR
STARTCHAR uni0489
ENCODING 1161
SWIDTH 0 0
DWIDTH 0 0
BBX 22 23 -11 -5
BITMAP
001000
002000
003000
103000
100070
1800C0
1C0080
080000
000000
000000
000038
B00034
700000
000000
000000
000040
0800E0
1C0020
780020
003000
003000
001000
002000
ENDCHAR
STARTCHAR uni048A
ENCODING 1162
SWIDTH 718 0
DWIDTH 17 0
BBX 15 26 2 -5
BITMAP
1040
18C0
0F80
0000
C018
C038
C078
C078
C0D8
C1D8
C198
C318
C718
C618
CC18
DC18
D818
F018
F018
E01E
C01E
000C
000C
000C
0018
0018
ENDCHAR
STARTCHAR uni048B
ENCODING 1163
SWIDTH 558 0
DWIDTH 13 0
BBX 12 21 1 -4
BITMAP
4100
6300
3E00
0000
C1C0
C1C0
C3C0
C3C0
C6C0
CEC0
CCC0
DCC0
D8C0
F0C0
F0C0
E0F0
E0F0
0060
0060
0060
00C0
ENDCHAR
STARTCHAR uni048C
ENCODING 1164
SWIDTH 656 0
DWIDTH 16 0
BBX 15 17 0 0
BITMAP
3000
3000
FC00
FC00
3000
3000
3000
3FF0
3FFC
300C
3006
3006
3006
3006
301C
3FFC
3FF0
ENDCHAR
STARTCHAR uni048D
ENCODING 1165
SWIDTH 520 0
DWIDTH 13 0
BBX 12 17 0 0
BITMAP
3000
3000
FC00
FC00
3000
3000
3000
3000
3000
3FC0
3FE0
3070
3030
3030
3070
3FE0
3FC0
ENDCHAR
STARTCHAR uni048E
ENCODING 1166
SWIDTH 666 0
DWIDTH 16 0
BBX 13 17 2 0
BITMAP
FFC0
FFF0
C030
C018
C018
C058
C0F8
C070
FFF8
FFD8
C000
C000
C000
C000
C000
C000
C000
ENDCHAR
STARTCHAR uni048F
ENCODING 1167
SWIDTH 556 0
DWIDTH 13 0
BBX 11 18 1 -5
BITMAP
CF00
DF80
F1C0
E0E0
C060
C060
C060
C060
C060
E3C0
F1C0
DFC0
CF60
C000
C000
C000
C000
C000
ENDCHAR
STARTCHAR uni0490
ENCODING 1168
SWIDTH 488 0
DWIDTH 12 0
BBX 9 22 2 0
BITMAP
0180
0180
0180
0180
0180
FF80
FF80
C000
C000
C000
C000
C000
C000
C000
C000
C000
C000
C000
C000
C000
C000
C000
ENDCHAR
STARTCHAR uni0491
ENCODING 1169
SWIDTH 411 0
DWIDTH 10 0
BBX 7 17 2 0
BITMAP
06
06
06
06
FE
FE
C0
C0
C0
C0
C0
C0
C0
C0
C0
C0
C0
ENDCHAR
STARTCHAR uni0492
ENCODING 1170
SWIDTH 541 0
DWIDTH 13 0
BBX 13 17 0 0
BITMAP
3FF8
3FF8
3000
3000
3000
3000
3000
FF80
FF80
3000
3000
3000
3000
3000
3000
3000
3000
ENDCHAR
STARTCHAR uni0493
ENCODING 1171
SWIDTH 364 0
DWIDTH 9 0
BBX 8 13 1 0
BITMAP
7F
7F
60
60
60
FC
FC
60
60
60
60
60
60
ENDCHAR
STARTCHAR uni0494
ENCODING 1172
SWIDTH 670 0
DWIDTH 16 0
BBX 13 22 2 -5
BITMAP
FFE0
FFE0
C000
C000
C000
C000
CF80
FFE0
F070
C030
C038
C018
C018
C018
C018
C018
C018
0030
0070
E0E0
7FC0
1F80
ENDCHAR
STARTCHAR uni0495
ENCODING 1173
SWIDTH 548 0
DWIDTH 13 0
BBX 10 18 2 -5
BITMAP
FE00
FE00
C000
C000
C000
C000
FE00
FF00
C380
C1C0
C0C0
C0C0
C0C0
00C0
C1C0
E380
7F00
3E00
ENDCHAR
STARTCHAR uni0496
ENCODING 1174
SWIDTH 923 0
DWIDTH 22 0
BBX 22 22 0 -5
BITMAP
E0301C
F0303C
183060
1830E0
0C30C0
0C30C0
063180
03FF00
03FF00
073380
0E30C0
1C3060
183060
303030
303038
60301C
C0300C
00000C
00000C
00000C
00000C
00000C
ENDCHAR
STARTCHAR uni0497
ENCODING 1175
SWIDTH 668 0
DWIDTH 16 0
BBX 16 17 0 -4
BITMAP
E187
F18F
318C
399C
1998
0FF0
0FF0
1D98
199C
318C
7186
6187
C183
0003
0003
0003
0003
ENDCHAR
STARTCHAR uni0498
ENCODING 1176
SWIDTH 604 0
DWIDTH 15 0
BBX 13 22 1 -5
BITMAP
1F80
3FE0
7070
E030
C030
4030
0060
07C0
07F0
0070
0018
4018
E018
6038
7870
3FE0
0F80
0100
0100
0100
0300
1E00
ENDCHAR
STARTCHAR uni0499
ENCODING 1177
SWIDTH 458 0
DWIDTH 11 0
BBX 9 18 1 -5
BITMAP
3E00
7F00
E380
C180
0380
1F00
1F00
0380
0180
C180
E380
7F00
3E00
0400
0400
0400
0C00
7800
ENDCHAR
STARTCHAR uni049A
ENCODING 1178
SWIDTH 582 0
DWIDTH 14 0
BBX 12 22 2 -5
BITMAP
C070
C0F0
C180
C380
C300
C700
CE00
FC00
FC00
CE00
C300
C380
C180
C0C0
C0C0
C070
C070
0030
0030
0030
0030
0030
ENDCHAR
STARTCHAR uni049B
ENCODING 1179
SWIDTH 437 0
DWIDTH 11 0
BBX 9 17 2 -4
BITMAP
C380
C780
C600
CE00
CC00
F800
F800
CC00
C600
C600
C300
C380
C180
0180
0180
0180
0180
ENDCHAR
STARTCHAR uni049C
ENCODING 1180
SWIDTH 582 0
DWIDTH 14 0
BBX 12 17 2 0
BITMAP
C0F0
C1F0
D380
D300
D600
DC00
D800
F800
F000
D800
DC00
D600
D300
D180
C0C0
C0E0
C070
ENDCHAR
STARTCHAR uni049D
ENCODING 1181
SWIDTH 437 0
DWIDTH 11 0
BBX 9 13 2 0
BITMAP
C380
D780
D600
DC00
DC00
F800
F800
DC00
DC00
D600
D600
C300
C180
ENDCHAR
STARTCHAR uni049E
ENCODING 1182
SWIDTH 582 0
DWIDTH 14 0
BBX 14 17 0 0
BITMAP
301C
303C
FC70
FC60
30C0
30C0
3380
3F80
3E00
3380
31C0
30C0
3060
3030
3030
3018
301C
ENDCHAR
STARTCHAR uni049F
ENCODING 1183
SWIDTH 437 0
DWIDTH 11 0
BBX 11 17 0 0
BITMAP
3000
3000
FF00
3000
30C0
31C0
3180
3300
3300
3600
3C00
3600
3300
3180
31C0
30C0
3060
ENDCHAR
STARTCHAR uni04A0
ENCODING 1184
SWIDTH 741 0
DWIDTH 18 0
BBX 18 17 0 0
BITMAP
FF01C0
FF03C0
030700
030600
030C00
030C00
033800
03F800
03E000
033800
031C00
030C00
030600
030300
030300
030180
0301C0
ENDCHAR
STARTCHAR uni04A1
ENCODING 1185
SWIDTH 535 0
DWIDTH 13 0
BBX 13 13 0 0
BITMAP
FC30
FC70
0C60
0CC0
0CC0
0D80
0F00
0D80
0CC0
0C60
0C70
0C30
0C18
ENDCHAR
STARTCHAR uni04A2
ENCODING 1186
SWIDTH 722 0
DWIDTH 17 0
BBX 15 22 2 -5
BITMAP
C018
C018
C018
C018
C018
C018
C018
FFF8
FFF8
C018
C018
C018
C018
C018
C018
C01E
C01E
0006
0006
0006
0006
0006
ENDCHAR
STARTCHAR uni04A3
ENCODING 1187
SWIDTH 552 0
DWIDTH 13 0
BBX 10 17 2 -4
BITMAP
C180
C180
C180
C180
C180
FF80
FF80
C180
C180
C180
C180
C1C0
C1C0
00C0
00C0
00C0
00C0
ENDCHAR
STARTCHAR uni04A4
ENCODING 1188
SWIDTH 879 0
DWIDTH 21 0
BBX 19 17 2 0
BITMAP
C01FE0
C01FE0
C01800
C01800
C01800
C01800
C01800
FFF800
FFF800
C01800
C01800
C01800
C01800
C01800
C01800
C01800
C01800
ENDCHAR
STARTCHAR uni04A5
ENCODING 1189
SWIDTH 647 0
DWIDTH 16 0
BBX 14 13 2 0
BITMAP
C0FC
C0FC
C0C0
C0C0
C0C0
FFC0
FFC0
C0C0
C0C0
C0C0
C0C0
C0C0
C0C0
ENDCHAR
STARTCHAR uni04A6
ENCODING 1190
SWIDTH 1136 0
DWIDTH 27 0
BBX 24 22 2 -5
BITMAP
FFF800
FFF800
C01800
C01800
C01800
C01800
C019F0
C01FFC
C01E0E
C01806
C01807
C01803
C01803
C01803
C01803
C01803
C01803
000006
00000E
001C1C
000FF8
0003F0
ENDCHAR
STARTCHAR uni04A7
ENCODING 1191
SWIDTH 870 0
DWIDTH 21 0
BBX 18 18 2 -5
BITMAP
FFC000
FFC000
C0C000
C0C000
C0C000
C0C000
C0FE00
C0FF00
C0C380
C0C1C0
C0C0C0
C0C0C0
C0C0C0
0000C0
00C1C0
00E380
007F00
003E00
ENDCHAR
STARTCHAR uni04A8
ENCODING 1192
SWIDTH 752 0
DWIDTH 18 0
BBX 17 17 1 0
BITMAP
0F8000
1F8000
307800
60FC00
60CC00
C18600
C18600
C18600
C18600
C18600
C18600
C18600
60CC00
70FC00
387800
1FFF80
07DF80
ENDCHAR
STARTCHAR uni04A9
ENCODING 1193
SWIDTH 520 0
DWIDTH 13 0
BBX 13 13 0 0
BITMAP
1E00
3E00
61C0
E3E0
C770
C630
C630
C630
C630
E360
73E0
3FF8
1FF8
ENDCHAR
STARTCHAR uni04AA
ENCODING 1194
SWIDTH 722 0
DWIDTH 17 0
BBX 15 22 1 -5
BITMAP
07E0
1FF8
381C
700C
6006
C000
C000
C000
C000
C000
C000
C006
6006
700C
381C
1FF8
07E0
0080
0080
0080
0180
0F00
ENDCHAR
STARTCHAR uni04AB
ENCODING 1195
SWIDTH 500 0
DWIDTH 12 0
BBX 10 18 1 -5
BITMAP
1F00
3F80
71C0
E0C0
C000
C000
C000
C000
C000
E0C0
61C0
7F80
1E00
0400
0400
0400
0C00
7800
ENDCHAR
STARTCHAR uni04AC
ENCODING 1196
SWIDTH 610 0
DWIDTH 15 0
BBX 13 22 1 -5
BITMAP
FFF8
FFF8
0600
0600
0600
0600
0600
0600
0600
0600
0600
0600
0600
0600
0600
0780
0780
0180
0180
0180
0180
0180
ENDCHAR
STARTCHAR uni04AD
ENCODING 1197
SWIDTH 458 0
DWIDTH 11 0
BBX 10 17 0 -4
BITMAP
FFC0
FFC0
0C00
0C00
0C00
0C00
0C00
0C00
0C00
0C00
0C00
0E00
0E00
0600
0600
0600
0600
ENDCHAR
STARTCHAR uni04AE
ENCODING 1198
SWIDTH 556 0
DWIDTH 13 0
BBX 14 17 0 0
BITMAP
E01C
6018
3038
3030
1860
1CE0
0CC0
07C0
0780
0300
0300
0300
0300
0300
0300
0300
0300
ENDCHAR
STARTCHAR uni04AF
ENCODING 1199
SWIDTH 500 0
DWIDTH 12 0
BBX 12 18 0 -5
BITMAP
C030
6060
6060
60E0
30C0
30C0
19C0
1980
1980
0F00
0F00
0F00
0600
0600
0600
0600
0600
0600
ENDCHAR
STARTCHAR uni04B0
ENCODING 1200
SWIDTH 556 0
DWIDTH 13 0
BBX 14 17 0 0
BITMAP
E01C
6018
3030
3030
1860
1CE0
0CC0
0780
7FF8
7FF8
0300
0300
0300
0300
0300
0300
0300
ENDCHAR
STARTCHAR uni04B1
ENCODING 1201
SWIDTH 500 0
DWIDTH 12 0
BBX 12 18 0 -5
BITMAP
C030
6060
6060
60E0
30C0
30C0
19C0
1980
1980
0F00
0F00
0F00
0600
7FE0
7FE0
0600
0600
0600
ENDCHAR
STARTCHAR uni04B2
ENCODING 1202
SWIDTH 666 0
DWIDTH 16 0
BBX 15 22 0 -5
BITMAP
700E
300C
1818
1C30
0E70
0660
03C0
0380
0380
03C0
06E0
0C60
1C30
1818
301C
600E
E006
0006
0006
0006
0006
0006
ENDCHAR
STARTCHAR uni04B3
ENCODING 1203
SWIDTH 500 0
DWIDTH 12 0
BBX 11 17 1 -4
BITMAP
E0E0
60C0
3180
3B80
1B00
0E00
0E00
0F00
1B00
3980
31C0
60E0
E060
0060
0060
0060
0060
ENDCHAR
STARTCHAR uni04B4
ENCODING 1204
SWIDTH 925 0
DWIDTH 22 0
BBX 20 22 1 -5
BITMAP
FFF8C0
FFF8C0
0600C0
0600C0
0600C0
0600C0
0600C0
0600C0
0600C0
0600C0
0600C0
0600C0
0600C0
0600C0
0600C0
07FFF0
07FFF0
000030
000030
000030
000030
000030
ENDCHAR
STARTCHAR uni04B5
ENCODING 1205
SWIDTH 690 0
DWIDTH 17 0
BBX 16 17 0 -4
BITMAP
FFE6
FFE6
0C06
0C06
0C06
0C06
0C06
0C06
0C06
0C06
0C06
0FFF
0FFF
0003
0003
0003
0003
ENDCHAR
STARTCHAR uni04B6
ENCODING 1206
SWIDTH 666 0
DWIDTH 16 0
BBX 14 22 2 -5
BITMAP
C030
C030
C030
C030
C030
C030
C030
C030
6070
7FF0
1F30
0030
0030
0030
0030
003C
003C
000C
000C
000C
000C
000C
ENDCHAR
STARTCHAR uni04B7
ENCODING 1207
SWIDTH 520 0
DWIDTH 13 0
BBX 11 17 1 -4
BITMAP
C0C0
C0C0
C0C0
C0C0
C0C0
C0C0
E1C0
7FC0
3EC0
00C0
00C0
00E0
00E0
0060
0060
0060
0060
ENDCHAR
STARTCHAR uni04B8
ENCODING 1208
SWIDTH 666 0
DWIDTH 16 0
BBX 12 17 2 0
BITMAP
C030
C030
C030
C030
C430
C430
C430
C430
64F0
7FF0
3F30
0430
0430
0430
0030
0030
0030
ENDCHAR
STARTCHAR uni04B9
ENCODING 1209
SWIDTH 520 0
DWIDTH 13 0
BBX 10 13 1 0
BITMAP
C0C0
C0C0
C0C0
C8C0
C8C0
E8C0
7FC0
3EC0
08C0
08C0
08C0
00C0
00C0
ENDCHAR
STARTCHAR uni04BA
ENCODING 1210
SWIDTH 666 0
DWIDTH 16 0
BBX 13 17 2 0
BITMAP
C000
C000
C000
C000
C000
C000
CFC0
FFF0
F070
C038
C018
C018
C018
C018
C018
C018
C018
ENDCHAR
STARTCHAR uni04BB
ENCODING 1211
SWIDTH 556 0
DWIDTH 14 0
BBX 10 17 2 0
BITMAP
C000
C000
C000
C000
CF00
DF80
F1C0
E0C0
C0C0
C0C0
C0C0
C0C0
C0C0
C0C0
C0C0
C0C0
C0C0
ENDCHAR
STARTCHAR uni04BC
ENCODING 1212
SWIDTH 861 0
DWIDTH 21 0
BBX 20 17 0 0
BITMAP
007E00
01FF80
0381C0
0700E0
060060
8E0070
CC0030
CC0030
FFFFF0
3FFFF0
0C0000
0C0000
060060
0700E0
0381C0
01FF80
007E00
ENDCHAR
STARTCHAR uni04BD
ENCODING 1213
SWIDTH 666 0
DWIDTH 16 0
BBX 15 13 0 0
BITMAP
01F0
03F8
071C
CE0E
CC06
FFFE
7FFE
0C00
0C00
0E06
070E
03FC
01F0
ENDCHAR
STARTCHAR uni04BE
ENCODING 1214
SWIDTH 861 0
DWIDTH 21 0
BBX 20 20 0 -3
BITMAP
007E00
01FF80
0381C0
0700E0
060060
CE0070
CC0030
CC0030
FFFFF0
3FFFF0
0C0000
0C0000
060060
0700E0
0381C0
01FF80
007E00
001800
001800
001800
ENDCHAR
STARTCHAR uni04BF
ENCODING 1215
SWIDTH 666 0
DWIDTH 16 0
BBX 15 16 0 -3
BITMAP
01F0
03F8
C70C
CE06
CC06
FFFE
7FFE
0C00
0C00
0E06
070E
03FC
01F8
0060
0060
0060
ENDCHAR
STARTCHAR uni04C0
ENCODING 1216
SWIDTH 277 0
DWIDTH 6 0
BBX 2 17 2 0
BITMAP
C0
C0
C0
C0
C0
C0
C0
C0
C0
C0
C0
C0
C0
C0
C0
C0
C0
ENDCHAR
STARTCHAR uni04C1
ENCODING 1217
SWIDTH 923 0
DWIDTH 22 0
BBX 22 21 0 0
BITMAP
008200
00C600
007C00
000000
E0301C
F0303C
183060
1830E0
0C30C0
0C31C0
063180
03FF00
03FF00
073380
0E31C0
1C30E0
183060
303030
303030
603018
E0301C
ENDCHAR
STARTCHAR uni04C2
ENCODING 1218
SWIDTH 668 0
DWIDTH 16 0
BBX 16 17 -1 0
BITMAP
0410
0230
01E0
0000
718E
718E
1998
1998
1DB8
0DB0
07E0
1DB0
1998
318C
718E
6186
C183
ENDCHAR
STARTCHAR uni04C3
ENCODING 1219
SWIDTH 667 0
DWIDTH 16 0
BBX 13 22 2 -5
BITMAP
C070
C0F0
C1C0
C180
C300
C300
C600
FFC0
FFE0
C0F0
C030
C038
C018
C018
C018
C018
C018
0030
0030
E0E0
7FC0
1F80
ENDCHAR
STARTCHAR uni04C4
ENCODING 1220
SWIDTH 550 0
DWIDTH 13 0
BBX 10 18 2 -5
BITMAP
C380
C780
C600
CC00
CC00
D800
FE00
FF00
C380
C1C0
C0C0
C0C0
C0C0
00C0
C1C0
E380
7F00
3E00
ENDCHAR
STARTCHAR uni04C5
ENCODING 1221
SWIDTH 656 0
DWIDTH 16 0
BBX 16 22 0 -5
BITMAP
1FFC
1FFC
180C
180C
180C
180C
180C
180C
180C
180C
180C
180C
180C
180C
380C
F00F
E00F
0006
0006
0006
000C
000C
ENDCHAR
STARTCHAR uni04C6
ENCODING 1222
SWIDTH 583 0
DWIDTH 14 0
BBX 14 17 0 -4
BITMAP
3FF0
3FF0
3030
3030
3030
3030
3030
3030
3030
3030
3030
F03C
E03C
0018
0018
0018
0030
ENDCHAR
STARTCHAR uni04C7
ENCODING 1223
SWIDTH 722 0
DWIDTH 17 0
BBX 13 22 2 -5
BITMAP
C018
C018
C018
C018
C018
C018
C018
FFF8
FFF8
C018
C018
C018
C018
C018
C018
C018
C018
0030
0070
E0E0
7FC0
1F80
ENDCHAR
STARTCHAR uni04C8
ENCODING 1224
SWIDTH 552 0
DWIDTH 13 0
BBX 11 18 1 -5
BITMAP
C060
C060
C060
C060
C060
FFE0
FFE0
C060
C060
C060
C060
C060
C060
0060
C0E0
E1C0
7F80
1F00
ENDCHAR
STARTCHAR uni04C9
ENCODING 1225
SWIDTH 722 0
DWIDTH 17 0
BBX 15 22 2 -5
BITMAP
C018
C018
C018
C018
C018
C018
C018
FFF8
FFF8
C018
C018
C018
C018
C018
C018
C01E
C01E
000C
000C
000C
0018
0018
ENDCHAR
STARTCHAR uni04CA
ENCODING 1226
SWIDTH 552 0
DWIDTH 13 0
BBX 12 17 1 -4
BITMAP
C0C0
C0C0
C0C0
C0C0
C0C0
FFC0
FFC0
C0C0
C0C0
C0C0
C0C0
C0F0
C0F0
0060
0060
0060
00C0
ENDCHAR
STARTCHAR uni04CB
ENCODING 1227
SWIDTH 666 0
DWIDTH 16 0
BBX 12 22 2 -5
BITMAP
C030
C030
C030
C030
C030
C030
C030
C030
6070
7FF0
1F30
0030
0030
0030
0030
00F0
00F0
00C0
00C0
00C0
00C0
00C0
ENDCHAR
STARTCHAR uni04CC
ENCODING 1228
SWIDTH 520 0
DWIDTH 13 0
BBX 10 17 1 -4
BITMAP
C0C0
C0C0
C0C0
C0C0
C0C0
C0C0
E1C0
7FC0
3EC0
00C0
00C0
01C0
01C0
0180
0180
0180
0180
ENDCHAR
STARTCHAR uni04CD
ENCODING 1229
SWIDTH 833 0
DWIDTH 20 0
BBX 17 22 2 -5
BITMAP
E00E00
F01E00
F01E00
F01E00
D83600
D83600
D83600
C82600
CC6600
CC6600
C46600
C6C600
C6C600
C6C600
C38600
C38780
C38780
000300
000300
000300
000600
000600
ENDCHAR
STARTCHAR uni04CE
ENCODING 1230
SWIDTH 687 0
DWIDTH 17 0
BBX 15 17 2 -4
BITMAP
E038
F078
F078
F078
D8D8
D8D8
D8D8
CD98
CD98
CD98
CF18
C71E
C71E
000C
000C
000C
0018
ENDCHAR
STARTCHAR uni04CF
ENCODING 1231
SWIDTH 222 0
DWIDTH 6 0
BBX 2 17 2 0
BITMAP
C0
C0
C0
C0
C0
C0
C0
C0
C0
C0
C0
C0
C0
C0
C0
C0
C0
ENDCHAR
STARTCHAR uni04D0
ENCODING 1232
SWIDTH 666 0
DWIDTH 15 0
BBX 15 21 0 0
BITMAP
0820
0C60
07C0
0000
0380
0380
06C0
06C0
0EE0
0C60
0C60
1830
1830
1830
3FF8
3FF8
701C
600C
600C
C006
C006
ENDCHAR
STARTCHAR uni04D1
ENCODING 1233
SWIDTH 556 0
DWIDTH 13 0
BBX 11 17 1 0
BITMAP
4100
2300
1E00
0000
1F00
7F80
E1C0
C0C0
00C0
07C0
3FC0
78C0
C0C0
C1C0
E3C0
7FC0
3C60
ENDCHAR
STARTCHAR uni04D2
ENCODING 1234
SWIDTH 666 0
DWIDTH 15 0
BBX 15 20 0 0
BITMAP
0660
0660
0000
0380
0380
06C0
06C0
0EE0
0C60
0C60
1830
1830
1830
3FF8
3FF8
701C
600C
600C
C006
C006
ENDCHAR
STARTCHAR uni04D3
ENCODING 1235
SWIDTH 556 0
DWIDTH 13 0
BBX 11 16 1 0
BITMAP
3300
3300
0000
1F00
7F80
E1C0
C0C0
00C0
07C0
3FC0
78C0
C0C0
C1C0
E3C0
7FC0
3C60
ENDCHAR
STARTCHAR uni04D4
ENCODING 1236
SWIDTH 1000 0
DWIDTH 24 0
BBX 23 17 0 0
BITMAP
00FFFE
01FFFE
019800
031800
031800
061800
061800
0C1FFC
0C1FFC
181800
1FF800
3FF800
301800
601800
601800
C01FFE
C01FFE
ENDCHAR
STARTCHAR uni04D5
ENCODING 1237
SWIDTH 889 0
DWIDTH 21 0
BBX 20 13 1 0
BITMAP
1F8F80
7FFFC0
60F860
C06020
01E030
3FFFF0
7E7FF0
E06000
C06000
C0F030
E1F860
7FBFC0
3E0F80
ENDCHAR
STARTCHAR uni04D6
ENCODING 1238
SWIDTH 666 0
DWIDTH 16 0
BBX 13 21 2 0
BITMAP
1040
08C0
0780
0000
FFF8
FFF8
C000
C000
C000
C000
C000
FFF0
FFF0
C000
C000
C000
C000
C000
C000
FFF8
FFF8
ENDCHAR
STARTCHAR uni04D7
ENCODING 1239
SWIDTH 556 0
DWIDTH 13 0
BBX 11 17 1 0
BITMAP
1080
1080
0F00
0000
1F00
3F80
71C0
C0E0
C060
FFE0
FFE0
C000
C000
E060
71C0
3F80
1F00
ENDCHAR
STARTCHAR uni018F.dup4
ENCODING 1240
SWIDTH 752 0
DWIDTH 18 0
BBX 16 17 1 0
BITMAP
07E0
1FF8
381C
700E
6006
0003
0003
FFFF
FFFF
C003
C003
E007
6006
700E
381C
1FF8
07E0
ENDCHAR
STARTCHAR uni0259.dup5
ENCODING 1241
SWIDTH 556 0
DWIDTH 13 0
BBX 11 13 1 0
BITMAP
1F00
7F80
E1C0
C0E0
0060
0060
FFE0
FFE0
C060
C0C0
61C0
3F80
1F00
ENDCHAR
STARTCHAR uni04DA
ENCODING 1242
SWIDTH 752 0
DWIDTH 18 0
BBX 16 20 1 0
BITMAP
0660
0660
0000
07E0
1FF8
381C
700E
6006
0003
0003
FFFF
FFFF
C003
C003
E007
6006
700E
381C
1FF8
07E0
ENDCHAR
STARTCHAR uni04DB
ENCODING 1243
SWIDTH 556 0
DWIDTH 13 0
BBX 11 16 1 0
BITMAP
3300
3300
0000
1F00
7F80
E1C0
C0E0
0060
0060
FFE0
FFE0
C060
C0C0
61C0
3F80
1F00
ENDCHAR
STARTCHAR uni04DC
ENCODING 1244
SWIDTH 923 0
DWIDTH 22 0
BBX 22 20 0 0
BITMAP
00CC00
00CC00
000000
E0301C
F0303C
183060
1830E0
0C30C0
0C31C0
063180
03FF00
03FF00
073380
0E31C0
1C30E0
183060
303030
303030
603018
E0301C
ENDCHAR
STARTCHAR uni04DD
ENCODING 1245
SWIDTH 668 0
DWIDTH 16 0
BBX 16 16 -1 0
BITMAP
0660
0660
0000
718E
718E
1998
1998
1DB8
0DB0
07E0
1DB0
1998
318C
718E
6186
C183
ENDCHAR
STARTCHAR uni04DE
ENCODING 1246
SWIDTH 604 0
DWIDTH 15 0
BBX 13 20 1 0
BITMAP
0CC0
0CC0
0000
1F80
3FE0
7060
E030
C030
4030
0060
07C0
07E0
0070
0038
4018
E018
6038
7870
3FE0
0F80
ENDCHAR
STARTCHAR uni04DF
ENCODING 1247
SWIDTH 458 0
DWIDTH 11 0
BBX 9 16 1 0
BITMAP
3300
3300
0000
3E00
7F00
E380
C180
0180
0F00
0F00
0380
0180
C180
E380
7F00
3E00
ENDCHAR
STARTCHAR uni04E0
ENCODING 1248
SWIDTH 604 0
DWIDTH 15 0
BBX 13 17 1 0
BITMAP
7FF8
7FF8
0030
0060
00C0
0180
0300
07C0
07F0
0070
0018
4018
C018
6018
7870
3FE0
0FC0
ENDCHAR
STARTCHAR uni04E1
ENCODING 1249
SWIDTH 544 0
DWIDTH 13 0
BBX 11 18 1 -5
BITMAP
7FC0
7FC0
0380
0300
0600
0E00
0F00
0F80
01C0
00E0
0060
0060
0060
C060
E0C0
71C0
7F80
1F00
ENDCHAR
STARTCHAR uni04E2
ENCODING 1250
SWIDTH 718 0
DWIDTH 17 0
BBX 13 20 2 0
BITMAP
0FE0
0FE0
0000
C018
C038
C078
C078
C0D8
C1D8
C198
C318
C718
C618
CC18
DC18
D818
F018
F018
E018
C018
ENDCHAR
STARTCHAR uni04E3
ENCODING 1251
SWIDTH 558 0
DWIDTH 13 0
BBX 10 16 2 0
BITMAP
3F80
3F80
0000
C1C0
C1C0
C3C0
C3C0
C6C0
CEC0
CCC0
DCC0
D8C0
F0C0
F0C0
E0C0
E0C0
ENDCHAR
STARTCHAR uni04E4
ENCODING 1252
SWIDTH 718 0
DWIDTH 17 0
BBX 13 20 2 0
BITMAP
0CC0
0CC0
0000
C018
C038
C078
C078
C0D8
C1D8
C198
C318
C718
C618
CC18
DC18
D818
F018
F018
E018
C018
ENDCHAR
STARTCHAR uni04E5
ENCODING 1253
SWIDTH 558 0
DWIDTH 13 0
BBX 10 16 2 0
BITMAP
1980
1980
0000
C1C0
C1C0
C3C0
C3C0
C6C0
CEC0
CCC0
DCC0
D8C0
F0C0
F0C0
E0C0
E0C0
ENDCHAR
STARTCHAR uni04E6
ENCODING 1254
SWIDTH 777 0
DWIDTH 19 0
BBX 17 20 1 0
BITMAP
066000
066000
000000
07F000
1FFC00
3C1E00
700700
600300
E00380
C00180
C00180
C00180
C00180
C00180
E00380
600300
700700
3C1E00
1FFC00
07F000
ENDCHAR
STARTCHAR uni04E7
ENCODING 1255
SWIDTH 556 0
DWIDTH 13 0
BBX 11 16 1 0
BITMAP
1980
1980
0000
1F00
3F80
71C0
E0E0
C060
C060
C060
C060
C060
E0E0
71C0
3F80
1F00
ENDCHAR
STARTCHAR uni04E8
ENCODING 1256
SWIDTH 777 0
DWIDTH 19 0
BBX 17 17 1 0
BITMAP
07F000
1FFC00
3C1E00
700700
600300
C00180
C00180
FFFF80
FFFF80
C00180
C00180
E00380
600300
700700
3C1E00
1FFC00
07F000
ENDCHAR
STARTCHAR uni04E9
ENCODING 1257
SWIDTH 556 0
DWIDTH 13 0
BBX 11 13 1 0
BITMAP
1F00
3F80
71C0
E0E0
C060
FFE0
FFE0
C060
C060
E0E0
71C0
3F80
1F00
ENDCHAR
STARTCHAR uni04EA
ENCODING 1258
SWIDTH 777 0
DWIDTH 19 0
BBX 17 20 1 0
BITMAP
066000
066000
000000
07F000
1FFC00
3C1E00
700700
600300
C00180
C00180
FFFF80
FFFF80
C00180
C00180
E00380
600300
700700
3C1E00
1FFC00
07F000
ENDCHAR
STARTCHAR uni04EB
ENCODING 1259
SWIDTH 556 0
DWIDTH 13 0
BBX 11 16 1 0
BITMAP
1980
1980
0000
1F00
3F80
71C0
E0E0
C060
FFE0
FFE0
C060
C060
E0E0
71C0
3F80
1F00
ENDCHAR
STARTCHAR uni04EC
ENCODING 1260
SWIDTH 718 0
DWIDTH 17 0
BBX 15 20 1 0
BITMAP
0CC0
0CC0
0000
0FC0
3FF0
7838
601C
E00C
4006
0006
03FE
03FE
0006
0006
400E
E00C
601C
7838
3FF0
0FC0
ENDCHAR
STARTCHAR uni04ED
ENCODING 1261
SWIDTH 510 0
DWIDTH 12 0
BBX 10 16 1 0
BITMAP
3300
3300
0000
3E00
7F00
E180
C1C0
00C0
0FC0
0FC0
00C0
C0C0
C1C0
6380
7F80
1E00
ENDCHAR
STARTCHAR uni04EE
ENCODING 1262
SWIDTH 635 0
DWIDTH 15 0
BBX 13 20 1 0
BITMAP
0FE0
0FE0
0000
C018
C018
6030
6030
3060
3060
18C0
18C0
0D80
0D80
0700
0700
0200
0600
0600
3C00
3800
ENDCHAR
STARTCHAR uni04EF
ENCODING 1263
SWIDTH 500 0
DWIDTH 12 0
BBX 10 21 1 -5
BITMAP
7F00
7F00
0000
C0C0
C0C0
C180
6180
6180
6380
3300
3300
1B00
1E00
1E00
0E00
0C00
0C00
0C00
1800
7800
7000
ENDCHAR
STARTCHAR uni04F0
ENCODING 1264
SWIDTH 635 0
DWIDTH 15 0
BBX 13 20 1 0
BITMAP
1980
1980
0000
C018
C018
6030
6030
3060
3060
18C0
18C0
0D80
0D80
0700
0700
0200
0600
0600
3C00
3800
ENDCHAR
STARTCHAR uni04F1
ENCODING 1265
SWIDTH 500 0
DWIDTH 12 0
BBX 10 21 1 -5
BITMAP
3300
3300
0000
C0C0
C0C0
C180
6180
6180
6380
3300
3300
1B00
1E00
1E00
0E00
0C00
0C00
0C00
1800
7800
7000
ENDCHAR
STARTCHAR uni04F2
ENCODING 1266
SWIDTH 635 0
DWIDTH 15 0
BBX 13 21 1 0
BITMAP
0660
0CC0
0CC0
0000
C018
C018
6030
6030
3060
3060
18C0
18C0
0D80
0D80
0700
0700
0200
0600
0600
3C00
3800
ENDCHAR
STARTCHAR uni04F3
ENCODING 1267
SWIDTH 500 0
DWIDTH 12 0
BBX 10 22 1 -5
BITMAP
1980
3300
2200
0000
C0C0
C0C0
C180
6180
6180
6380
3300
3300
1B00
1E00
1E00
0E00
0C00
0C00
0C00
1800
7800
7000
ENDCHAR
STARTCHAR uni04F4
ENCODING 1268
SWIDTH 666 0
DWIDTH 16 0
BBX 12 20 2 0
BITMAP
1980
1980
0000
C030
C030
C030
C030
C030
C030
C030
C030
6070
7FF0
1F30
0030
0030
0030
0030
0030
0030
ENDCHAR
STARTCHAR uni04F5
ENCODING 1269
SWIDTH 520 0
DWIDTH 13 0
BBX 10 16 1 0
BITMAP
3300
3300
0000
C0C0
C0C0
C0C0
C0C0
C0C0
C0C0
E1C0
7FC0
3EC0
00C0
00C0
00C0
00C0
ENDCHAR
STARTCHAR uni04F6
ENCODING 1270
SWIDTH 541 0
DWIDTH 13 0
BBX 11 22 2 -5
BITMAP
FFE0
FFE0
C000
C000
C000
C000
C000
C000
C000
C000
C000
C000
C000
C000
C000
F000
F000
3000
3000
3000
3000
3000
ENDCHAR
STARTCHAR uni04F7
ENCODING 1271
SWIDTH 364 0
DWIDTH 9 0
BBX 7 17 2 -4
BITMAP
FE
FE
C0
C0
C0
C0
C0
C0
C0
C0
C0
E0
E0
60
60
60
60
ENDCHAR
STARTCHAR uni04F8
ENCODING 1272
SWIDTH 885 0
DWIDTH 21 0
BBX 17 20 2 0
BITMAP
066000
066000
000000
C00180
C00180
C00180
C00180
C00180
C00180
C00180
FFC180
FFF180
C07180
C01980
C01980
C01980
C01980
C03180
FFF180
FFC180
ENDCHAR
STARTCHAR uni04F9
ENCODING 1273
SWIDTH 718 0
DWIDTH 17 0
BBX 13 16 2 0
BITMAP
0CC0
0CC0
0000
C018
C018
C018
C018
C018
FF18
FF98
C1D8
C0D8
C0D8
C1D8
FF98
FF18
ENDCHAR
STARTCHAR uni04FA
ENCODING 1274
SWIDTH 541 0
DWIDTH 13 0
BBX 13 22 0 -5
BITMAP
3FF8
3FF8
3000
3000
3000
3000
3000
FF80
FF80
3000
3000
3000
3000
3000
3000
3800
3800
1800
1800
1800
7800
7000
ENDCHAR
STARTCHAR uni04FB
ENCODING 1275
SWIDTH 364 0
DWIDTH 9 0
BBX 8 18 1 -5
BITMAP
7F
7F
60
60
60
FC
FC
60
60
60
60
70
70
30
30
30
F0
E0
ENDCHAR
STARTCHAR uni04FC
ENCODING 1276
SWIDTH 666 0
DWIDTH 16 0
BBX 16 22 0 -5
BITMAP
7007
300E
180C
0C18
0E30
0670
03E0
01C0
01C0
03C0
0760
0E30
0C38
1818
300C
7006
E006
0003
0003
0003
000F
000E
ENDCHAR
STARTCHAR uni04FD
ENCODING 1277
SWIDTH 500 0
DWIDTH 12 0
BBX 12 18 0 -5
BITMAP
E070
6060
30C0
1980
1F80
0F00
0600
0F00
1F80
1980
30C0
6060
E060
0030
0030
0030
00F0
00E0
ENDCHAR
STARTCHAR uni04FE
ENCODING 1278
SWIDTH 666 0
DWIDTH 16 0
BBX 16 17 0 0
BITMAP
7007
300E
180C
0C18
0E30
0670
03E0
3FFC
3FFC
03C0
0760
0E30
0C38
1818
300C
7006
E007
ENDCHAR
STARTCHAR uni04FF
ENCODING 1279
SWIDTH 500 0
DWIDTH 12 0
BBX 12 13 0 0
BITMAP
E070
6060
30C0
1980
1F80
FFF0
FFF0
0F00
1F80
1980
30C0
6060
E070
ENDCHAR
STARTCHAR uni0500
ENCODING 1280
SWIDTH 656 0
DWIDTH 16 0
BBX 13 17 1 0
BITMAP
0018
0018
0018
0018
0018
0018
0018
1FF8
7FF8
6018
C018
C018
C018
C018
7018
7FF8
1FF8
ENDCHAR
STARTCHAR uni0501
ENCODING 1281
SWIDTH 556 0
DWIDTH 14 0
BBX 11 17 1 0
BITMAP
0060
0060
0060
0060
1E60
3F60
71E0
E0E0
C060
C060
C060
C060
C060
60E0
71E0
3F60
1E60
ENDCHAR
STARTCHAR uni0502
ENCODING 1282
SWIDTH 968 0
DWIDTH 23 0
BBX 21 17 1 0
BITMAP
001800
001800
001800
001800
001800
001800
001800
1FF818
7FF818
601818
C01818
C01818
C01818
C03818
707C30
7FEFF0
1FC7C0
ENDCHAR
STARTCHAR uni0503
ENCODING 1283
SWIDTH 876 0
DWIDTH 21 0
BBX 19 17 1 0
BITMAP
006000
006000
006000
006000
1E6000
3FE000
71E000
E0E000
C06000
C06060
C06060
C06060
C06060
60E060
71F0C0
3FBFC0
1F1F00
ENDCHAR
STARTCHAR uni0504
ENCODING 1284
SWIDTH 956 0
DWIDTH 23 0
BBX 20 17 1 0
BITMAP
1F0000
3FC000
70E000
E06000
E06000
406000
00C000
078030
07E030
00E030
003030
003030
003030
003030
003860
001FE0
000F80
ENDCHAR
STARTCHAR uni0505
ENCODING 1285
SWIDTH 815 0
DWIDTH 20 0
BBX 17 13 1 0
BITMAP
3E0000
7F0000
E38000
C18000
038000
1F0180
1F0180
038180
018180
018180
01C300
00FF00
007C00
ENDCHAR
STARTCHAR uni0506
ENCODING 1286
SWIDTH 662 0
DWIDTH 16 0
BBX 14 22 1 -5
BITMAP
1F00
3FC0
70E0
E060
E060
4060
00C0
0780
07E0
00E0
0030
0030
0030
0030
0030
003C
003C
000C
000C
000C
000C
000C
ENDCHAR
STARTCHAR uni0507
ENCODING 1287
SWIDTH 509 0
DWIDTH 12 0
BBX 10 17 1 -4
BITMAP
3E00
7F00
E380
C180
0380
1F00
1F00
0380
0180
0180
0180
01C0
01C0
00C0
00C0
00C0
00C0
ENDCHAR
STARTCHAR uni0508
ENCODING 1288
SWIDTH 970 0
DWIDTH 23 0
BBX 21 17 0 0
BITMAP
1FF800
1FF800
181800
181800
181800
181800
181800
181818
181818
181818
181818
181818
181818
181818
381C38
F00FF0
E007E0
ENDCHAR
STARTCHAR uni0509
ENCODING 1289
SWIDTH 909 0
DWIDTH 22 0
BBX 20 13 0 0
BITMAP
3FF000
3FF000
303000
303000
303000
303030
303030
303030
303030
303030
303860
F01FE0
E00780
ENDCHAR
STARTCHAR uni050A
ENCODING 1290
SWIDTH 1034 0
DWIDTH 25 0
BBX 21 17 2 0
BITMAP
C01800
C01800
C01800
C01800
C01800
C01800
C01800
FFF818
FFF818
C01818
C01818
C01818
C01818
C01818
C01C30
C00FF0
C007C0
ENDCHAR
STARTCHAR uni050B
ENCODING 1291
SWIDTH 878 0
DWIDTH 21 0
BBX 17 13 2 0
BITMAP
C0C000
C0C000
C0C000
C0C000
C0C000
FFC180
FFC180
C0C180
C0C180
C0C180
C0E300
C07F00
C03E00
ENDCHAR
STARTCHAR uni050C
ENCODING 1292
SWIDTH 777 0
DWIDTH 19 0
BBX 16 17 1 0
BITMAP
07F0
1FFC
3C1E
7006
6007
E003
C000
C000
C07F
C07F
C003
C003
6006
700E
381C
1FF8
07F0
ENDCHAR
STARTCHAR uni050D
ENCODING 1293
SWIDTH 558 0
DWIDTH 13 0
BBX 11 13 1 0
BITMAP
1F80
3FC0
70E0
E060
C000
C000
C7E0
C7E0
C060
E060
70C0
3F80
1F00
ENDCHAR
STARTCHAR uni050E
ENCODING 1294
SWIDTH 746 0
DWIDTH 18 0
BBX 16 17 1 0
BITMAP
FFFC
FFFC
0300
0300
0300
0300
0300
0303
0303
0303
0303
0303
0303
0303
0386
01FE
00F8
ENDCHAR
STARTCHAR uni050F
ENCODING 1295
SWIDTH 665 0
DWIDTH 16 0
BBX 14 13 0 0
BITMAP
FFC0
FFC0
0C00
0C00
0C00
0C0C
0C0C
0C0C
0C0C
0C0C
0E18
07F8
01E0
ENDCHAR
STARTCHAR uni0510
ENCODING 1296
SWIDTH 604 0
DWIDTH 15 0
BBX 13 17 1 0
BITMAP
0FC0
3FE0
7070
6038
6018
6000
3000
1F00
3F00
7000
C000
C000
C018
E030
70F0
3FE0
0F80
ENDCHAR
STARTCHAR uni0511
ENCODING 1297
SWIDTH 458 0
DWIDTH 11 0
BBX 9 13 1 0
BITMAP
3E00
7F00
E380
C180
C000
7800
7800
E000
C000
C180
E380
7F00
3E00
ENDCHAR
STARTCHAR uni0512
ENCODING 1298
SWIDTH 656 0
DWIDTH 16 0
BBX 14 22 0 -5
BITMAP
1FFC
1FFC
180C
180C
180C
180C
180C
180C
180C
180C
180C
180C
180C
180C
380C
F00C
E00C
000C
000C
000C
003C
0038
ENDCHAR
STARTCHAR uni0513
ENCODING 1299
SWIDTH 583 0
DWIDTH 14 0
BBX 11 18 1 -5
BITMAP
3FE0
3FE0
3060
3060
3060
3060
3060
3060
3060
3060
3060
F060
E060
0060
0060
0060
01E0
01C0
ENDCHAR
STARTCHAR uni0514
ENCODING 1300
SWIDTH 959 0
DWIDTH 23 0
BBX 23 17 0 0
BITMAP
1FC00E
1FE00C
187018
183030
181860
180CE0
1807C0
180780
180300
180780
180EC0
181CE0
181860
183030
386018
F0E00C
E1C00E
ENDCHAR
ENDFONT
